<svg width="1488" height="946" viewBox="0 0 1488 946" fill="none" xmlns="http://www.w3.org/2000/svg">
<g filter="url(#filter0_f_83_366)">
<rect x="12" y="889" width="1464" height="2" rx="1" fill="black"/>
</g>
<g filter="url(#filter1_f_83_366)">
<rect x="13" y="890" width="1462" height="1" rx="0.5" fill="black" fill-opacity="0.6"/>
</g>
<g filter="url(#filter2_ii_83_366)">
<rect x="12" y="863" width="1464" height="26" rx="1" fill="url(#paint0_linear_83_366)"/>
<rect x="12" y="863" width="1464" height="26" rx="1" fill="url(#paint1_linear_83_366)" fill-opacity="0.2"/>
</g>
<g filter="url(#filter3_d_83_366)">
<g filter="url(#filter4_di_83_366)">
<path d="M162 95C162 83.9543 170.954 75 182 75H1306C1317.05 75 1326 83.9543 1326 95V863H162V95Z" fill="white"/>
</g>
<path d="M162 95C162 83.9543 170.954 75 182 75H1306C1317.05 75 1326 83.9543 1326 95V863H162V95Z" fill="url(#paint2_linear_83_366)"/>
<path d="M365.202 419.235L379.901 410.699L394.559 419.162L394.517 436.162L379.818 444.699L365.16 436.235L365.202 419.235Z" fill="#22CCCC"/>
<path d="M350.64 507.295L340.862 513L306.82 493.342L306.869 482.021L350.64 507.295ZM370.195 495.887L360.416 501.591L306.92 470.7L306.971 459.38L370.195 495.887ZM375.157 476.054L375.107 487.375L311.885 450.868L321.662 445.164L375.157 476.054ZM375.259 453.415L375.208 464.733L331.44 439.461L341.216 433.758L375.259 453.415Z" fill="#2962FF"/>
<path d="M280.081 406.97L302.13 394.166L324.116 406.861L324.053 432.361L302.004 445.166L280.018 432.47L280.081 406.97Z" fill="#2962FF"/>
<path d="M253.056 453.786L275.105 440.982L297.091 453.677L297.029 479.177L274.98 491.981L252.993 479.286L253.056 453.786Z" fill="#2962FF"/>
<path d="M430.687 472.389V432.918H445.139C447.94 432.918 450.259 433.381 452.096 434.306C453.933 435.218 455.307 436.458 456.22 438.026C457.132 439.58 457.588 441.334 457.588 443.287C457.588 444.932 457.286 446.319 456.682 447.45C456.078 448.568 455.269 449.467 454.254 450.148C453.252 450.816 452.147 451.305 450.94 451.613V451.999C452.25 452.063 453.528 452.487 454.774 453.271C456.033 454.041 457.074 455.14 457.896 456.566C458.718 457.992 459.129 459.727 459.129 461.77C459.129 463.787 458.654 465.599 457.703 467.205C456.766 468.798 455.314 470.064 453.348 471.001C451.383 471.927 448.871 472.389 445.814 472.389H430.687ZM436.641 467.282H445.236C448.088 467.282 450.13 466.729 451.363 465.624C452.597 464.519 453.213 463.138 453.213 461.481C453.213 460.234 452.899 459.091 452.269 458.05C451.64 457.009 450.74 456.181 449.571 455.564C448.415 454.947 447.041 454.639 445.448 454.639H436.641V467.282ZM436.641 449.994H444.619C445.955 449.994 447.156 449.737 448.222 449.223C449.302 448.709 450.156 447.99 450.785 447.065C451.428 446.127 451.749 445.022 451.749 443.75C451.749 442.118 451.177 440.75 450.034 439.645C448.891 438.54 447.137 437.987 444.773 437.987H436.641V449.994Z" fill="#2962FF"/>
<path d="M476.858 472.987C473.942 472.987 471.43 472.363 469.324 471.117C467.23 469.858 465.611 468.091 464.468 465.817C463.337 463.53 462.772 460.851 462.772 457.78C462.772 454.748 463.337 452.076 464.468 449.763C465.611 447.45 467.204 445.645 469.246 444.347C471.302 443.05 473.704 442.401 476.453 442.401C478.124 442.401 479.742 442.677 481.31 443.229C482.877 443.782 484.284 444.649 485.53 445.831C486.776 447.013 487.759 448.549 488.478 450.437C489.197 452.313 489.557 454.594 489.557 457.279V459.322H466.028V455.005H483.911C483.911 453.489 483.603 452.146 482.986 450.977C482.369 449.795 481.502 448.863 480.385 448.183C479.28 447.502 477.982 447.161 476.492 447.161C474.873 447.161 473.46 447.559 472.253 448.356C471.058 449.14 470.133 450.168 469.478 451.44C468.835 452.699 468.514 454.067 468.514 455.545V458.917C468.514 460.896 468.861 462.579 469.555 463.967C470.261 465.355 471.244 466.415 472.503 467.147C473.762 467.866 475.233 468.226 476.916 468.226C478.008 468.226 479.004 468.072 479.903 467.764C480.802 467.442 481.579 466.967 482.234 466.337C482.89 465.708 483.391 464.931 483.738 464.005L489.191 464.988C488.754 466.594 487.971 468.001 486.84 469.209C485.722 470.404 484.316 471.336 482.62 472.004C480.937 472.659 479.016 472.987 476.858 472.987Z" fill="#2962FF"/>
<path d="M507.079 472.987C504.163 472.987 501.651 472.363 499.544 471.117C497.45 469.858 495.831 468.091 494.688 465.817C493.558 463.53 492.992 460.851 492.992 457.78C492.992 454.748 493.558 452.076 494.688 449.763C495.831 447.45 497.424 445.645 499.467 444.347C501.523 443.05 503.925 442.401 506.674 442.401C508.344 442.401 509.963 442.677 511.53 443.229C513.097 443.782 514.504 444.649 515.75 445.831C516.996 447.013 517.979 448.549 518.699 450.437C519.418 452.313 519.778 454.594 519.778 457.279V459.322H496.249V455.005H514.132C514.132 453.489 513.823 452.146 513.207 450.977C512.59 449.795 511.723 448.863 510.605 448.183C509.5 447.502 508.203 447.161 506.713 447.161C505.094 447.161 503.681 447.559 502.473 448.356C501.278 449.14 500.354 450.168 499.698 451.44C499.056 452.699 498.735 454.067 498.735 455.545V458.917C498.735 460.896 499.082 462.579 499.775 463.967C500.482 465.355 501.465 466.415 502.724 467.147C503.983 467.866 505.454 468.226 507.137 468.226C508.229 468.226 509.224 468.072 510.123 467.764C511.023 467.442 511.8 466.967 512.455 466.337C513.11 465.708 513.611 464.931 513.958 464.005L519.412 464.988C518.975 466.594 518.191 468.001 517.061 469.209C515.943 470.404 514.536 471.336 512.841 472.004C511.158 472.659 509.237 472.987 507.079 472.987Z" fill="#2962FF"/>
<path d="M530.304 454.812V472.389H524.543V432.918H530.227V447.604H530.593C531.287 446.011 532.347 444.746 533.773 443.808C535.199 442.87 537.062 442.401 539.361 442.401C541.391 442.401 543.164 442.818 544.68 443.653C546.209 444.489 547.39 445.735 548.226 447.392C549.073 449.037 549.497 451.093 549.497 453.56V472.389H543.736V454.253C543.736 452.082 543.177 450.399 542.059 449.204C540.941 447.996 539.387 447.392 537.396 447.392C536.034 447.392 534.814 447.681 533.734 448.26C532.668 448.838 531.827 449.686 531.21 450.804C530.606 451.909 530.304 453.245 530.304 454.812Z" fill="#2962FF"/>
<path d="M555.558 472.389V442.786H561.32V472.389H555.558Z" fill="#2962FF"/>
<path d="M592.764 442.786L582.031 472.389H575.864L565.112 442.786H571.297L578.793 465.567H579.102L586.579 442.786H592.764Z" fill="#2962FF"/>
<path d="M608.301 472.987C605.385 472.987 602.873 472.363 600.766 471.117C598.672 469.858 597.054 468.091 595.91 465.817C594.78 463.53 594.215 460.851 594.215 457.78C594.215 454.748 594.78 452.076 595.91 449.763C597.054 447.45 598.647 445.645 600.689 444.347C602.745 443.05 605.147 442.401 607.896 442.401C609.566 442.401 611.185 442.677 612.752 443.229C614.32 443.782 615.726 444.649 616.973 445.831C618.219 447.013 619.201 448.549 619.921 450.437C620.64 452.313 621 454.594 621 457.279V459.322H597.471V455.005H615.354C615.354 453.489 615.046 452.146 614.429 450.977C613.812 449.795 612.945 448.863 611.827 448.183C610.723 447.502 609.425 447.161 607.935 447.161C606.316 447.161 604.903 447.559 603.696 448.356C602.501 449.14 601.576 450.168 600.921 451.44C600.278 452.699 599.957 454.067 599.957 455.545V458.917C599.957 460.896 600.304 462.579 600.998 463.967C601.704 465.355 602.687 466.415 603.946 467.147C605.205 467.866 606.676 468.226 608.359 468.226C609.451 468.226 610.446 468.072 611.346 467.764C612.245 467.442 613.022 466.967 613.677 466.337C614.333 465.708 614.834 464.931 615.18 464.005L620.634 464.988C620.197 466.594 619.413 468.001 618.283 469.209C617.165 470.404 615.759 471.336 614.063 472.004C612.38 472.659 610.459 472.987 608.301 472.987Z" fill="#2962FF"/>
<path d="M553.912 431.748L558.421 429.129L562.917 431.725L562.905 436.94L558.395 439.559L553.899 436.962L553.912 431.748Z" fill="#FF9A2E"/>
<path d="M738.928 365.948C739.637 366.06 740.281 366.349 740.86 366.816C741.457 367.283 741.924 367.861 742.26 368.552C742.615 369.243 742.792 369.98 742.792 370.764C742.792 371.753 742.54 372.649 742.036 373.452C741.532 374.236 740.795 374.861 739.824 375.328C738.872 375.776 737.743 376 736.436 376H729.156V356.484H736.156C737.481 356.484 738.611 356.708 739.544 357.156C740.477 357.585 741.177 358.173 741.644 358.92C742.111 359.667 742.344 360.507 742.344 361.44C742.344 362.597 742.027 363.559 741.392 364.324C740.776 365.071 739.955 365.612 738.928 365.948ZM731.704 364.912H735.988C737.183 364.912 738.107 364.632 738.76 364.072C739.413 363.512 739.74 362.737 739.74 361.748C739.74 360.759 739.413 359.984 738.76 359.424C738.107 358.864 737.164 358.584 735.932 358.584H731.704V364.912ZM736.212 373.9C737.481 373.9 738.471 373.601 739.18 373.004C739.889 372.407 740.244 371.576 740.244 370.512C740.244 369.429 739.871 368.58 739.124 367.964C738.377 367.329 737.379 367.012 736.128 367.012H731.704V373.9H736.212ZM760.328 367.74C760.328 368.225 760.3 368.739 760.244 369.28H747.98C748.073 370.792 748.587 371.977 749.52 372.836C750.472 373.676 751.62 374.096 752.964 374.096C754.065 374.096 754.98 373.844 755.708 373.34C756.455 372.817 756.977 372.127 757.276 371.268H760.02C759.609 372.743 758.788 373.947 757.556 374.88C756.324 375.795 754.793 376.252 752.964 376.252C751.508 376.252 750.201 375.925 749.044 375.272C747.905 374.619 747.009 373.695 746.356 372.5C745.703 371.287 745.376 369.887 745.376 368.3C745.376 366.713 745.693 365.323 746.328 364.128C746.963 362.933 747.849 362.019 748.988 361.384C750.145 360.731 751.471 360.404 752.964 360.404C754.42 360.404 755.708 360.721 756.828 361.356C757.948 361.991 758.807 362.868 759.404 363.988C760.02 365.089 760.328 366.34 760.328 367.74ZM757.696 367.208C757.696 366.237 757.481 365.407 757.052 364.716C756.623 364.007 756.035 363.475 755.288 363.12C754.56 362.747 753.748 362.56 752.852 362.56C751.564 362.56 750.463 362.971 749.548 363.792C748.652 364.613 748.139 365.752 748.008 367.208H757.696ZM777.691 367.74C777.691 368.225 777.663 368.739 777.607 369.28H765.343C765.436 370.792 765.95 371.977 766.883 372.836C767.835 373.676 768.983 374.096 770.327 374.096C771.428 374.096 772.343 373.844 773.071 373.34C773.818 372.817 774.34 372.127 774.639 371.268H777.383C776.972 372.743 776.151 373.947 774.919 374.88C773.687 375.795 772.156 376.252 770.327 376.252C768.871 376.252 767.564 375.925 766.407 375.272C765.268 374.619 764.372 373.695 763.719 372.5C763.066 371.287 762.739 369.887 762.739 368.3C762.739 366.713 763.056 365.323 763.691 364.128C764.326 362.933 765.212 362.019 766.351 361.384C767.508 360.731 768.834 360.404 770.327 360.404C771.783 360.404 773.071 360.721 774.191 361.356C775.311 361.991 776.17 362.868 776.767 363.988C777.383 365.089 777.691 366.34 777.691 367.74ZM775.059 367.208C775.059 366.237 774.844 365.407 774.415 364.716C773.986 364.007 773.398 363.475 772.651 363.12C771.923 362.747 771.111 362.56 770.215 362.56C768.927 362.56 767.826 362.971 766.911 363.792C766.015 364.613 765.502 365.752 765.371 367.208H775.059ZM788.67 360.376C789.828 360.376 790.873 360.628 791.806 361.132C792.74 361.617 793.468 362.355 793.99 363.344C794.532 364.333 794.802 365.537 794.802 366.956V376H792.282V367.32C792.282 365.789 791.9 364.623 791.134 363.82C790.369 362.999 789.324 362.588 787.998 362.588C786.654 362.588 785.581 363.008 784.778 363.848C783.994 364.688 783.602 365.911 783.602 367.516V376H781.054V355.28H783.602V362.84C784.106 362.056 784.797 361.449 785.674 361.02C786.57 360.591 787.569 360.376 788.67 360.376ZM800.281 358.164C799.795 358.164 799.385 357.996 799.049 357.66C798.713 357.324 798.545 356.913 798.545 356.428C798.545 355.943 798.713 355.532 799.049 355.196C799.385 354.86 799.795 354.692 800.281 354.692C800.747 354.692 801.139 354.86 801.457 355.196C801.793 355.532 801.961 355.943 801.961 356.428C801.961 356.913 801.793 357.324 801.457 357.66C801.139 357.996 800.747 358.164 800.281 358.164ZM801.513 360.656V376H798.965V360.656H801.513ZM811.567 373.648L816.327 360.656H819.043L813.023 376H810.055L804.035 360.656H806.779L811.567 373.648ZM835.551 367.74C835.551 368.225 835.523 368.739 835.467 369.28H823.203C823.296 370.792 823.809 371.977 824.743 372.836C825.695 373.676 826.843 374.096 828.187 374.096C829.288 374.096 830.203 373.844 830.931 373.34C831.677 372.817 832.2 372.127 832.499 371.268H835.243C834.832 372.743 834.011 373.947 832.779 374.88C831.547 375.795 830.016 376.252 828.187 376.252C826.731 376.252 825.424 375.925 824.267 375.272C823.128 374.619 822.232 373.695 821.579 372.5C820.925 371.287 820.599 369.887 820.599 368.3C820.599 366.713 820.916 365.323 821.551 364.128C822.185 362.933 823.072 362.019 824.211 361.384C825.368 360.731 826.693 360.404 828.187 360.404C829.643 360.404 830.931 360.721 832.051 361.356C833.171 361.991 834.029 362.868 834.627 363.988C835.243 365.089 835.551 366.34 835.551 367.74ZM832.919 367.208C832.919 366.237 832.704 365.407 832.275 364.716C831.845 364.007 831.257 363.475 830.511 363.12C829.783 362.747 828.971 362.56 828.075 362.56C826.787 362.56 825.685 362.971 824.771 363.792C823.875 364.613 823.361 365.752 823.231 367.208H832.919ZM853.995 360.376C855.152 360.376 856.197 360.628 857.131 361.132C858.064 361.617 858.792 362.355 859.315 363.344C859.856 364.333 860.127 365.537 860.127 366.956V376H857.607V367.32C857.607 365.789 857.224 364.623 856.459 363.82C855.693 362.999 854.648 362.588 853.323 362.588C851.979 362.588 850.905 363.008 850.103 363.848C849.319 364.688 848.927 365.911 848.927 367.516V376H846.379V355.28H848.927V362.84C849.431 362.056 850.121 361.449 850.999 361.02C851.895 360.591 852.893 360.376 853.995 360.376ZM878.289 367.74C878.289 368.225 878.261 368.739 878.205 369.28H865.941C866.034 370.792 866.547 371.977 867.481 372.836C868.433 373.676 869.581 374.096 870.925 374.096C872.026 374.096 872.941 373.844 873.669 373.34C874.415 372.817 874.938 372.127 875.237 371.268H877.981C877.57 372.743 876.749 373.947 875.517 374.88C874.285 375.795 872.754 376.252 870.925 376.252C869.469 376.252 868.162 375.925 867.005 375.272C865.866 374.619 864.97 373.695 864.317 372.5C863.663 371.287 863.337 369.887 863.337 368.3C863.337 366.713 863.654 365.323 864.289 364.128C864.923 362.933 865.81 362.019 866.949 361.384C868.106 360.731 869.431 360.404 870.925 360.404C872.381 360.404 873.669 360.721 874.789 361.356C875.909 361.991 876.767 362.868 877.365 363.988C877.981 365.089 878.289 366.34 878.289 367.74ZM875.657 367.208C875.657 366.237 875.442 365.407 875.013 364.716C874.583 364.007 873.995 363.475 873.249 363.12C872.521 362.747 871.709 362.56 870.813 362.56C869.525 362.56 868.423 362.971 867.509 363.792C866.613 364.613 866.099 365.752 865.969 367.208H875.657ZM884.2 355.28V376H881.652V355.28H884.2ZM891.091 363.484C891.595 362.607 892.341 361.879 893.331 361.3C894.339 360.703 895.505 360.404 896.831 360.404C898.193 360.404 899.425 360.731 900.527 361.384C901.647 362.037 902.524 362.961 903.159 364.156C903.793 365.332 904.111 366.704 904.111 368.272C904.111 369.821 903.793 371.203 903.159 372.416C902.524 373.629 901.647 374.572 900.527 375.244C899.425 375.916 898.193 376.252 896.831 376.252C895.524 376.252 894.367 375.963 893.359 375.384C892.369 374.787 891.613 374.049 891.091 373.172V383.28H888.543V360.656H891.091V363.484ZM901.507 368.272C901.507 367.115 901.273 366.107 900.807 365.248C900.34 364.389 899.705 363.736 898.903 363.288C898.119 362.84 897.251 362.616 896.299 362.616C895.365 362.616 894.497 362.849 893.695 363.316C892.911 363.764 892.276 364.427 891.791 365.304C891.324 366.163 891.091 367.161 891.091 368.3C891.091 369.457 891.324 370.475 891.791 371.352C892.276 372.211 892.911 372.873 893.695 373.34C894.497 373.788 895.365 374.012 896.299 374.012C897.251 374.012 898.119 373.788 898.903 373.34C899.705 372.873 900.34 372.211 900.807 371.352C901.273 370.475 901.507 369.448 901.507 368.272ZM912.897 376.252C911.721 376.252 910.666 376.056 909.733 375.664C908.799 375.253 908.062 374.693 907.521 373.984C906.979 373.256 906.681 372.425 906.625 371.492H909.257C909.331 372.257 909.686 372.883 910.321 373.368C910.974 373.853 911.823 374.096 912.869 374.096C913.839 374.096 914.605 373.881 915.165 373.452C915.725 373.023 916.005 372.481 916.005 371.828C916.005 371.156 915.706 370.661 915.109 370.344C914.511 370.008 913.587 369.681 912.337 369.364C911.198 369.065 910.265 368.767 909.537 368.468C908.827 368.151 908.211 367.693 907.689 367.096C907.185 366.48 906.933 365.677 906.933 364.688C906.933 363.904 907.166 363.185 907.633 362.532C908.099 361.879 908.762 361.365 909.621 360.992C910.479 360.6 911.459 360.404 912.561 360.404C914.259 360.404 915.631 360.833 916.677 361.692C917.722 362.551 918.282 363.727 918.357 365.22H915.809C915.753 364.417 915.426 363.773 914.829 363.288C914.25 362.803 913.466 362.56 912.477 362.56C911.562 362.56 910.834 362.756 910.293 363.148C909.751 363.54 909.481 364.053 909.481 364.688C909.481 365.192 909.639 365.612 909.957 365.948C910.293 366.265 910.703 366.527 911.189 366.732C911.693 366.919 912.383 367.133 913.261 367.376C914.362 367.675 915.258 367.973 915.949 368.272C916.639 368.552 917.227 368.981 917.713 369.56C918.217 370.139 918.478 370.895 918.497 371.828C918.497 372.668 918.263 373.424 917.797 374.096C917.33 374.768 916.667 375.3 915.809 375.692C914.969 376.065 913.998 376.252 912.897 376.252ZM942.774 360.656L933.534 383.224H930.902L933.926 375.832L927.738 360.656H930.566L935.382 373.088L940.142 360.656H942.774ZM952.028 376.252C950.59 376.252 949.284 375.925 948.108 375.272C946.95 374.619 946.036 373.695 945.364 372.5C944.71 371.287 944.384 369.887 944.384 368.3C944.384 366.732 944.72 365.351 945.392 364.156C946.082 362.943 947.016 362.019 948.192 361.384C949.368 360.731 950.684 360.404 952.14 360.404C953.596 360.404 954.912 360.731 956.088 361.384C957.264 362.019 958.188 362.933 958.86 364.128C959.55 365.323 959.896 366.713 959.896 368.3C959.896 369.887 959.541 371.287 958.832 372.5C958.141 373.695 957.198 374.619 956.004 375.272C954.809 375.925 953.484 376.252 952.028 376.252ZM952.028 374.012C952.942 374.012 953.801 373.797 954.604 373.368C955.406 372.939 956.05 372.295 956.536 371.436C957.04 370.577 957.292 369.532 957.292 368.3C957.292 367.068 957.049 366.023 956.564 365.164C956.078 364.305 955.444 363.671 954.66 363.26C953.876 362.831 953.026 362.616 952.112 362.616C951.178 362.616 950.32 362.831 949.536 363.26C948.77 363.671 948.154 364.305 947.688 365.164C947.221 366.023 946.988 367.068 946.988 368.3C946.988 369.551 947.212 370.605 947.66 371.464C948.126 372.323 948.742 372.967 949.508 373.396C950.273 373.807 951.113 374.012 952.028 374.012ZM976.854 360.656V376H974.306V373.732C973.821 374.516 973.139 375.132 972.262 375.58C971.403 376.009 970.451 376.224 969.406 376.224C968.211 376.224 967.138 375.981 966.186 375.496C965.234 374.992 964.478 374.245 963.918 373.256C963.377 372.267 963.106 371.063 963.106 369.644V360.656H965.626V369.308C965.626 370.82 966.009 371.987 966.774 372.808C967.539 373.611 968.585 374.012 969.91 374.012C971.273 374.012 972.346 373.592 973.13 372.752C973.914 371.912 974.306 370.689 974.306 369.084V360.656H976.854Z" fill="#65789B"/>
<path d="M748.196 410.264C750.1 410.264 751.631 410.852 752.788 412.028C753.964 413.185 754.552 414.809 754.552 416.9V426H750.632V417.432C750.632 416.219 750.324 415.295 749.708 414.66C749.092 414.007 748.252 413.68 747.188 413.68C746.124 413.68 745.275 414.007 744.64 414.66C744.024 415.295 743.716 416.219 743.716 417.432V426H739.796V417.432C739.796 416.219 739.488 415.295 738.872 414.66C738.256 414.007 737.416 413.68 736.352 413.68C735.269 413.68 734.411 414.007 733.776 414.66C733.16 415.295 732.852 416.219 732.852 417.432V426H728.932V410.488H732.852V412.364C733.356 411.711 734 411.197 734.784 410.824C735.587 410.451 736.464 410.264 737.416 410.264C738.629 410.264 739.712 410.525 740.664 411.048C741.616 411.552 742.353 412.28 742.876 413.232C743.38 412.336 744.108 411.617 745.06 411.076C746.031 410.535 747.076 410.264 748.196 410.264ZM757.264 418.188C757.264 416.62 757.572 415.229 758.188 414.016C758.823 412.803 759.672 411.869 760.736 411.216C761.819 410.563 763.023 410.236 764.348 410.236C765.505 410.236 766.513 410.469 767.372 410.936C768.249 411.403 768.949 411.991 769.472 412.7V410.488H773.42V426H769.472V423.732C768.968 424.46 768.268 425.067 767.372 425.552C766.495 426.019 765.477 426.252 764.32 426.252C763.013 426.252 761.819 425.916 760.736 425.244C759.672 424.572 758.823 423.629 758.188 422.416C757.572 421.184 757.264 419.775 757.264 418.188ZM769.472 418.244C769.472 417.292 769.285 416.48 768.912 415.808C768.539 415.117 768.035 414.595 767.4 414.24C766.765 413.867 766.084 413.68 765.356 413.68C764.628 413.68 763.956 413.857 763.34 414.212C762.724 414.567 762.22 415.089 761.828 415.78C761.455 416.452 761.268 417.255 761.268 418.188C761.268 419.121 761.455 419.943 761.828 420.652C762.22 421.343 762.724 421.875 763.34 422.248C763.975 422.621 764.647 422.808 765.356 422.808C766.084 422.808 766.765 422.631 767.4 422.276C768.035 421.903 768.539 421.38 768.912 420.708C769.285 420.017 769.472 419.196 769.472 418.244ZM785.844 410.264C787.692 410.264 789.186 410.852 790.324 412.028C791.463 413.185 792.032 414.809 792.032 416.9V426H788.112V417.432C788.112 416.2 787.804 415.257 787.188 414.604C786.572 413.932 785.732 413.596 784.668 413.596C783.586 413.596 782.727 413.932 782.092 414.604C781.476 415.257 781.168 416.2 781.168 417.432V426H777.248V410.488H781.168V412.42C781.691 411.748 782.354 411.225 783.156 410.852C783.978 410.46 784.874 410.264 785.844 410.264ZM794.752 418.188C794.752 416.62 795.06 415.229 795.676 414.016C796.311 412.803 797.16 411.869 798.224 411.216C799.307 410.563 800.511 410.236 801.836 410.236C802.993 410.236 804.001 410.469 804.86 410.936C805.737 411.403 806.437 411.991 806.96 412.7V410.488H810.908V426H806.96V423.732C806.456 424.46 805.756 425.067 804.86 425.552C803.983 426.019 802.965 426.252 801.808 426.252C800.501 426.252 799.307 425.916 798.224 425.244C797.16 424.572 796.311 423.629 795.676 422.416C795.06 421.184 794.752 419.775 794.752 418.188ZM806.96 418.244C806.96 417.292 806.773 416.48 806.4 415.808C806.027 415.117 805.523 414.595 804.888 414.24C804.253 413.867 803.572 413.68 802.844 413.68C802.116 413.68 801.444 413.857 800.828 414.212C800.212 414.567 799.708 415.089 799.316 415.78C798.943 416.452 798.756 417.255 798.756 418.188C798.756 419.121 798.943 419.943 799.316 420.652C799.708 421.343 800.212 421.875 800.828 422.248C801.463 422.621 802.135 422.808 802.844 422.808C803.572 422.808 804.253 422.631 804.888 422.276C805.523 421.903 806.027 421.38 806.4 420.708C806.773 420.017 806.96 419.196 806.96 418.244ZM820.813 410.236C821.97 410.236 822.987 410.469 823.865 410.936C824.742 411.384 825.433 411.972 825.937 412.7V410.488H829.885V426.112C829.885 427.549 829.595 428.828 829.017 429.948C828.438 431.087 827.57 431.983 826.413 432.636C825.255 433.308 823.855 433.644 822.213 433.644C820.01 433.644 818.199 433.131 816.781 432.104C815.381 431.077 814.587 429.677 814.401 427.904H818.293C818.498 428.613 818.937 429.173 819.609 429.584C820.299 430.013 821.13 430.228 822.101 430.228C823.239 430.228 824.163 429.883 824.873 429.192C825.582 428.52 825.937 427.493 825.937 426.112V423.704C825.433 424.432 824.733 425.039 823.837 425.524C822.959 426.009 821.951 426.252 820.813 426.252C819.506 426.252 818.311 425.916 817.229 425.244C816.146 424.572 815.287 423.629 814.653 422.416C814.037 421.184 813.729 419.775 813.729 418.188C813.729 416.62 814.037 415.229 814.653 414.016C815.287 412.803 816.137 411.869 817.201 411.216C818.283 410.563 819.487 410.236 820.813 410.236ZM825.937 418.244C825.937 417.292 825.75 416.48 825.377 415.808C825.003 415.117 824.499 414.595 823.865 414.24C823.23 413.867 822.549 413.68 821.821 413.68C821.093 413.68 820.421 413.857 819.805 414.212C819.189 414.567 818.685 415.089 818.293 415.78C817.919 416.452 817.733 417.255 817.733 418.188C817.733 419.121 817.919 419.943 818.293 420.652C818.685 421.343 819.189 421.875 819.805 422.248C820.439 422.621 821.111 422.808 821.821 422.808C822.549 422.808 823.23 422.631 823.865 422.276C824.499 421.903 825.003 421.38 825.377 420.708C825.75 420.017 825.937 419.196 825.937 418.244ZM848.133 417.908C848.133 418.468 848.096 418.972 848.021 419.42H836.681C836.775 420.54 837.167 421.417 837.857 422.052C838.548 422.687 839.397 423.004 840.405 423.004C841.861 423.004 842.897 422.379 843.513 421.128H847.741C847.293 422.621 846.435 423.853 845.165 424.824C843.896 425.776 842.337 426.252 840.489 426.252C838.996 426.252 837.652 425.925 836.457 425.272C835.281 424.6 834.357 423.657 833.685 422.444C833.032 421.231 832.705 419.831 832.705 418.244C832.705 416.639 833.032 415.229 833.685 414.016C834.339 412.803 835.253 411.869 836.429 411.216C837.605 410.563 838.959 410.236 840.489 410.236C841.964 410.236 843.28 410.553 844.437 411.188C845.613 411.823 846.519 412.728 847.153 413.904C847.807 415.061 848.133 416.396 848.133 417.908ZM844.073 416.788C844.055 415.78 843.691 414.977 842.981 414.38C842.272 413.764 841.404 413.456 840.377 413.456C839.407 413.456 838.585 413.755 837.913 414.352C837.26 414.931 836.859 415.743 836.709 416.788H844.073ZM855.279 421.884L852.003 429.752H849.483L851.303 421.884H855.279ZM870.712 426.252C869.442 426.252 868.304 426.028 867.296 425.58C866.288 425.113 865.485 424.488 864.888 423.704C864.309 422.92 863.992 422.052 863.936 421.1H867.884C867.958 421.697 868.248 422.192 868.752 422.584C869.274 422.976 869.918 423.172 870.684 423.172C871.43 423.172 872.009 423.023 872.42 422.724C872.849 422.425 873.064 422.043 873.064 421.576C873.064 421.072 872.802 420.699 872.28 420.456C871.776 420.195 870.964 419.915 869.844 419.616C868.686 419.336 867.734 419.047 866.988 418.748C866.26 418.449 865.625 417.992 865.084 417.376C864.561 416.76 864.3 415.929 864.3 414.884C864.3 414.025 864.542 413.241 865.028 412.532C865.532 411.823 866.241 411.263 867.156 410.852C868.089 410.441 869.181 410.236 870.432 410.236C872.28 410.236 873.754 410.703 874.856 411.636C875.957 412.551 876.564 413.792 876.676 415.36H872.924C872.868 414.744 872.606 414.259 872.14 413.904C871.692 413.531 871.085 413.344 870.32 413.344C869.61 413.344 869.06 413.475 868.668 413.736C868.294 413.997 868.108 414.361 868.108 414.828C868.108 415.351 868.369 415.752 868.892 416.032C869.414 416.293 870.226 416.564 871.328 416.844C872.448 417.124 873.372 417.413 874.1 417.712C874.828 418.011 875.453 418.477 875.976 419.112C876.517 419.728 876.797 420.549 876.816 421.576C876.816 422.472 876.564 423.275 876.06 423.984C875.574 424.693 874.865 425.253 873.932 425.664C873.017 426.056 871.944 426.252 870.712 426.252ZM894.454 417.908C894.454 418.468 894.416 418.972 894.342 419.42H883.002C883.095 420.54 883.487 421.417 884.178 422.052C884.868 422.687 885.718 423.004 886.726 423.004C888.182 423.004 889.218 422.379 889.834 421.128H894.062C893.614 422.621 892.755 423.853 891.486 424.824C890.216 425.776 888.658 426.252 886.81 426.252C885.316 426.252 883.972 425.925 882.778 425.272C881.602 424.6 880.678 423.657 880.006 422.444C879.352 421.231 879.026 419.831 879.026 418.244C879.026 416.639 879.352 415.229 880.006 414.016C880.659 412.803 881.574 411.869 882.75 411.216C883.926 410.563 885.279 410.236 886.81 410.236C888.284 410.236 889.6 410.553 890.758 411.188C891.934 411.823 892.839 412.728 893.474 413.904C894.127 415.061 894.454 416.396 894.454 417.908ZM890.394 416.788C890.375 415.78 890.011 414.977 889.302 414.38C888.592 413.764 887.724 413.456 886.698 413.456C885.727 413.456 884.906 413.755 884.234 414.352C883.58 414.931 883.179 415.743 883.03 416.788H890.394ZM896.307 418.244C896.307 416.639 896.633 415.239 897.287 414.044C897.94 412.831 898.845 411.897 900.003 411.244C901.16 410.572 902.485 410.236 903.979 410.236C905.901 410.236 907.488 410.721 908.739 411.692C910.008 412.644 910.857 413.988 911.287 415.724H907.059C906.835 415.052 906.452 414.529 905.911 414.156C905.388 413.764 904.735 413.568 903.951 413.568C902.831 413.568 901.944 413.979 901.291 414.8C900.637 415.603 900.311 416.751 900.311 418.244C900.311 419.719 900.637 420.867 901.291 421.688C901.944 422.491 902.831 422.892 903.951 422.892C905.537 422.892 906.573 422.183 907.059 420.764H911.287C910.857 422.444 910.008 423.779 908.739 424.768C907.469 425.757 905.883 426.252 903.979 426.252C902.485 426.252 901.16 425.925 900.003 425.272C898.845 424.6 897.94 423.667 897.287 422.472C896.633 421.259 896.307 419.849 896.307 418.244ZM928.803 410.488V426H924.855V424.04C924.351 424.712 923.688 425.244 922.867 425.636C922.064 426.009 921.187 426.196 920.235 426.196C919.021 426.196 917.948 425.944 917.015 425.44C916.081 424.917 915.344 424.161 914.803 423.172C914.28 422.164 914.019 420.969 914.019 419.588V410.488H917.939V419.028C917.939 420.26 918.247 421.212 918.863 421.884C919.479 422.537 920.319 422.864 921.383 422.864C922.465 422.864 923.315 422.537 923.931 421.884C924.547 421.212 924.855 420.26 924.855 419.028V410.488H928.803ZM936.59 412.896C937.094 412.075 937.748 411.431 938.55 410.964C939.372 410.497 940.305 410.264 941.35 410.264V414.38H940.314C939.082 414.38 938.149 414.669 937.514 415.248C936.898 415.827 936.59 416.835 936.59 418.272V426H932.67V410.488H936.59V412.896ZM958.411 417.908C958.411 418.468 958.373 418.972 958.299 419.42H946.959C947.052 420.54 947.444 421.417 948.135 422.052C948.825 422.687 949.675 423.004 950.683 423.004C952.139 423.004 953.175 422.379 953.791 421.128H958.019C957.571 422.621 956.712 423.853 955.443 424.824C954.173 425.776 952.615 426.252 950.767 426.252C949.273 426.252 947.929 425.925 946.735 425.272C945.559 424.6 944.635 423.657 943.963 422.444C943.309 421.231 942.983 419.831 942.983 418.244C942.983 416.639 943.309 415.229 943.963 414.016C944.616 412.803 945.531 411.869 946.707 411.216C947.883 410.563 949.236 410.236 950.767 410.236C952.241 410.236 953.557 410.553 954.715 411.188C955.891 411.823 956.796 412.728 957.431 413.904C958.084 415.061 958.411 416.396 958.411 417.908ZM954.351 416.788C954.332 415.78 953.968 414.977 953.259 414.38C952.549 413.764 951.681 413.456 950.655 413.456C949.684 413.456 948.863 413.755 948.191 414.352C947.537 414.931 947.136 415.743 946.987 416.788H954.351ZM965.556 421.884L962.28 429.752H959.76L961.58 421.884H965.556ZM974.045 418.188C974.045 416.62 974.353 415.229 974.969 414.016C975.604 412.803 976.453 411.869 977.517 411.216C978.6 410.563 979.804 410.236 981.129 410.236C982.286 410.236 983.294 410.469 984.153 410.936C985.03 411.403 985.73 411.991 986.253 412.7V410.488H990.201V426H986.253V423.732C985.749 424.46 985.049 425.067 984.153 425.552C983.276 426.019 982.258 426.252 981.101 426.252C979.794 426.252 978.6 425.916 977.517 425.244C976.453 424.572 975.604 423.629 974.969 422.416C974.353 421.184 974.045 419.775 974.045 418.188ZM986.253 418.244C986.253 417.292 986.066 416.48 985.693 415.808C985.32 415.117 984.816 414.595 984.181 414.24C983.546 413.867 982.865 413.68 982.137 413.68C981.409 413.68 980.737 413.857 980.121 414.212C979.505 414.567 979.001 415.089 978.609 415.78C978.236 416.452 978.049 417.255 978.049 418.188C978.049 419.121 978.236 419.943 978.609 420.652C979.001 421.343 979.505 421.875 980.121 422.248C980.756 422.621 981.428 422.808 982.137 422.808C982.865 422.808 983.546 422.631 984.181 422.276C984.816 421.903 985.32 421.38 985.693 420.708C986.066 420.017 986.253 419.196 986.253 418.244ZM1002.63 410.264C1004.47 410.264 1005.97 410.852 1007.11 412.028C1008.24 413.185 1008.81 414.809 1008.81 416.9V426H1004.89V417.432C1004.89 416.2 1004.59 415.257 1003.97 414.604C1003.35 413.932 1002.51 413.596 1001.45 413.596C1000.37 413.596 999.508 413.932 998.874 414.604C998.258 415.257 997.95 416.2 997.95 417.432V426H994.03V410.488H997.95V412.42C998.472 411.748 999.135 411.225 999.938 410.852C1000.76 410.46 1001.65 410.264 1002.63 410.264ZM1011.53 418.188C1011.53 416.62 1011.84 415.229 1012.46 414.016C1013.09 412.803 1013.95 411.869 1015.03 411.216C1016.12 410.563 1017.32 410.236 1018.65 410.236C1019.65 410.236 1020.61 410.46 1021.53 410.908C1022.44 411.337 1023.17 411.916 1023.71 412.644V405.28H1027.69V426H1023.71V423.704C1023.23 424.469 1022.55 425.085 1021.67 425.552C1020.79 426.019 1019.77 426.252 1018.62 426.252C1017.31 426.252 1016.12 425.916 1015.03 425.244C1013.95 424.572 1013.09 423.629 1012.46 422.416C1011.84 421.184 1011.53 419.775 1011.53 418.188ZM1023.74 418.244C1023.74 417.292 1023.55 416.48 1023.18 415.808C1022.81 415.117 1022.3 414.595 1021.67 414.24C1021.03 413.867 1020.35 413.68 1019.63 413.68C1018.9 413.68 1018.23 413.857 1017.61 414.212C1016.99 414.567 1016.49 415.089 1016.1 415.78C1015.72 416.452 1015.54 417.255 1015.54 418.188C1015.54 419.121 1015.72 419.943 1016.1 420.652C1016.49 421.343 1016.99 421.875 1017.61 422.248C1018.24 422.621 1018.92 422.808 1019.63 422.808C1020.35 422.808 1021.03 422.631 1021.67 422.276C1022.3 421.903 1022.81 421.38 1023.18 420.708C1023.55 420.017 1023.74 419.196 1023.74 418.244ZM1044.27 410.236C1045.42 410.236 1046.44 410.469 1047.32 410.936C1048.2 411.384 1048.89 411.972 1049.39 412.7V410.488H1053.34V426.112C1053.34 427.549 1053.05 428.828 1052.47 429.948C1051.89 431.087 1051.02 431.983 1049.87 432.636C1048.71 433.308 1047.31 433.644 1045.67 433.644C1043.46 433.644 1041.65 433.131 1040.23 432.104C1038.83 431.077 1038.04 429.677 1037.85 427.904H1041.75C1041.95 428.613 1042.39 429.173 1043.06 429.584C1043.75 430.013 1044.58 430.228 1045.55 430.228C1046.69 430.228 1047.62 429.883 1048.33 429.192C1049.04 428.52 1049.39 427.493 1049.39 426.112V423.704C1048.89 424.432 1048.19 425.039 1047.29 425.524C1046.41 426.009 1045.4 426.252 1044.27 426.252C1042.96 426.252 1041.76 425.916 1040.68 425.244C1039.6 424.572 1038.74 423.629 1038.11 422.416C1037.49 421.184 1037.18 419.775 1037.18 418.188C1037.18 416.62 1037.49 415.229 1038.11 414.016C1038.74 412.803 1039.59 411.869 1040.65 411.216C1041.74 410.563 1042.94 410.236 1044.27 410.236ZM1049.39 418.244C1049.39 417.292 1049.2 416.48 1048.83 415.808C1048.46 415.117 1047.95 414.595 1047.32 414.24C1046.68 413.867 1046 413.68 1045.27 413.68C1044.55 413.68 1043.87 413.857 1043.26 414.212C1042.64 414.567 1042.14 415.089 1041.75 415.78C1041.37 416.452 1041.19 417.255 1041.19 418.188C1041.19 419.121 1041.37 419.943 1041.75 420.652C1042.14 421.343 1042.64 421.875 1043.26 422.248C1043.89 422.621 1044.56 422.808 1045.27 422.808C1046 422.808 1046.68 422.631 1047.32 422.276C1047.95 421.903 1048.46 421.38 1048.83 420.708C1049.2 420.017 1049.39 419.196 1049.39 418.244ZM1056.16 418.188C1056.16 416.62 1056.47 415.229 1057.08 414.016C1057.72 412.803 1058.57 411.869 1059.63 411.216C1060.71 410.563 1061.92 410.236 1063.24 410.236C1064.4 410.236 1065.41 410.469 1066.27 410.936C1067.14 411.403 1067.84 411.991 1068.37 412.7V410.488H1072.31V426H1068.37V423.732C1067.86 424.46 1067.16 425.067 1066.27 425.552C1065.39 426.019 1064.37 426.252 1063.21 426.252C1061.91 426.252 1060.71 425.916 1059.63 425.244C1058.57 424.572 1057.72 423.629 1057.08 422.416C1056.47 421.184 1056.16 419.775 1056.16 418.188ZM1068.37 418.244C1068.37 417.292 1068.18 416.48 1067.81 415.808C1067.43 415.117 1066.93 414.595 1066.29 414.24C1065.66 413.867 1064.98 413.68 1064.25 413.68C1063.52 413.68 1062.85 413.857 1062.23 414.212C1061.62 414.567 1061.11 415.089 1060.72 415.78C1060.35 416.452 1060.16 417.255 1060.16 418.188C1060.16 419.121 1060.35 419.943 1060.72 420.652C1061.11 421.343 1061.62 421.875 1062.23 422.248C1062.87 422.621 1063.54 422.808 1064.25 422.808C1064.98 422.808 1065.66 422.631 1066.29 422.276C1066.93 421.903 1067.43 421.38 1067.81 420.708C1068.18 420.017 1068.37 419.196 1068.37 418.244ZM1078.13 408.64C1077.44 408.64 1076.86 408.425 1076.39 407.996C1075.95 407.548 1075.72 406.997 1075.72 406.344C1075.72 405.691 1075.95 405.149 1076.39 404.72C1076.86 404.272 1077.44 404.048 1078.13 404.048C1078.82 404.048 1079.39 404.272 1079.84 404.72C1080.31 405.149 1080.54 405.691 1080.54 406.344C1080.54 406.997 1080.31 407.548 1079.84 407.996C1079.39 408.425 1078.82 408.64 1078.13 408.64ZM1080.06 410.488V426H1076.14V410.488H1080.06ZM1092.53 410.264C1094.38 410.264 1095.87 410.852 1097.01 412.028C1098.15 413.185 1098.72 414.809 1098.72 416.9V426H1094.8V417.432C1094.8 416.2 1094.49 415.257 1093.88 414.604C1093.26 413.932 1092.42 413.596 1091.36 413.596C1090.27 413.596 1089.41 413.932 1088.78 414.604C1088.16 415.257 1087.86 416.2 1087.86 417.432V426H1083.94V410.488H1087.86V412.42C1088.38 411.748 1089.04 411.225 1089.84 410.852C1090.67 410.46 1091.56 410.264 1092.53 410.264ZM1111.11 408.64C1110.42 408.64 1109.84 408.425 1109.37 407.996C1108.92 407.548 1108.7 406.997 1108.7 406.344C1108.7 405.691 1108.92 405.149 1109.37 404.72C1109.84 404.272 1110.42 404.048 1111.11 404.048C1111.8 404.048 1112.37 404.272 1112.82 404.72C1113.28 405.149 1113.52 405.691 1113.52 406.344C1113.52 406.997 1113.28 407.548 1112.82 407.996C1112.37 408.425 1111.8 408.64 1111.11 408.64ZM1113.04 410.488V426H1109.12V410.488H1113.04ZM1125.51 410.264C1127.36 410.264 1128.85 410.852 1129.99 412.028C1131.13 413.185 1131.7 414.809 1131.7 416.9V426H1127.78V417.432C1127.78 416.2 1127.47 415.257 1126.85 414.604C1126.24 413.932 1125.4 413.596 1124.33 413.596C1123.25 413.596 1122.39 413.932 1121.76 414.604C1121.14 415.257 1120.83 416.2 1120.83 417.432V426H1116.91V410.488H1120.83V412.42C1121.36 411.748 1122.02 411.225 1122.82 410.852C1123.64 410.46 1124.54 410.264 1125.51 410.264ZM1141.36 426.252C1140.09 426.252 1138.95 426.028 1137.94 425.58C1136.94 425.113 1136.13 424.488 1135.54 423.704C1134.96 422.92 1134.64 422.052 1134.58 421.1H1138.53C1138.61 421.697 1138.9 422.192 1139.4 422.584C1139.92 422.976 1140.57 423.172 1141.33 423.172C1142.08 423.172 1142.66 423.023 1143.07 422.724C1143.5 422.425 1143.71 422.043 1143.71 421.576C1143.71 421.072 1143.45 420.699 1142.93 420.456C1142.42 420.195 1141.61 419.915 1140.49 419.616C1139.33 419.336 1138.38 419.047 1137.64 418.748C1136.91 418.449 1136.27 417.992 1135.73 417.376C1135.21 416.76 1134.95 415.929 1134.95 414.884C1134.95 414.025 1135.19 413.241 1135.68 412.532C1136.18 411.823 1136.89 411.263 1137.8 410.852C1138.74 410.441 1139.83 410.236 1141.08 410.236C1142.93 410.236 1144.4 410.703 1145.5 411.636C1146.61 412.551 1147.21 413.792 1147.32 415.36H1143.57C1143.52 414.744 1143.25 414.259 1142.79 413.904C1142.34 413.531 1141.73 413.344 1140.97 413.344C1140.26 413.344 1139.71 413.475 1139.32 413.736C1138.94 413.997 1138.76 414.361 1138.76 414.828C1138.76 415.351 1139.02 415.752 1139.54 416.032C1140.06 416.293 1140.87 416.564 1141.98 416.844C1143.1 417.124 1144.02 417.413 1144.75 417.712C1145.48 418.011 1146.1 418.477 1146.62 419.112C1147.17 419.728 1147.45 420.549 1147.46 421.576C1147.46 422.472 1147.21 423.275 1146.71 423.984C1146.22 424.693 1145.51 425.253 1144.58 425.664C1143.67 426.056 1142.59 426.252 1141.36 426.252ZM1152.67 408.64C1151.98 408.64 1151.4 408.425 1150.93 407.996C1150.49 407.548 1150.26 406.997 1150.26 406.344C1150.26 405.691 1150.49 405.149 1150.93 404.72C1151.4 404.272 1151.98 404.048 1152.67 404.048C1153.36 404.048 1153.93 404.272 1154.38 404.72C1154.84 405.149 1155.08 405.691 1155.08 406.344C1155.08 406.997 1154.84 407.548 1154.38 407.996C1153.93 408.425 1153.36 408.64 1152.67 408.64ZM1154.6 410.488V426H1150.68V410.488H1154.6ZM1164.55 410.236C1165.71 410.236 1166.73 410.469 1167.6 410.936C1168.48 411.384 1169.17 411.972 1169.67 412.7V410.488H1173.62V426.112C1173.62 427.549 1173.33 428.828 1172.75 429.948C1172.18 431.087 1171.31 431.983 1170.15 432.636C1168.99 433.308 1167.59 433.644 1165.95 433.644C1163.75 433.644 1161.94 433.131 1160.52 432.104C1159.12 431.077 1158.33 429.677 1158.14 427.904H1162.03C1162.24 428.613 1162.67 429.173 1163.35 429.584C1164.04 430.013 1164.87 430.228 1165.84 430.228C1166.98 430.228 1167.9 429.883 1168.61 429.192C1169.32 428.52 1169.67 427.493 1169.67 426.112V423.704C1169.17 424.432 1168.47 425.039 1167.57 425.524C1166.7 426.009 1165.69 426.252 1164.55 426.252C1163.24 426.252 1162.05 425.916 1160.97 425.244C1159.88 424.572 1159.03 423.629 1158.39 422.416C1157.77 421.184 1157.47 419.775 1157.47 418.188C1157.47 416.62 1157.77 415.229 1158.39 414.016C1159.03 412.803 1159.87 411.869 1160.94 411.216C1162.02 410.563 1163.23 410.236 1164.55 410.236ZM1169.67 418.244C1169.67 417.292 1169.49 416.48 1169.11 415.808C1168.74 415.117 1168.24 414.595 1167.6 414.24C1166.97 413.867 1166.29 413.68 1165.56 413.68C1164.83 413.68 1164.16 413.857 1163.54 414.212C1162.93 414.567 1162.42 415.089 1162.03 415.78C1161.66 416.452 1161.47 417.255 1161.47 418.188C1161.47 419.121 1161.66 419.943 1162.03 420.652C1162.42 421.343 1162.93 421.875 1163.54 422.248C1164.18 422.621 1164.85 422.808 1165.56 422.808C1166.29 422.808 1166.97 422.631 1167.6 422.276C1168.24 421.903 1168.74 421.38 1169.11 420.708C1169.49 420.017 1169.67 419.196 1169.67 418.244ZM1186.19 410.264C1187.36 410.264 1188.41 410.525 1189.32 411.048C1190.24 411.552 1190.95 412.308 1191.45 413.316C1191.97 414.305 1192.24 415.5 1192.24 416.9V426H1188.32V417.432C1188.32 416.2 1188.01 415.257 1187.39 414.604C1186.78 413.932 1185.94 413.596 1184.87 413.596C1183.79 413.596 1182.93 413.932 1182.3 414.604C1181.68 415.257 1181.37 416.2 1181.37 417.432V426H1177.45V405.28H1181.37V412.42C1181.88 411.748 1182.55 411.225 1183.39 410.852C1184.23 410.46 1185.16 410.264 1186.19 410.264ZM1200.53 413.708V421.212C1200.53 421.735 1200.65 422.117 1200.89 422.36C1201.15 422.584 1201.58 422.696 1202.18 422.696H1204V426H1201.54C1198.23 426 1196.58 424.395 1196.58 421.184V413.708H1194.73V410.488H1196.58V406.652H1200.53V410.488H1204V413.708H1200.53ZM1212.75 426.252C1211.49 426.252 1210.35 426.028 1209.34 425.58C1208.33 425.113 1207.53 424.488 1206.93 423.704C1206.35 422.92 1206.03 422.052 1205.98 421.1H1209.93C1210 421.697 1210.29 422.192 1210.79 422.584C1211.32 422.976 1211.96 423.172 1212.73 423.172C1213.47 423.172 1214.05 423.023 1214.46 422.724C1214.89 422.425 1215.11 422.043 1215.11 421.576C1215.11 421.072 1214.85 420.699 1214.32 420.456C1213.82 420.195 1213.01 419.915 1211.89 419.616C1210.73 419.336 1209.78 419.047 1209.03 418.748C1208.3 418.449 1207.67 417.992 1207.13 417.376C1206.6 416.76 1206.34 415.929 1206.34 414.884C1206.34 414.025 1206.59 413.241 1207.07 412.532C1207.57 411.823 1208.28 411.263 1209.2 410.852C1210.13 410.441 1211.22 410.236 1212.47 410.236C1214.32 410.236 1215.8 410.703 1216.9 411.636C1218 412.551 1218.61 413.792 1218.72 415.36H1214.97C1214.91 414.744 1214.65 414.259 1214.18 413.904C1213.73 413.531 1213.13 413.344 1212.36 413.344C1211.65 413.344 1211.1 413.475 1210.71 413.736C1210.34 413.997 1210.15 414.361 1210.15 414.828C1210.15 415.351 1210.41 415.752 1210.93 416.032C1211.46 416.293 1212.27 416.564 1213.37 416.844C1214.49 417.124 1215.41 417.413 1216.14 417.712C1216.87 418.011 1217.5 418.477 1218.02 419.112C1218.56 419.728 1218.84 420.549 1218.86 421.576C1218.86 422.472 1218.61 423.275 1218.1 423.984C1217.62 424.693 1216.91 425.253 1215.97 425.664C1215.06 426.056 1213.99 426.252 1212.75 426.252Z" fill="url(#paint3_linear_83_366)"/>
<path d="M735.4 460.756H732.18V474H729.632V460.756H727.644V458.656H729.632V457.564C729.632 455.847 730.071 454.596 730.948 453.812C731.844 453.009 733.272 452.608 735.232 452.608V454.736C734.112 454.736 733.319 454.96 732.852 455.408C732.404 455.837 732.18 456.556 732.18 457.564V458.656H735.4V460.756ZM740.919 461.148C741.367 460.271 742.002 459.589 742.823 459.104C743.663 458.619 744.68 458.376 745.875 458.376V461.008H745.203C742.347 461.008 740.919 462.557 740.919 465.656V474H738.371V458.656H740.919V461.148ZM755.508 474.252C754.071 474.252 752.764 473.925 751.588 473.272C750.431 472.619 749.516 471.695 748.844 470.5C748.191 469.287 747.864 467.887 747.864 466.3C747.864 464.732 748.2 463.351 748.872 462.156C749.563 460.943 750.496 460.019 751.672 459.384C752.848 458.731 754.164 458.404 755.62 458.404C757.076 458.404 758.392 458.731 759.568 459.384C760.744 460.019 761.668 460.933 762.34 462.128C763.031 463.323 763.376 464.713 763.376 466.3C763.376 467.887 763.021 469.287 762.312 470.5C761.621 471.695 760.679 472.619 759.484 473.272C758.289 473.925 756.964 474.252 755.508 474.252ZM755.508 472.012C756.423 472.012 757.281 471.797 758.084 471.368C758.887 470.939 759.531 470.295 760.016 469.436C760.52 468.577 760.772 467.532 760.772 466.3C760.772 465.068 760.529 464.023 760.044 463.164C759.559 462.305 758.924 461.671 758.14 461.26C757.356 460.831 756.507 460.616 755.592 460.616C754.659 460.616 753.8 460.831 753.016 461.26C752.251 461.671 751.635 462.305 751.168 463.164C750.701 464.023 750.468 465.068 750.468 466.3C750.468 467.551 750.692 468.605 751.14 469.464C751.607 470.323 752.223 470.967 752.988 471.396C753.753 471.807 754.593 472.012 755.508 472.012ZM785.178 458.376C786.373 458.376 787.437 458.628 788.37 459.132C789.304 459.617 790.041 460.355 790.582 461.344C791.124 462.333 791.394 463.537 791.394 464.956V474H788.874V465.32C788.874 463.789 788.492 462.623 787.726 461.82C786.98 460.999 785.962 460.588 784.674 460.588C783.349 460.588 782.294 461.017 781.51 461.876C780.726 462.716 780.334 463.939 780.334 465.544V474H777.814V465.32C777.814 463.789 777.432 462.623 776.666 461.82C775.92 460.999 774.902 460.588 773.614 460.588C772.289 460.588 771.234 461.017 770.45 461.876C769.666 462.716 769.274 463.939 769.274 465.544V474H766.726V458.656H769.274V460.868C769.778 460.065 770.45 459.449 771.29 459.02C772.149 458.591 773.092 458.376 774.118 458.376C775.406 458.376 776.545 458.665 777.534 459.244C778.524 459.823 779.261 460.672 779.746 461.792C780.176 460.709 780.885 459.869 781.874 459.272C782.864 458.675 783.965 458.376 785.178 458.376ZM816.255 458.656L807.015 481.224H804.383L807.407 473.832L801.219 458.656H804.047L808.863 471.088L813.623 458.656H816.255ZM825.508 474.252C824.071 474.252 822.764 473.925 821.588 473.272C820.431 472.619 819.516 471.695 818.844 470.5C818.191 469.287 817.864 467.887 817.864 466.3C817.864 464.732 818.2 463.351 818.872 462.156C819.563 460.943 820.496 460.019 821.672 459.384C822.848 458.731 824.164 458.404 825.62 458.404C827.076 458.404 828.392 458.731 829.568 459.384C830.744 460.019 831.668 460.933 832.34 462.128C833.031 463.323 833.376 464.713 833.376 466.3C833.376 467.887 833.021 469.287 832.312 470.5C831.621 471.695 830.679 472.619 829.484 473.272C828.289 473.925 826.964 474.252 825.508 474.252ZM825.508 472.012C826.423 472.012 827.281 471.797 828.084 471.368C828.887 470.939 829.531 470.295 830.016 469.436C830.52 468.577 830.772 467.532 830.772 466.3C830.772 465.068 830.529 464.023 830.044 463.164C829.559 462.305 828.924 461.671 828.14 461.26C827.356 460.831 826.507 460.616 825.592 460.616C824.659 460.616 823.8 460.831 823.016 461.26C822.251 461.671 821.635 462.305 821.168 463.164C820.701 464.023 820.468 465.068 820.468 466.3C820.468 467.551 820.692 468.605 821.14 469.464C821.607 470.323 822.223 470.967 822.988 471.396C823.753 471.807 824.593 472.012 825.508 472.012ZM850.334 458.656V474H847.786V471.732C847.301 472.516 846.62 473.132 845.742 473.58C844.884 474.009 843.932 474.224 842.886 474.224C841.692 474.224 840.618 473.981 839.666 473.496C838.714 472.992 837.958 472.245 837.398 471.256C836.857 470.267 836.586 469.063 836.586 467.644V458.656H839.106V467.308C839.106 468.82 839.489 469.987 840.254 470.808C841.02 471.611 842.065 472.012 843.39 472.012C844.753 472.012 845.826 471.592 846.61 470.752C847.394 469.912 847.786 468.689 847.786 467.084V458.656H850.334ZM857.184 461.148C857.632 460.271 858.267 459.589 859.088 459.104C859.928 458.619 860.946 458.376 862.14 458.376V461.008H861.468C858.612 461.008 857.184 462.557 857.184 465.656V474H854.636V458.656H857.184V461.148ZM871.595 466.3C871.595 464.713 871.912 463.332 872.547 462.156C873.181 460.961 874.059 460.037 875.179 459.384C876.317 458.731 877.615 458.404 879.071 458.404C880.956 458.404 882.505 458.861 883.719 459.776C884.951 460.691 885.763 461.96 886.155 463.584H883.411C883.149 462.651 882.636 461.913 881.871 461.372C881.124 460.831 880.191 460.56 879.071 460.56C877.615 460.56 876.439 461.064 875.543 462.072C874.647 463.061 874.199 464.471 874.199 466.3C874.199 468.148 874.647 469.576 875.543 470.584C876.439 471.592 877.615 472.096 879.071 472.096C880.191 472.096 881.124 471.835 881.871 471.312C882.617 470.789 883.131 470.043 883.411 469.072H886.155C885.744 470.64 884.923 471.9 883.691 472.852C882.459 473.785 880.919 474.252 879.071 474.252C877.615 474.252 876.317 473.925 875.179 473.272C874.059 472.619 873.181 471.695 872.547 470.5C871.912 469.305 871.595 467.905 871.595 466.3ZM892.102 453.28V474H889.554V453.28H892.102ZM903.137 474.252C901.7 474.252 900.393 473.925 899.217 473.272C898.06 472.619 897.145 471.695 896.473 470.5C895.82 469.287 895.493 467.887 895.493 466.3C895.493 464.732 895.829 463.351 896.501 462.156C897.192 460.943 898.125 460.019 899.301 459.384C900.477 458.731 901.793 458.404 903.249 458.404C904.705 458.404 906.021 458.731 907.197 459.384C908.373 460.019 909.297 460.933 909.969 462.128C910.66 463.323 911.005 464.713 911.005 466.3C911.005 467.887 910.65 469.287 909.941 470.5C909.25 471.695 908.308 472.619 907.113 473.272C905.918 473.925 904.593 474.252 903.137 474.252ZM903.137 472.012C904.052 472.012 904.91 471.797 905.713 471.368C906.516 470.939 907.16 470.295 907.645 469.436C908.149 468.577 908.401 467.532 908.401 466.3C908.401 465.068 908.158 464.023 907.673 463.164C907.188 462.305 906.553 461.671 905.769 461.26C904.985 460.831 904.136 460.616 903.221 460.616C902.288 460.616 901.429 460.831 900.645 461.26C899.88 461.671 899.264 462.305 898.797 463.164C898.33 464.023 898.097 465.068 898.097 466.3C898.097 467.551 898.321 468.605 898.769 469.464C899.236 470.323 899.852 470.967 900.617 471.396C901.382 471.807 902.222 472.012 903.137 472.012ZM927.963 458.656V474H925.415V471.732C924.93 472.516 924.249 473.132 923.371 473.58C922.513 474.009 921.561 474.224 920.515 474.224C919.321 474.224 918.247 473.981 917.295 473.496C916.343 472.992 915.587 472.245 915.027 471.256C914.486 470.267 914.215 469.063 914.215 467.644V458.656H916.735V467.308C916.735 468.82 917.118 469.987 917.883 470.808C918.649 471.611 919.694 472.012 921.019 472.012C922.382 472.012 923.455 471.592 924.239 470.752C925.023 469.912 925.415 468.689 925.415 467.084V458.656H927.963ZM931.313 466.272C931.313 464.704 931.631 463.332 932.265 462.156C932.9 460.961 933.768 460.037 934.869 459.384C935.989 458.731 937.24 458.404 938.621 458.404C939.816 458.404 940.927 458.684 941.953 459.244C942.98 459.785 943.764 460.504 944.305 461.4V453.28H946.881V474H944.305V471.116C943.801 472.031 943.055 472.787 942.065 473.384C941.076 473.963 939.919 474.252 938.593 474.252C937.231 474.252 935.989 473.916 934.869 473.244C933.768 472.572 932.9 471.629 932.265 470.416C931.631 469.203 931.313 467.821 931.313 466.272ZM944.305 466.3C944.305 465.143 944.072 464.135 943.605 463.276C943.139 462.417 942.504 461.764 941.701 461.316C940.917 460.849 940.049 460.616 939.097 460.616C938.145 460.616 937.277 460.84 936.493 461.288C935.709 461.736 935.084 462.389 934.617 463.248C934.151 464.107 933.917 465.115 933.917 466.272C933.917 467.448 934.151 468.475 934.617 469.352C935.084 470.211 935.709 470.873 936.493 471.34C937.277 471.788 938.145 472.012 939.097 472.012C940.049 472.012 940.917 471.788 941.701 471.34C942.504 470.873 943.139 470.211 943.605 469.352C944.072 468.475 944.305 467.457 944.305 466.3ZM959.968 456.164C959.483 456.164 959.072 455.996 958.736 455.66C958.4 455.324 958.232 454.913 958.232 454.428C958.232 453.943 958.4 453.532 958.736 453.196C959.072 452.86 959.483 452.692 959.968 452.692C960.435 452.692 960.827 452.86 961.144 453.196C961.48 453.532 961.648 453.943 961.648 454.428C961.648 454.913 961.48 455.324 961.144 455.66C960.827 455.996 960.435 456.164 959.968 456.164ZM961.2 458.656V474H958.652V458.656H961.2ZM973.019 458.376C974.885 458.376 976.397 458.945 977.555 460.084C978.712 461.204 979.291 462.828 979.291 464.956V474H976.771V465.32C976.771 463.789 976.388 462.623 975.623 461.82C974.857 460.999 973.812 460.588 972.487 460.588C971.143 460.588 970.069 461.008 969.267 461.848C968.483 462.688 968.091 463.911 968.091 465.516V474H965.543V458.656H968.091V460.84C968.595 460.056 969.276 459.449 970.135 459.02C971.012 458.591 971.973 458.376 973.019 458.376ZM989.697 460.756H986.477V474H983.929V460.756H981.941V458.656H983.929V457.564C983.929 455.847 984.368 454.596 985.245 453.812C986.141 453.009 987.569 452.608 989.529 452.608V454.736C988.409 454.736 987.616 454.96 987.149 455.408C986.701 455.837 986.477 456.556 986.477 457.564V458.656H989.697V460.756ZM995.216 461.148C995.664 460.271 996.298 459.589 997.12 459.104C997.96 458.619 998.977 458.376 1000.17 458.376V461.008H999.5C996.644 461.008 995.216 462.557 995.216 465.656V474H992.668V458.656H995.216V461.148ZM1002.16 466.272C1002.16 464.704 1002.48 463.332 1003.11 462.156C1003.75 460.961 1004.62 460.037 1005.72 459.384C1006.84 458.731 1008.08 458.404 1009.44 458.404C1010.79 458.404 1011.95 458.693 1012.94 459.272C1013.93 459.851 1014.67 460.579 1015.15 461.456V458.656H1017.73V474H1015.15V471.144C1014.65 472.04 1013.89 472.787 1012.89 473.384C1011.9 473.963 1010.74 474.252 1009.41 474.252C1008.05 474.252 1006.82 473.916 1005.72 473.244C1004.62 472.572 1003.75 471.629 1003.11 470.416C1002.48 469.203 1002.16 467.821 1002.16 466.272ZM1015.15 466.3C1015.15 465.143 1014.92 464.135 1014.45 463.276C1013.99 462.417 1013.35 461.764 1012.55 461.316C1011.77 460.849 1010.9 460.616 1009.95 460.616C1008.99 460.616 1008.13 460.84 1007.34 461.288C1006.56 461.736 1005.93 462.389 1005.47 463.248C1005 464.107 1004.77 465.115 1004.77 466.272C1004.77 467.448 1005 468.475 1005.47 469.352C1005.93 470.211 1006.56 470.873 1007.34 471.34C1008.13 471.788 1008.99 472.012 1009.95 472.012C1010.9 472.012 1011.77 471.788 1012.55 471.34C1013.35 470.873 1013.99 470.211 1014.45 469.352C1014.92 468.475 1015.15 467.457 1015.15 466.3ZM1027.47 474.252C1026.29 474.252 1025.24 474.056 1024.3 473.664C1023.37 473.253 1022.63 472.693 1022.09 471.984C1021.55 471.256 1021.25 470.425 1021.19 469.492H1023.83C1023.9 470.257 1024.26 470.883 1024.89 471.368C1025.54 471.853 1026.39 472.096 1027.44 472.096C1028.41 472.096 1029.17 471.881 1029.73 471.452C1030.29 471.023 1030.57 470.481 1030.57 469.828C1030.57 469.156 1030.28 468.661 1029.68 468.344C1029.08 468.008 1028.16 467.681 1026.91 467.364C1025.77 467.065 1024.83 466.767 1024.11 466.468C1023.4 466.151 1022.78 465.693 1022.26 465.096C1021.75 464.48 1021.5 463.677 1021.5 462.688C1021.5 461.904 1021.74 461.185 1022.2 460.532C1022.67 459.879 1023.33 459.365 1024.19 458.992C1025.05 458.6 1026.03 458.404 1027.13 458.404C1028.83 458.404 1030.2 458.833 1031.25 459.692C1032.29 460.551 1032.85 461.727 1032.93 463.22H1030.38C1030.32 462.417 1030 461.773 1029.4 461.288C1028.82 460.803 1028.04 460.56 1027.05 460.56C1026.13 460.56 1025.4 460.756 1024.86 461.148C1024.32 461.54 1024.05 462.053 1024.05 462.688C1024.05 463.192 1024.21 463.612 1024.53 463.948C1024.86 464.265 1025.27 464.527 1025.76 464.732C1026.26 464.919 1026.95 465.133 1027.83 465.376C1028.93 465.675 1029.83 465.973 1030.52 466.272C1031.21 466.552 1031.8 466.981 1032.28 467.56C1032.79 468.139 1033.05 468.895 1033.07 469.828C1033.07 470.668 1032.83 471.424 1032.37 472.096C1031.9 472.768 1031.24 473.3 1030.38 473.692C1029.54 474.065 1028.57 474.252 1027.47 474.252ZM1039.77 460.756V469.8C1039.77 470.547 1039.93 471.079 1040.25 471.396C1040.57 471.695 1041.12 471.844 1041.9 471.844H1043.78V474H1041.48C1040.06 474 1039 473.673 1038.29 473.02C1037.58 472.367 1037.22 471.293 1037.22 469.8V460.756H1035.24V458.656H1037.22V454.792H1039.77V458.656H1043.78V460.756H1039.77ZM1049.41 461.148C1049.86 460.271 1050.49 459.589 1051.32 459.104C1052.16 458.619 1053.17 458.376 1054.37 458.376V461.008H1053.7C1050.84 461.008 1049.41 462.557 1049.41 465.656V474H1046.86V458.656H1049.41V461.148ZM1070.92 458.656V474H1068.37V471.732C1067.88 472.516 1067.2 473.132 1066.32 473.58C1065.47 474.009 1064.51 474.224 1063.47 474.224C1062.27 474.224 1061.2 473.981 1060.25 473.496C1059.3 472.992 1058.54 472.245 1057.98 471.256C1057.44 470.267 1057.17 469.063 1057.17 467.644V458.656H1059.69V467.308C1059.69 468.82 1060.07 469.987 1060.84 470.808C1061.6 471.611 1062.65 472.012 1063.97 472.012C1065.34 472.012 1066.41 471.592 1067.19 470.752C1067.98 469.912 1068.37 468.689 1068.37 467.084V458.656H1070.92ZM1074.27 466.3C1074.27 464.713 1074.58 463.332 1075.22 462.156C1075.85 460.961 1076.73 460.037 1077.85 459.384C1078.99 458.731 1080.29 458.404 1081.74 458.404C1083.63 458.404 1085.18 458.861 1086.39 459.776C1087.62 460.691 1088.43 461.96 1088.83 463.584H1086.08C1085.82 462.651 1085.31 461.913 1084.54 461.372C1083.8 460.831 1082.86 460.56 1081.74 460.56C1080.29 460.56 1079.11 461.064 1078.21 462.072C1077.32 463.061 1076.87 464.471 1076.87 466.3C1076.87 468.148 1077.32 469.576 1078.21 470.584C1079.11 471.592 1080.29 472.096 1081.74 472.096C1082.86 472.096 1083.8 471.835 1084.54 471.312C1085.29 470.789 1085.8 470.043 1086.08 469.072H1088.83C1088.42 470.64 1087.59 471.9 1086.36 472.852C1085.13 473.785 1083.59 474.252 1081.74 474.252C1080.29 474.252 1078.99 473.925 1077.85 473.272C1076.73 472.619 1075.85 471.695 1075.22 470.5C1074.58 469.305 1074.27 467.905 1074.27 466.3ZM1095.33 460.756V469.8C1095.33 470.547 1095.49 471.079 1095.81 471.396C1096.13 471.695 1096.68 471.844 1097.46 471.844H1099.34V474H1097.04C1095.62 474 1094.56 473.673 1093.85 473.02C1093.14 472.367 1092.79 471.293 1092.79 469.8V460.756H1090.8V458.656H1092.79V454.792H1095.33V458.656H1099.34V460.756H1095.33ZM1116.03 458.656V474H1113.49V471.732C1113 472.516 1112.32 473.132 1111.44 473.58C1110.58 474.009 1109.63 474.224 1108.59 474.224C1107.39 474.224 1106.32 473.981 1105.37 473.496C1104.41 472.992 1103.66 472.245 1103.1 471.256C1102.56 470.267 1102.29 469.063 1102.29 467.644V458.656H1104.81V467.308C1104.81 468.82 1105.19 469.987 1105.95 470.808C1106.72 471.611 1107.76 472.012 1109.09 472.012C1110.45 472.012 1111.53 471.592 1112.31 470.752C1113.09 469.912 1113.49 468.689 1113.49 467.084V458.656H1116.03ZM1122.88 461.148C1123.33 460.271 1123.97 459.589 1124.79 459.104C1125.63 458.619 1126.65 458.376 1127.84 458.376V461.008H1127.17C1124.31 461.008 1122.88 462.557 1122.88 465.656V474H1120.34V458.656H1122.88V461.148ZM1144.78 465.74C1144.78 466.225 1144.75 466.739 1144.7 467.28H1132.43C1132.53 468.792 1133.04 469.977 1133.97 470.836C1134.93 471.676 1136.07 472.096 1137.42 472.096C1138.52 472.096 1139.43 471.844 1140.16 471.34C1140.91 470.817 1141.43 470.127 1141.73 469.268H1144.47C1144.06 470.743 1143.24 471.947 1142.01 472.88C1140.78 473.795 1139.25 474.252 1137.42 474.252C1135.96 474.252 1134.65 473.925 1133.5 473.272C1132.36 472.619 1131.46 471.695 1130.81 470.5C1130.16 469.287 1129.83 467.887 1129.83 466.3C1129.83 464.713 1130.15 463.323 1130.78 462.128C1131.42 460.933 1132.3 460.019 1133.44 459.384C1134.6 458.731 1135.92 458.404 1137.42 458.404C1138.87 458.404 1140.16 458.721 1141.28 459.356C1142.4 459.991 1143.26 460.868 1143.86 461.988C1144.47 463.089 1144.78 464.34 1144.78 465.74ZM1142.15 465.208C1142.15 464.237 1141.93 463.407 1141.51 462.716C1141.08 462.007 1140.49 461.475 1139.74 461.12C1139.01 460.747 1138.2 460.56 1137.31 460.56C1136.02 460.56 1134.92 460.971 1134 461.792C1133.11 462.613 1132.59 463.752 1132.46 465.208H1142.15ZM1154.66 466.272C1154.66 464.704 1154.97 463.332 1155.61 462.156C1156.24 460.961 1157.11 460.037 1158.21 459.384C1159.33 458.731 1160.57 458.404 1161.94 458.404C1163.28 458.404 1164.45 458.693 1165.44 459.272C1166.43 459.851 1167.16 460.579 1167.65 461.456V458.656H1170.23V474H1167.65V471.144C1167.15 472.04 1166.39 472.787 1165.38 473.384C1164.39 473.963 1163.23 474.252 1161.91 474.252C1160.55 474.252 1159.31 473.916 1158.21 473.244C1157.11 472.572 1156.24 471.629 1155.61 470.416C1154.97 469.203 1154.66 467.821 1154.66 466.272ZM1167.65 466.3C1167.65 465.143 1167.42 464.135 1166.95 463.276C1166.48 462.417 1165.85 461.764 1165.05 461.316C1164.26 460.849 1163.39 460.616 1162.44 460.616C1161.49 460.616 1160.62 460.84 1159.84 461.288C1159.05 461.736 1158.43 462.389 1157.96 463.248C1157.49 464.107 1157.26 465.115 1157.26 466.272C1157.26 467.448 1157.49 468.475 1157.96 469.352C1158.43 470.211 1159.05 470.873 1159.84 471.34C1160.62 471.788 1161.49 472.012 1162.44 472.012C1163.39 472.012 1164.26 471.788 1165.05 471.34C1165.85 470.873 1166.48 470.211 1166.95 469.352C1167.42 468.475 1167.65 467.457 1167.65 466.3ZM1182.01 458.376C1183.87 458.376 1185.39 458.945 1186.54 460.084C1187.7 461.204 1188.28 462.828 1188.28 464.956V474H1185.76V465.32C1185.76 463.789 1185.38 462.623 1184.61 461.82C1183.85 460.999 1182.8 460.588 1181.48 460.588C1180.13 460.588 1179.06 461.008 1178.26 461.848C1177.47 462.688 1177.08 463.911 1177.08 465.516V474H1174.53V458.656H1177.08V460.84C1177.58 460.056 1178.26 459.449 1179.12 459.02C1180 458.591 1180.96 458.376 1182.01 458.376ZM1191.49 466.272C1191.49 464.704 1191.81 463.332 1192.44 462.156C1193.08 460.961 1193.94 460.037 1195.05 459.384C1196.17 458.731 1197.42 458.404 1198.8 458.404C1199.99 458.404 1201.1 458.684 1202.13 459.244C1203.16 459.785 1203.94 460.504 1204.48 461.4V453.28H1207.06V474H1204.48V471.116C1203.98 472.031 1203.23 472.787 1202.24 473.384C1201.25 473.963 1200.09 474.252 1198.77 474.252C1197.41 474.252 1196.17 473.916 1195.05 473.244C1193.94 472.572 1193.08 471.629 1192.44 470.416C1191.81 469.203 1191.49 467.821 1191.49 466.272ZM1204.48 466.3C1204.48 465.143 1204.25 464.135 1203.78 463.276C1203.31 462.417 1202.68 461.764 1201.88 461.316C1201.09 460.849 1200.23 460.616 1199.27 460.616C1198.32 460.616 1197.45 460.84 1196.67 461.288C1195.89 461.736 1195.26 462.389 1194.79 463.248C1194.33 464.107 1194.09 465.115 1194.09 466.272C1194.09 467.448 1194.33 468.475 1194.79 469.352C1195.26 470.211 1195.89 470.873 1196.67 471.34C1197.45 471.788 1198.32 472.012 1199.27 472.012C1200.23 472.012 1201.09 471.788 1201.88 471.34C1202.68 470.873 1203.31 470.211 1203.78 469.352C1204.25 468.475 1204.48 467.457 1204.48 466.3ZM728.204 504.272C728.204 502.704 728.521 501.332 729.156 500.156C729.791 498.961 730.659 498.037 731.76 497.384C732.88 496.731 734.121 496.404 735.484 496.404C736.828 496.404 737.995 496.693 738.984 497.272C739.973 497.851 740.711 498.579 741.196 499.456V496.656H743.772V512H741.196V509.144C740.692 510.04 739.936 510.787 738.928 511.384C737.939 511.963 736.781 512.252 735.456 512.252C734.093 512.252 732.861 511.916 731.76 511.244C730.659 510.572 729.791 509.629 729.156 508.416C728.521 507.203 728.204 505.821 728.204 504.272ZM741.196 504.3C741.196 503.143 740.963 502.135 740.496 501.276C740.029 500.417 739.395 499.764 738.592 499.316C737.808 498.849 736.94 498.616 735.988 498.616C735.036 498.616 734.168 498.84 733.384 499.288C732.6 499.736 731.975 500.389 731.508 501.248C731.041 502.107 730.808 503.115 730.808 504.272C730.808 505.448 731.041 506.475 731.508 507.352C731.975 508.211 732.6 508.873 733.384 509.34C734.168 509.788 735.036 510.012 735.988 510.012C736.94 510.012 737.808 509.788 738.592 509.34C739.395 508.873 740.029 508.211 740.496 507.352C740.963 506.475 741.196 505.457 741.196 504.3ZM750.626 499.484C751.13 498.607 751.877 497.879 752.866 497.3C753.874 496.703 755.041 496.404 756.366 496.404C757.729 496.404 758.961 496.731 760.062 497.384C761.182 498.037 762.059 498.961 762.694 500.156C763.329 501.332 763.646 502.704 763.646 504.272C763.646 505.821 763.329 507.203 762.694 508.416C762.059 509.629 761.182 510.572 760.062 511.244C758.961 511.916 757.729 512.252 756.366 512.252C755.059 512.252 753.902 511.963 752.894 511.384C751.905 510.787 751.149 510.049 750.626 509.172V519.28H748.078V496.656H750.626V499.484ZM761.042 504.272C761.042 503.115 760.809 502.107 760.342 501.248C759.875 500.389 759.241 499.736 758.438 499.288C757.654 498.84 756.786 498.616 755.834 498.616C754.901 498.616 754.033 498.849 753.23 499.316C752.446 499.764 751.811 500.427 751.326 501.304C750.859 502.163 750.626 503.161 750.626 504.3C750.626 505.457 750.859 506.475 751.326 507.352C751.811 508.211 752.446 508.873 753.23 509.34C754.033 509.788 754.901 510.012 755.834 510.012C756.786 510.012 757.654 509.788 758.438 509.34C759.241 508.873 759.875 508.211 760.342 507.352C760.809 506.475 761.042 505.448 761.042 504.272ZM769.548 499.484C770.052 498.607 770.798 497.879 771.788 497.3C772.796 496.703 773.962 496.404 775.288 496.404C776.65 496.404 777.882 496.731 778.984 497.384C780.104 498.037 780.981 498.961 781.616 500.156C782.25 501.332 782.568 502.704 782.568 504.272C782.568 505.821 782.25 507.203 781.616 508.416C780.981 509.629 780.104 510.572 778.984 511.244C777.882 511.916 776.65 512.252 775.288 512.252C773.981 512.252 772.824 511.963 771.816 511.384C770.826 510.787 770.07 510.049 769.548 509.172V519.28H767V496.656H769.548V499.484ZM779.964 504.272C779.964 503.115 779.73 502.107 779.264 501.248C778.797 500.389 778.162 499.736 777.36 499.288C776.576 498.84 775.708 498.616 774.756 498.616C773.822 498.616 772.954 498.849 772.152 499.316C771.368 499.764 770.733 500.427 770.248 501.304C769.781 502.163 769.548 503.161 769.548 504.3C769.548 505.457 769.781 506.475 770.248 507.352C770.733 508.211 771.368 508.873 772.152 509.34C772.954 509.788 773.822 510.012 774.756 510.012C775.708 510.012 776.576 509.788 777.36 509.34C778.162 508.873 778.797 508.211 779.264 507.352C779.73 506.475 779.964 505.448 779.964 504.272ZM788.47 491.28V512H785.922V491.28H788.47ZM794.128 494.164C793.643 494.164 793.232 493.996 792.896 493.66C792.56 493.324 792.392 492.913 792.392 492.428C792.392 491.943 792.56 491.532 792.896 491.196C793.232 490.86 793.643 490.692 794.128 490.692C794.595 490.692 794.987 490.86 795.304 491.196C795.64 491.532 795.808 491.943 795.808 492.428C795.808 492.913 795.64 493.324 795.304 493.66C794.987 493.996 794.595 494.164 794.128 494.164ZM795.36 496.656V512H792.812V496.656H795.36ZM798.751 504.3C798.751 502.713 799.068 501.332 799.703 500.156C800.338 498.961 801.215 498.037 802.335 497.384C803.474 496.731 804.771 496.404 806.227 496.404C808.112 496.404 809.662 496.861 810.875 497.776C812.107 498.691 812.919 499.96 813.311 501.584H810.567C810.306 500.651 809.792 499.913 809.027 499.372C808.28 498.831 807.347 498.56 806.227 498.56C804.771 498.56 803.595 499.064 802.699 500.072C801.803 501.061 801.355 502.471 801.355 504.3C801.355 506.148 801.803 507.576 802.699 508.584C803.595 509.592 804.771 510.096 806.227 510.096C807.347 510.096 808.28 509.835 809.027 509.312C809.774 508.789 810.287 508.043 810.567 507.072H813.311C812.9 508.64 812.079 509.9 810.847 510.852C809.615 511.785 808.075 512.252 806.227 512.252C804.771 512.252 803.474 511.925 802.335 511.272C801.215 510.619 800.338 509.695 799.703 508.5C799.068 507.305 798.751 505.905 798.751 504.3ZM815.759 504.272C815.759 502.704 816.076 501.332 816.711 500.156C817.345 498.961 818.213 498.037 819.315 497.384C820.435 496.731 821.676 496.404 823.039 496.404C824.383 496.404 825.549 496.693 826.539 497.272C827.528 497.851 828.265 498.579 828.751 499.456V496.656H831.327V512H828.751V509.144C828.247 510.04 827.491 510.787 826.483 511.384C825.493 511.963 824.336 512.252 823.011 512.252C821.648 512.252 820.416 511.916 819.315 511.244C818.213 510.572 817.345 509.629 816.711 508.416C816.076 507.203 815.759 505.821 815.759 504.272ZM828.751 504.3C828.751 503.143 828.517 502.135 828.051 501.276C827.584 500.417 826.949 499.764 826.147 499.316C825.363 498.849 824.495 498.616 823.543 498.616C822.591 498.616 821.723 498.84 820.939 499.288C820.155 499.736 819.529 500.389 819.063 501.248C818.596 502.107 818.363 503.115 818.363 504.272C818.363 505.448 818.596 506.475 819.063 507.352C819.529 508.211 820.155 508.873 820.939 509.34C821.723 509.788 822.591 510.012 823.543 510.012C824.495 510.012 825.363 509.788 826.147 509.34C826.949 508.873 827.584 508.211 828.051 507.352C828.517 506.475 828.751 505.457 828.751 504.3ZM838.741 498.756V507.8C838.741 508.547 838.899 509.079 839.217 509.396C839.534 509.695 840.085 509.844 840.869 509.844H842.745V512H840.449C839.03 512 837.966 511.673 837.257 511.02C836.547 510.367 836.193 509.293 836.193 507.8V498.756H834.205V496.656H836.193V492.792H838.741V496.656H842.745V498.756H838.741ZM847.148 494.164C846.662 494.164 846.252 493.996 845.916 493.66C845.58 493.324 845.412 492.913 845.412 492.428C845.412 491.943 845.58 491.532 845.916 491.196C846.252 490.86 846.662 490.692 847.148 490.692C847.614 490.692 848.006 490.86 848.324 491.196C848.66 491.532 848.828 491.943 848.828 492.428C848.828 492.913 848.66 493.324 848.324 493.66C848.006 493.996 847.614 494.164 847.148 494.164ZM848.38 496.656V512H845.832V496.656H848.38ZM859.414 512.252C857.977 512.252 856.67 511.925 855.494 511.272C854.337 510.619 853.422 509.695 852.75 508.5C852.097 507.287 851.77 505.887 851.77 504.3C851.77 502.732 852.106 501.351 852.778 500.156C853.469 498.943 854.402 498.019 855.578 497.384C856.754 496.731 858.07 496.404 859.526 496.404C860.982 496.404 862.298 496.731 863.474 497.384C864.65 498.019 865.574 498.933 866.246 500.128C866.937 501.323 867.282 502.713 867.282 504.3C867.282 505.887 866.928 507.287 866.218 508.5C865.528 509.695 864.585 510.619 863.39 511.272C862.196 511.925 860.87 512.252 859.414 512.252ZM859.414 510.012C860.329 510.012 861.188 509.797 861.99 509.368C862.793 508.939 863.437 508.295 863.922 507.436C864.426 506.577 864.678 505.532 864.678 504.3C864.678 503.068 864.436 502.023 863.95 501.164C863.465 500.305 862.83 499.671 862.046 499.26C861.262 498.831 860.413 498.616 859.498 498.616C858.565 498.616 857.706 498.831 856.922 499.26C856.157 499.671 855.541 500.305 855.074 501.164C854.608 502.023 854.374 503.068 854.374 504.3C854.374 505.551 854.598 506.605 855.046 507.464C855.513 508.323 856.129 508.967 856.894 509.396C857.66 509.807 858.5 510.012 859.414 510.012ZM878.109 496.376C879.975 496.376 881.487 496.945 882.645 498.084C883.802 499.204 884.381 500.828 884.381 502.956V512H881.861V503.32C881.861 501.789 881.478 500.623 880.713 499.82C879.947 498.999 878.902 498.588 877.577 498.588C876.233 498.588 875.159 499.008 874.357 499.848C873.573 500.688 873.181 501.911 873.181 503.516V512H870.633V496.656H873.181V498.84C873.685 498.056 874.366 497.449 875.225 497.02C876.102 496.591 877.063 496.376 878.109 496.376ZM893.975 512.252C892.799 512.252 891.744 512.056 890.811 511.664C889.877 511.253 889.14 510.693 888.599 509.984C888.057 509.256 887.759 508.425 887.703 507.492H890.335C890.409 508.257 890.764 508.883 891.399 509.368C892.052 509.853 892.901 510.096 893.947 510.096C894.917 510.096 895.683 509.881 896.243 509.452C896.803 509.023 897.083 508.481 897.083 507.828C897.083 507.156 896.784 506.661 896.187 506.344C895.589 506.008 894.665 505.681 893.415 505.364C892.276 505.065 891.343 504.767 890.615 504.468C889.905 504.151 889.289 503.693 888.767 503.096C888.263 502.48 888.011 501.677 888.011 500.688C888.011 499.904 888.244 499.185 888.711 498.532C889.177 497.879 889.84 497.365 890.699 496.992C891.557 496.6 892.537 496.404 893.639 496.404C895.337 496.404 896.709 496.833 897.755 497.692C898.8 498.551 899.36 499.727 899.435 501.22H896.887C896.831 500.417 896.504 499.773 895.907 499.288C895.328 498.803 894.544 498.56 893.555 498.56C892.64 498.56 891.912 498.756 891.371 499.148C890.829 499.54 890.559 500.053 890.559 500.688C890.559 501.192 890.717 501.612 891.035 501.948C891.371 502.265 891.781 502.527 892.267 502.732C892.771 502.919 893.461 503.133 894.339 503.376C895.44 503.675 896.336 503.973 897.027 504.272C897.717 504.552 898.305 504.981 898.791 505.56C899.295 506.139 899.556 506.895 899.575 507.828C899.575 508.668 899.341 509.424 898.875 510.096C898.408 510.768 897.745 511.3 896.887 511.692C896.047 512.065 895.076 512.252 893.975 512.252ZM931.076 496.656L926.288 512H923.656L919.96 499.82L916.264 512H913.632L908.816 496.656H911.42L914.948 509.536L918.756 496.656H921.36L925.084 509.564L928.556 496.656H931.076ZM934.921 494.164C934.436 494.164 934.025 493.996 933.689 493.66C933.353 493.324 933.185 492.913 933.185 492.428C933.185 491.943 933.353 491.532 933.689 491.196C934.025 490.86 934.436 490.692 934.921 490.692C935.388 490.692 935.78 490.86 936.097 491.196C936.433 491.532 936.601 491.943 936.601 492.428C936.601 492.913 936.433 493.324 936.097 493.66C935.78 493.996 935.388 494.164 934.921 494.164ZM936.153 496.656V512H933.605V496.656H936.153ZM943.604 498.756V507.8C943.604 508.547 943.763 509.079 944.08 509.396C944.397 509.695 944.948 509.844 945.732 509.844H947.608V512H945.312C943.893 512 942.829 511.673 942.12 511.02C941.411 510.367 941.056 509.293 941.056 507.8V498.756H939.068V496.656H941.056V492.792H943.604V496.656H947.608V498.756H943.604ZM958.311 496.376C959.468 496.376 960.514 496.628 961.447 497.132C962.38 497.617 963.108 498.355 963.631 499.344C964.172 500.333 964.443 501.537 964.443 502.956V512H961.923V503.32C961.923 501.789 961.54 500.623 960.775 499.82C960.01 498.999 958.964 498.588 957.639 498.588C956.295 498.588 955.222 499.008 954.419 499.848C953.635 500.688 953.243 501.911 953.243 503.516V512H950.695V491.28H953.243V498.84C953.747 498.056 954.438 497.449 955.315 497.02C956.211 496.591 957.21 496.376 958.311 496.376ZM975.118 504.272C975.118 502.704 975.435 501.332 976.07 500.156C976.705 498.961 977.573 498.037 978.674 497.384C979.794 496.731 981.035 496.404 982.398 496.404C983.742 496.404 984.909 496.693 985.898 497.272C986.887 497.851 987.625 498.579 988.11 499.456V496.656H990.686V512H988.11V509.144C987.606 510.04 986.85 510.787 985.842 511.384C984.853 511.963 983.695 512.252 982.37 512.252C981.007 512.252 979.775 511.916 978.674 511.244C977.573 510.572 976.705 509.629 976.07 508.416C975.435 507.203 975.118 505.821 975.118 504.272ZM988.11 504.3C988.11 503.143 987.877 502.135 987.41 501.276C986.943 500.417 986.309 499.764 985.506 499.316C984.722 498.849 983.854 498.616 982.902 498.616C981.95 498.616 981.082 498.84 980.298 499.288C979.514 499.736 978.889 500.389 978.422 501.248C977.955 502.107 977.722 503.115 977.722 504.272C977.722 505.448 977.955 506.475 978.422 507.352C978.889 508.211 979.514 508.873 980.298 509.34C981.082 509.788 981.95 510.012 982.902 510.012C983.854 510.012 984.722 509.788 985.506 509.34C986.309 508.873 986.943 508.211 987.41 507.352C987.877 506.475 988.11 505.457 988.11 504.3ZM1016.06 496.656V512H1013.52V509.732C1013.03 510.516 1012.35 511.132 1011.47 511.58C1010.61 512.009 1009.66 512.224 1008.62 512.224C1007.42 512.224 1006.35 511.981 1005.4 511.496C1004.44 510.992 1003.69 510.245 1003.13 509.256C1002.59 508.267 1002.32 507.063 1002.32 505.644V496.656H1004.84V505.308C1004.84 506.82 1005.22 507.987 1005.98 508.808C1006.75 509.611 1007.8 510.012 1009.12 510.012C1010.48 510.012 1011.56 509.592 1012.34 508.752C1013.12 507.912 1013.52 506.689 1013.52 505.084V496.656H1016.06ZM1027.84 496.376C1029.71 496.376 1031.22 496.945 1032.38 498.084C1033.54 499.204 1034.11 500.828 1034.11 502.956V512H1031.59V503.32C1031.59 501.789 1031.21 500.623 1030.45 499.82C1029.68 498.999 1028.64 498.588 1027.31 498.588C1025.97 498.588 1024.89 499.008 1024.09 499.848C1023.31 500.688 1022.91 501.911 1022.91 503.516V512H1020.37V496.656H1022.91V498.84C1023.42 498.056 1024.1 497.449 1024.96 497.02C1025.84 496.591 1026.8 496.376 1027.84 496.376ZM1039.59 494.164C1039.11 494.164 1038.7 493.996 1038.36 493.66C1038.03 493.324 1037.86 492.913 1037.86 492.428C1037.86 491.943 1038.03 491.532 1038.36 491.196C1038.7 490.86 1039.11 490.692 1039.59 490.692C1040.06 490.692 1040.45 490.86 1040.77 491.196C1041.11 491.532 1041.27 491.943 1041.27 492.428C1041.27 492.913 1041.11 493.324 1040.77 493.66C1040.45 493.996 1040.06 494.164 1039.59 494.164ZM1040.83 496.656V512H1038.28V496.656H1040.83ZM1051.41 498.756H1048.19V512H1045.64V498.756H1043.66V496.656H1045.64V495.564C1045.64 493.847 1046.08 492.596 1046.96 491.812C1047.86 491.009 1049.28 490.608 1051.24 490.608V492.736C1050.12 492.736 1049.33 492.96 1048.86 493.408C1048.42 493.837 1048.19 494.556 1048.19 495.564V496.656H1051.41V498.756ZM1055.7 494.164C1055.21 494.164 1054.8 493.996 1054.47 493.66C1054.13 493.324 1053.96 492.913 1053.96 492.428C1053.96 491.943 1054.13 491.532 1054.47 491.196C1054.8 490.86 1055.21 490.692 1055.7 490.692C1056.17 490.692 1056.56 490.86 1056.87 491.196C1057.21 491.532 1057.38 491.943 1057.38 492.428C1057.38 492.913 1057.21 493.324 1056.87 493.66C1056.56 493.996 1056.17 494.164 1055.7 494.164ZM1056.93 496.656V512H1054.38V496.656H1056.93ZM1075.27 503.74C1075.27 504.225 1075.25 504.739 1075.19 505.28H1062.93C1063.02 506.792 1063.53 507.977 1064.47 508.836C1065.42 509.676 1066.57 510.096 1067.91 510.096C1069.01 510.096 1069.93 509.844 1070.65 509.34C1071.4 508.817 1071.92 508.127 1072.22 507.268H1074.97C1074.55 508.743 1073.73 509.947 1072.5 510.88C1071.27 511.795 1069.74 512.252 1067.91 512.252C1066.45 512.252 1065.15 511.925 1063.99 511.272C1062.85 510.619 1061.95 509.695 1061.3 508.5C1060.65 507.287 1060.32 505.887 1060.32 504.3C1060.32 502.713 1060.64 501.323 1061.27 500.128C1061.91 498.933 1062.79 498.019 1063.93 497.384C1065.09 496.731 1066.42 496.404 1067.91 496.404C1069.37 496.404 1070.65 496.721 1071.77 497.356C1072.89 497.991 1073.75 498.868 1074.35 499.988C1074.97 501.089 1075.27 502.34 1075.27 503.74ZM1072.64 503.208C1072.64 502.237 1072.43 501.407 1072 500.716C1071.57 500.007 1070.98 499.475 1070.23 499.12C1069.51 498.747 1068.69 498.56 1067.8 498.56C1066.51 498.56 1065.41 498.971 1064.49 499.792C1063.6 500.613 1063.08 501.752 1062.95 503.208H1072.64ZM1077.68 504.272C1077.68 502.704 1078 501.332 1078.64 500.156C1079.27 498.961 1080.14 498.037 1081.24 497.384C1082.36 496.731 1083.61 496.404 1084.99 496.404C1086.19 496.404 1087.3 496.684 1088.32 497.244C1089.35 497.785 1090.14 498.504 1090.68 499.4V491.28H1093.25V512H1090.68V509.116C1090.17 510.031 1089.43 510.787 1088.44 511.384C1087.45 511.963 1086.29 512.252 1084.96 512.252C1083.6 512.252 1082.36 511.916 1081.24 511.244C1080.14 510.572 1079.27 509.629 1078.64 508.416C1078 507.203 1077.68 505.821 1077.68 504.272ZM1090.68 504.3C1090.68 503.143 1090.44 502.135 1089.98 501.276C1089.51 500.417 1088.88 499.764 1088.07 499.316C1087.29 498.849 1086.42 498.616 1085.47 498.616C1084.52 498.616 1083.65 498.84 1082.86 499.288C1082.08 499.736 1081.46 500.389 1080.99 501.248C1080.52 502.107 1080.29 503.115 1080.29 504.272C1080.29 505.448 1080.52 506.475 1080.99 507.352C1081.46 508.211 1082.08 508.873 1082.86 509.34C1083.65 509.788 1084.52 510.012 1085.47 510.012C1086.42 510.012 1087.29 509.788 1088.07 509.34C1088.88 508.873 1089.51 508.211 1089.98 507.352C1090.44 506.475 1090.68 505.457 1090.68 504.3ZM1107.57 499.484C1108.08 498.607 1108.82 497.879 1109.81 497.3C1110.82 496.703 1111.99 496.404 1113.31 496.404C1114.67 496.404 1115.91 496.731 1117.01 497.384C1118.13 498.037 1119 498.961 1119.64 500.156C1120.27 501.332 1120.59 502.704 1120.59 504.272C1120.59 505.821 1120.27 507.203 1119.64 508.416C1119 509.629 1118.13 510.572 1117.01 511.244C1115.91 511.916 1114.67 512.252 1113.31 512.252C1112 512.252 1110.85 511.963 1109.84 511.384C1108.85 510.787 1108.09 510.049 1107.57 509.172V519.28H1105.02V496.656H1107.57V499.484ZM1117.99 504.272C1117.99 503.115 1117.75 502.107 1117.29 501.248C1116.82 500.389 1116.19 499.736 1115.38 499.288C1114.6 498.84 1113.73 498.616 1112.78 498.616C1111.85 498.616 1110.98 498.849 1110.18 499.316C1109.39 499.764 1108.76 500.427 1108.27 501.304C1107.8 502.163 1107.57 503.161 1107.57 504.3C1107.57 505.457 1107.8 506.475 1108.27 507.352C1108.76 508.211 1109.39 508.873 1110.18 509.34C1110.98 509.788 1111.85 510.012 1112.78 510.012C1113.73 510.012 1114.6 509.788 1115.38 509.34C1116.19 508.873 1116.82 508.211 1117.29 507.352C1117.75 506.475 1117.99 505.448 1117.99 504.272ZM1126.49 491.28V512H1123.95V491.28H1126.49ZM1129.88 504.272C1129.88 502.704 1130.2 501.332 1130.84 500.156C1131.47 498.961 1132.34 498.037 1133.44 497.384C1134.56 496.731 1135.8 496.404 1137.16 496.404C1138.51 496.404 1139.67 496.693 1140.66 497.272C1141.65 497.851 1142.39 498.579 1142.88 499.456V496.656H1145.45V512H1142.88V509.144C1142.37 510.04 1141.62 510.787 1140.61 511.384C1139.62 511.963 1138.46 512.252 1137.14 512.252C1135.77 512.252 1134.54 511.916 1133.44 511.244C1132.34 510.572 1131.47 509.629 1130.84 508.416C1130.2 507.203 1129.88 505.821 1129.88 504.272ZM1142.88 504.3C1142.88 503.143 1142.64 502.135 1142.18 501.276C1141.71 500.417 1141.07 499.764 1140.27 499.316C1139.49 498.849 1138.62 498.616 1137.67 498.616C1136.72 498.616 1135.85 498.84 1135.06 499.288C1134.28 499.736 1133.65 500.389 1133.19 501.248C1132.72 502.107 1132.49 503.115 1132.49 504.272C1132.49 505.448 1132.72 506.475 1133.19 507.352C1133.65 508.211 1134.28 508.873 1135.06 509.34C1135.85 509.788 1136.72 510.012 1137.67 510.012C1138.62 510.012 1139.49 509.788 1140.27 509.34C1141.07 508.873 1141.71 508.211 1142.18 507.352C1142.64 506.475 1142.88 505.457 1142.88 504.3ZM1152.87 498.756V507.8C1152.87 508.547 1153.02 509.079 1153.34 509.396C1153.66 509.695 1154.21 509.844 1154.99 509.844H1156.87V512H1154.57C1153.15 512 1152.09 511.673 1151.38 511.02C1150.67 510.367 1150.32 509.293 1150.32 507.8V498.756H1148.33V496.656H1150.32V492.792H1152.87V496.656H1156.87V498.756H1152.87ZM1166.2 498.756H1162.98V512H1160.43V498.756H1158.44V496.656H1160.43V495.564C1160.43 493.847 1160.87 492.596 1161.75 491.812C1162.64 491.009 1164.07 490.608 1166.03 490.608V492.736C1164.91 492.736 1164.12 492.96 1163.65 493.408C1163.2 493.837 1162.98 494.556 1162.98 495.564V496.656H1166.2V498.756ZM1175.86 512.252C1174.43 512.252 1173.12 511.925 1171.94 511.272C1170.79 510.619 1169.87 509.695 1169.2 508.5C1168.55 507.287 1168.22 505.887 1168.22 504.3C1168.22 502.732 1168.56 501.351 1169.23 500.156C1169.92 498.943 1170.85 498.019 1172.03 497.384C1173.2 496.731 1174.52 496.404 1175.98 496.404C1177.43 496.404 1178.75 496.731 1179.92 497.384C1181.1 498.019 1182.02 498.933 1182.7 500.128C1183.39 501.323 1183.73 502.713 1183.73 504.3C1183.73 505.887 1183.38 507.287 1182.67 508.5C1181.98 509.695 1181.03 510.619 1179.84 511.272C1178.64 511.925 1177.32 512.252 1175.86 512.252ZM1175.86 510.012C1176.78 510.012 1177.64 509.797 1178.44 509.368C1179.24 508.939 1179.89 508.295 1180.37 507.436C1180.88 506.577 1181.13 505.532 1181.13 504.3C1181.13 503.068 1180.88 502.023 1180.4 501.164C1179.91 500.305 1179.28 499.671 1178.5 499.26C1177.71 498.831 1176.86 498.616 1175.95 498.616C1175.01 498.616 1174.16 498.831 1173.37 499.26C1172.61 499.671 1171.99 500.305 1171.52 501.164C1171.06 502.023 1170.82 503.068 1170.82 504.3C1170.82 505.551 1171.05 506.605 1171.5 507.464C1171.96 508.323 1172.58 508.967 1173.34 509.396C1174.11 509.807 1174.95 510.012 1175.86 510.012ZM1189.63 499.148C1190.08 498.271 1190.71 497.589 1191.53 497.104C1192.37 496.619 1193.39 496.376 1194.59 496.376V499.008H1193.91C1191.06 499.008 1189.63 500.557 1189.63 503.656V512H1187.08V496.656H1189.63V499.148ZM1215.98 496.376C1217.17 496.376 1218.24 496.628 1219.17 497.132C1220.1 497.617 1220.84 498.355 1221.38 499.344C1221.92 500.333 1222.2 501.537 1222.2 502.956V512H1219.68V503.32C1219.68 501.789 1219.29 500.623 1218.53 499.82C1217.78 498.999 1216.76 498.588 1215.48 498.588C1214.15 498.588 1213.1 499.017 1212.31 499.876C1211.53 500.716 1211.14 501.939 1211.14 503.544V512H1208.62V503.32C1208.62 501.789 1208.23 500.623 1207.47 499.82C1206.72 498.999 1205.7 498.588 1204.42 498.588C1203.09 498.588 1202.04 499.017 1201.25 499.876C1200.47 500.716 1200.08 501.939 1200.08 503.544V512H1197.53V496.656H1200.08V498.868C1200.58 498.065 1201.25 497.449 1202.09 497.02C1202.95 496.591 1203.89 496.376 1204.92 496.376C1206.21 496.376 1207.35 496.665 1208.34 497.244C1209.32 497.823 1210.06 498.672 1210.55 499.792C1210.98 498.709 1211.69 497.869 1212.68 497.272C1213.66 496.675 1214.77 496.376 1215.98 496.376ZM1227.19 512.168C1226.7 512.168 1226.29 512 1225.95 511.664C1225.62 511.328 1225.45 510.917 1225.45 510.432C1225.45 509.947 1225.62 509.536 1225.95 509.2C1226.29 508.864 1226.7 508.696 1227.19 508.696C1227.65 508.696 1228.05 508.864 1228.36 509.2C1228.7 509.536 1228.87 509.947 1228.87 510.432C1228.87 510.917 1228.7 511.328 1228.36 511.664C1228.05 512 1227.65 512.168 1227.19 512.168Z" fill="#65789B"/>
<rect x="1057.47" y="558.003" width="187.529" height="57.947" rx="7.0235" fill="#2962FF"/>
<rect x="1057.47" y="558.003" width="187.529" height="57.947" rx="7.0235" stroke="#2962FF" stroke-width="2.00671"/>
<path d="M1117.67 585.763V592.169C1117.46 592.49 1117.11 592.85 1116.64 593.251C1116.17 593.643 1115.51 593.988 1114.68 594.284C1113.86 594.573 1112.79 594.717 1111.48 594.717C1110.42 594.717 1109.44 594.533 1108.54 594.164C1107.65 593.788 1106.88 593.243 1106.22 592.53C1105.57 591.809 1105.07 590.935 1104.7 589.909C1104.35 588.876 1104.18 587.706 1104.18 586.4V585.042C1104.18 583.735 1104.33 582.57 1104.63 581.544C1104.95 580.518 1105.4 579.649 1106 578.936C1106.6 578.215 1107.34 577.67 1108.21 577.301C1109.09 576.924 1110.09 576.736 1111.22 576.736C1112.56 576.736 1113.68 576.969 1114.57 577.433C1115.48 577.89 1116.18 578.523 1116.69 579.332C1117.2 580.142 1117.53 581.063 1117.67 582.097H1115.35C1115.25 581.464 1115.04 580.887 1114.73 580.366C1114.42 579.845 1113.99 579.429 1113.42 579.116C1112.85 578.796 1112.12 578.635 1111.22 578.635C1110.41 578.635 1109.71 578.783 1109.12 579.08C1108.52 579.376 1108.03 579.801 1107.65 580.354C1107.27 580.907 1106.98 581.576 1106.78 582.361C1106.6 583.147 1106.51 584.032 1106.51 585.018V586.4C1106.51 587.409 1106.62 588.311 1106.86 589.104C1107.1 589.897 1107.44 590.575 1107.88 591.135C1108.32 591.688 1108.84 592.109 1109.45 592.397C1110.07 592.686 1110.75 592.83 1111.5 592.83C1112.32 592.83 1112.99 592.762 1113.5 592.626C1114.02 592.482 1114.42 592.313 1114.71 592.121C1114.99 591.921 1115.21 591.732 1115.37 591.556V587.638H1111.32V585.763H1117.67ZM1126.58 594.717C1125.67 594.717 1124.85 594.565 1124.12 594.26C1123.39 593.948 1122.76 593.511 1122.23 592.95C1121.71 592.389 1121.31 591.724 1121.03 590.955C1120.75 590.186 1120.61 589.345 1120.61 588.431V587.926C1120.61 586.869 1120.76 585.927 1121.08 585.102C1121.39 584.268 1121.81 583.563 1122.35 582.986C1122.89 582.409 1123.5 581.973 1124.18 581.676C1124.86 581.38 1125.56 581.231 1126.29 581.231C1127.22 581.231 1128.02 581.392 1128.7 581.712C1129.38 582.033 1129.93 582.481 1130.37 583.058C1130.8 583.627 1131.12 584.3 1131.33 585.078C1131.54 585.847 1131.64 586.688 1131.64 587.602V588.599H1121.93V586.784H1129.42V586.616C1129.38 586.039 1129.26 585.478 1129.06 584.933C1128.86 584.389 1128.54 583.94 1128.09 583.587C1127.65 583.235 1127.05 583.058 1126.29 583.058C1125.79 583.058 1125.32 583.167 1124.9 583.383C1124.47 583.591 1124.11 583.904 1123.8 584.32C1123.5 584.737 1123.26 585.246 1123.09 585.847C1122.93 586.448 1122.84 587.141 1122.84 587.926V588.431C1122.84 589.048 1122.93 589.629 1123.09 590.174C1123.27 590.711 1123.52 591.183 1123.85 591.592C1124.19 592.001 1124.59 592.321 1125.07 592.554C1125.55 592.786 1126.09 592.902 1126.7 592.902C1127.49 592.902 1128.15 592.742 1128.7 592.421C1129.24 592.101 1129.72 591.672 1130.13 591.135L1131.47 592.205C1131.19 592.63 1130.84 593.034 1130.4 593.419C1129.97 593.804 1129.44 594.116 1128.8 594.357C1128.18 594.597 1127.44 594.717 1126.58 594.717ZM1139.68 581.472V583.179H1132.65V581.472H1139.68ZM1135.03 578.311H1137.25V591.256C1137.25 591.696 1137.32 592.029 1137.46 592.253C1137.59 592.478 1137.77 592.626 1137.99 592.698C1138.2 592.77 1138.44 592.806 1138.68 592.806C1138.87 592.806 1139.06 592.79 1139.26 592.758C1139.47 592.718 1139.63 592.686 1139.73 592.662L1139.74 594.477C1139.57 594.533 1139.33 594.585 1139.04 594.633C1138.76 594.689 1138.42 594.717 1138.02 594.717C1137.48 594.717 1136.98 594.609 1136.52 594.393C1136.06 594.176 1135.7 593.816 1135.43 593.311C1135.16 592.798 1135.03 592.109 1135.03 591.244V578.311ZM1158.06 590.054C1158.06 589.645 1157.99 589.284 1157.87 588.972C1157.75 588.651 1157.53 588.363 1157.22 588.107C1156.91 587.85 1156.49 587.606 1155.94 587.373C1155.41 587.141 1154.73 586.905 1153.9 586.664C1153.03 586.408 1152.25 586.123 1151.56 585.811C1150.86 585.49 1150.26 585.126 1149.77 584.717C1149.27 584.308 1148.89 583.84 1148.62 583.311C1148.36 582.782 1148.23 582.177 1148.23 581.496C1148.23 580.815 1148.37 580.186 1148.65 579.609C1148.93 579.032 1149.33 578.531 1149.85 578.106C1150.38 577.674 1151.01 577.337 1151.74 577.097C1152.47 576.856 1153.28 576.736 1154.18 576.736C1155.49 576.736 1156.6 576.989 1157.52 577.493C1158.44 577.99 1159.14 578.643 1159.62 579.453C1160.1 580.254 1160.34 581.111 1160.34 582.025H1158.03C1158.03 581.368 1157.89 580.787 1157.61 580.282C1157.33 579.769 1156.91 579.368 1156.34 579.08C1155.77 578.783 1155.05 578.635 1154.18 578.635C1153.35 578.635 1152.67 578.759 1152.13 579.008C1151.6 579.256 1151.2 579.593 1150.93 580.017C1150.68 580.442 1150.55 580.927 1150.55 581.472C1150.55 581.84 1150.62 582.177 1150.78 582.481C1150.94 582.778 1151.18 583.054 1151.51 583.311C1151.84 583.567 1152.27 583.804 1152.78 584.02C1153.3 584.236 1153.92 584.445 1154.65 584.645C1155.64 584.925 1156.5 585.238 1157.22 585.582C1157.94 585.927 1158.53 586.316 1159 586.748C1159.47 587.173 1159.82 587.658 1160.04 588.203C1160.27 588.74 1160.39 589.349 1160.39 590.03C1160.39 590.743 1160.25 591.388 1159.96 591.965C1159.67 592.542 1159.26 593.034 1158.72 593.443C1158.18 593.852 1157.54 594.168 1156.78 594.393C1156.04 594.609 1155.21 594.717 1154.28 594.717C1153.48 594.717 1152.68 594.605 1151.89 594.381C1151.12 594.156 1150.41 593.82 1149.77 593.371C1149.13 592.922 1148.62 592.369 1148.24 591.712C1147.86 591.047 1147.67 590.278 1147.67 589.405H1149.98C1149.98 590.006 1150.1 590.522 1150.33 590.955C1150.56 591.38 1150.88 591.732 1151.28 592.013C1151.69 592.293 1152.15 592.502 1152.66 592.638C1153.18 592.766 1153.72 592.83 1154.28 592.83C1155.09 592.83 1155.78 592.718 1156.34 592.494C1156.9 592.269 1157.33 591.949 1157.61 591.532C1157.91 591.115 1158.06 590.623 1158.06 590.054ZM1168.46 581.472V583.179H1161.42V581.472H1168.46ZM1163.8 578.311H1166.03V591.256C1166.03 591.696 1166.1 592.029 1166.23 592.253C1166.37 592.478 1166.54 592.626 1166.76 592.698C1166.98 592.77 1167.21 592.806 1167.46 592.806C1167.64 592.806 1167.83 592.79 1168.04 592.758C1168.24 592.718 1168.4 592.686 1168.5 592.662L1168.52 594.477C1168.34 594.533 1168.11 594.585 1167.82 594.633C1167.54 594.689 1167.2 594.717 1166.8 594.717C1166.25 594.717 1165.75 594.609 1165.29 594.393C1164.84 594.176 1164.47 593.816 1164.2 593.311C1163.94 592.798 1163.8 592.109 1163.8 591.244V578.311ZM1178.73 592.253V585.558C1178.73 585.046 1178.63 584.601 1178.42 584.224C1178.22 583.84 1177.92 583.543 1177.51 583.335C1177.1 583.126 1176.59 583.022 1175.99 583.022C1175.43 583.022 1174.94 583.118 1174.51 583.311C1174.1 583.503 1173.77 583.756 1173.53 584.068C1173.3 584.381 1173.18 584.717 1173.18 585.078H1170.96C1170.96 584.613 1171.08 584.152 1171.32 583.695C1171.56 583.239 1171.9 582.826 1172.35 582.457C1172.81 582.081 1173.35 581.784 1173.98 581.568C1174.63 581.344 1175.34 581.231 1176.12 581.231C1177.07 581.231 1177.9 581.392 1178.62 581.712C1179.35 582.033 1179.92 582.518 1180.33 583.167C1180.75 583.808 1180.96 584.613 1180.96 585.582V591.64C1180.96 592.073 1180.99 592.534 1181.06 593.022C1181.14 593.511 1181.26 593.932 1181.41 594.284V594.477H1179.09C1178.98 594.22 1178.89 593.88 1178.83 593.455C1178.76 593.022 1178.73 592.622 1178.73 592.253ZM1179.12 586.592L1179.14 588.155H1176.89C1176.26 588.155 1175.7 588.207 1175.2 588.311C1174.7 588.407 1174.29 588.555 1173.95 588.756C1173.61 588.956 1173.36 589.208 1173.18 589.513C1173 589.809 1172.91 590.158 1172.91 590.558C1172.91 590.967 1173.01 591.34 1173.19 591.676C1173.38 592.013 1173.65 592.281 1174.02 592.482C1174.4 592.674 1174.86 592.77 1175.4 592.77C1176.08 592.77 1176.69 592.626 1177.21 592.337C1177.73 592.049 1178.14 591.696 1178.44 591.28C1178.76 590.863 1178.92 590.458 1178.95 590.066L1179.9 591.135C1179.84 591.472 1179.69 591.845 1179.44 592.253C1179.19 592.662 1178.86 593.055 1178.44 593.431C1178.04 593.8 1177.55 594.108 1176.98 594.357C1176.42 594.597 1175.78 594.717 1175.08 594.717C1174.2 594.717 1173.42 594.545 1172.76 594.2C1172.1 593.856 1171.59 593.395 1171.22 592.818C1170.86 592.233 1170.68 591.58 1170.68 590.859C1170.68 590.162 1170.82 589.549 1171.09 589.02C1171.36 588.483 1171.75 588.038 1172.27 587.686C1172.78 587.325 1173.4 587.053 1174.12 586.869C1174.84 586.684 1175.64 586.592 1176.53 586.592H1179.12ZM1186.68 583.515V594.477H1184.45V581.472H1186.62L1186.68 583.515ZM1190.74 581.4L1190.73 583.467C1190.54 583.427 1190.37 583.403 1190.2 583.395C1190.04 583.379 1189.85 583.371 1189.65 583.371C1189.13 583.371 1188.68 583.451 1188.29 583.611C1187.9 583.772 1187.56 583.996 1187.29 584.284C1187.02 584.573 1186.8 584.917 1186.64 585.318C1186.49 585.711 1186.39 586.143 1186.34 586.616L1185.72 586.977C1185.72 586.191 1185.79 585.454 1185.94 584.765C1186.1 584.076 1186.35 583.467 1186.68 582.938C1187.01 582.401 1187.42 581.985 1187.93 581.688C1188.44 581.384 1189.05 581.231 1189.75 581.231C1189.91 581.231 1190.1 581.251 1190.31 581.292C1190.52 581.324 1190.66 581.36 1190.74 581.4ZM1198.84 581.472V583.179H1191.81V581.472H1198.84ZM1194.19 578.311H1196.41V591.256C1196.41 591.696 1196.48 592.029 1196.62 592.253C1196.75 592.478 1196.93 592.626 1197.15 592.698C1197.36 592.77 1197.59 592.806 1197.84 592.806C1198.03 592.806 1198.22 592.79 1198.42 592.758C1198.63 592.718 1198.78 592.686 1198.89 592.662L1198.9 594.477C1198.72 594.533 1198.49 594.585 1198.2 594.633C1197.92 594.689 1197.58 594.717 1197.18 594.717C1196.64 594.717 1196.14 594.609 1195.68 594.393C1195.22 594.176 1194.86 593.816 1194.59 593.311C1194.32 592.798 1194.19 592.109 1194.19 591.244V578.311Z" fill="white"/>
</g>
<defs>
<filter id="filter0_f_83_366" x="0" y="877" width="1488" height="26" filterUnits="userSpaceOnUse" color-interpolation-filters="sRGB">
<feFlood flood-opacity="0" result="BackgroundImageFix"/>
<feBlend mode="normal" in="SourceGraphic" in2="BackgroundImageFix" result="shape"/>
<feGaussianBlur stdDeviation="6" result="effect1_foregroundBlur_83_366"/>
</filter>
<filter id="filter1_f_83_366" x="10" y="887" width="1468" height="7" filterUnits="userSpaceOnUse" color-interpolation-filters="sRGB">
<feFlood flood-opacity="0" result="BackgroundImageFix"/>
<feBlend mode="normal" in="SourceGraphic" in2="BackgroundImageFix" result="shape"/>
<feGaussianBlur stdDeviation="1.5" result="effect1_foregroundBlur_83_366"/>
</filter>
<filter id="filter2_ii_83_366" x="12" y="862" width="1464" height="27" filterUnits="userSpaceOnUse" color-interpolation-filters="sRGB">
<feFlood flood-opacity="0" result="BackgroundImageFix"/>
<feBlend mode="normal" in="SourceGraphic" in2="BackgroundImageFix" result="shape"/>
<feColorMatrix in="SourceAlpha" type="matrix" values="0 0 0 0 0 0 0 0 0 0 0 0 0 0 0 0 0 0 127 0" result="hardAlpha"/>
<feOffset dy="-2"/>
<feGaussianBlur stdDeviation="0.5"/>
<feComposite in2="hardAlpha" operator="arithmetic" k2="-1" k3="1"/>
<feColorMatrix type="matrix" values="0 0 0 0 1 0 0 0 0 1 0 0 0 0 1 0 0 0 0.7 0"/>
<feBlend mode="normal" in2="shape" result="effect1_innerShadow_83_366"/>
<feColorMatrix in="SourceAlpha" type="matrix" values="0 0 0 0 0 0 0 0 0 0 0 0 0 0 0 0 0 0 127 0" result="hardAlpha"/>
<feOffset dy="-1"/>
<feGaussianBlur stdDeviation="0.5"/>
<feComposite in2="hardAlpha" operator="arithmetic" k2="-1" k3="1"/>
<feColorMatrix type="matrix" values="0 0 0 0 0 0 0 0 0 0 0 0 0 0 0 0 0 0 0.3 0"/>
<feBlend mode="normal" in2="effect1_innerShadow_83_366" result="effect2_innerShadow_83_366"/>
</filter>
<filter id="filter3_d_83_366" x="83" y="0" width="1322" height="946" filterUnits="userSpaceOnUse" color-interpolation-filters="sRGB">
<feFlood flood-opacity="0" result="BackgroundImageFix"/>
<feColorMatrix in="SourceAlpha" type="matrix" values="0 0 0 0 0 0 0 0 0 0 0 0 0 0 0 0 0 0 127 0" result="hardAlpha"/>
<feOffset dy="4"/>
<feGaussianBlur stdDeviation="39.5"/>
<feComposite in2="hardAlpha" operator="out"/>
<feColorMatrix type="matrix" values="0 0 0 0 0.620394 0 0 0 0 0.658123 0 0 0 0 0.676983 0 0 0 0.33 0"/>
<feBlend mode="normal" in2="BackgroundImageFix" result="effect1_dropShadow_83_366"/>
<feBlend mode="normal" in="SourceGraphic" in2="effect1_dropShadow_83_366" result="shape"/>
</filter>
<filter id="filter4_di_83_366" x="161" y="74" width="1166" height="790" filterUnits="userSpaceOnUse" color-interpolation-filters="sRGB">
<feFlood flood-opacity="0" result="BackgroundImageFix"/>
<feColorMatrix in="SourceAlpha" type="matrix" values="0 0 0 0 0 0 0 0 0 0 0 0 0 0 0 0 0 0 127 0" result="hardAlpha"/>
<feMorphology radius="0.5" operator="dilate" in="SourceAlpha" result="effect1_dropShadow_83_366"/>
<feOffset/>
<feGaussianBlur stdDeviation="0.25"/>
<feComposite in2="hardAlpha" operator="out"/>
<feColorMatrix type="matrix" values="0 0 0 0 1 0 0 0 0 1 0 0 0 0 1 0 0 0 0.6 0"/>
<feBlend mode="normal" in2="BackgroundImageFix" result="effect1_dropShadow_83_366"/>
<feBlend mode="normal" in="SourceGraphic" in2="effect1_dropShadow_83_366" result="shape"/>
<feColorMatrix in="SourceAlpha" type="matrix" values="0 0 0 0 0 0 0 0 0 0 0 0 0 0 0 0 0 0 127 0" result="hardAlpha"/>
<feMorphology radius="2" operator="erode" in="SourceAlpha" result="effect2_innerShadow_83_366"/>
<feOffset/>
<feGaussianBlur stdDeviation="2"/>
<feComposite in2="hardAlpha" operator="arithmetic" k2="-1" k3="1"/>
<feColorMatrix type="matrix" values="0 0 0 0 0 0 0 0 0 0 0 0 0 0 0 0 0 0 0.1 0"/>
<feBlend mode="normal" in2="shape" result="effect2_innerShadow_83_366"/>
</filter>
<linearGradient id="paint0_linear_83_366" x1="12" y1="876" x2="1476" y2="876" gradientUnits="userSpaceOnUse">
<stop stop-color="#C6C5C5"/>
<stop offset="0.00868664" stop-color="#FEFEFE"/>
<stop offset="0.0311419" stop-color="#E3E3E3"/>
<stop offset="0.962505" stop-color="#E7E6E6"/>
<stop offset="0.992057" stop-color="white"/>
<stop offset="1" stop-color="#C6C5C5"/>
</linearGradient>
<linearGradient id="paint1_linear_83_366" x1="744" y1="863" x2="744" y2="889" gradientUnits="userSpaceOnUse">
<stop stop-color="#EFEFEF"/>
<stop offset="1" stop-color="#DBDBDB"/>
</linearGradient>
<linearGradient id="paint2_linear_83_366" x1="744" y1="-713" x2="744" y2="863" gradientUnits="userSpaceOnUse">
<stop offset="0.355769" stop-color="#F0F2F5" stop-opacity="0.82"/>
<stop offset="1" stop-color="white" stop-opacity="0"/>
</linearGradient>
<linearGradient id="paint3_linear_83_366" x1="727" y1="416" x2="1246" y2="416" gradientUnits="userSpaceOnUse">
<stop stop-color="#65789B"/>
<stop offset="0.5" stop-color="#65789B" stop-opacity="0.7"/>
<stop offset="1" stop-color="#65789B" stop-opacity="0.5"/>
</linearGradient>
</defs>
</svg>
