<svg width="1600" height="125" viewBox="0 0 1600 125" fill="none" xmlns="http://www.w3.org/2000/svg">
<rect x="1202" y="2" width="396" height="121" rx="60.5" fill="url(#paint0_linear_95_377)" stroke="url(#paint1_linear_95_377)" stroke-width="4"/>
<rect x="902" y="2" width="396" height="121" rx="60.5" fill="url(#paint2_linear_95_377)" stroke="url(#paint3_linear_95_377)" stroke-width="4"/>
<rect x="602" y="2" width="396" height="121" rx="60.5" fill="url(#paint4_linear_95_377)" stroke="url(#paint5_linear_95_377)" stroke-width="4"/>
<rect x="302" y="2" width="396" height="121" rx="60.5" fill="url(#paint6_linear_95_377)" stroke="url(#paint7_linear_95_377)" stroke-width="4"/>
<rect x="2" y="2" width="396" height="121" rx="60.5" fill="url(#paint8_linear_95_377)" stroke="url(#paint9_linear_95_377)" stroke-width="4"/>
<path d="M116.917 77V74.454C115.752 75.4673 114.663 76.2147 113.649 76.696C112.636 77.152 111.61 77.38 110.571 77.38C108.849 77.38 107.519 76.7973 106.581 75.632C105.644 74.4413 105.175 72.782 105.175 70.654V57.734H109.545V70.122C109.545 72.25 110.331 73.314 111.901 73.314C112.535 73.314 113.219 73.162 113.953 72.858C114.713 72.554 115.625 71.9713 116.689 71.11V57.734H121.059V77H116.917ZM136.5 61.42C135.867 61.42 135.145 61.572 134.334 61.876C133.524 62.18 132.561 62.7753 131.446 63.662V77H127.076V57.734H131.218V60.318C132.409 59.2793 133.536 58.532 134.6 58.076C135.664 57.5947 136.741 57.354 137.83 57.354C139.68 57.354 141.086 57.9493 142.048 59.14C143.011 60.3053 143.492 61.952 143.492 64.08V77H139.122V64.612C139.122 62.484 138.248 61.42 136.5 61.42ZM160.554 77V74.378C159.388 75.5433 158.375 76.3413 157.514 76.772C156.678 77.1773 155.804 77.38 154.892 77.38C152.814 77.38 151.193 76.5947 150.028 75.024C148.888 73.4533 148.318 71.2493 148.318 68.412V66.36C148.318 63.5987 149.014 61.4073 150.408 59.786C151.801 58.1647 153.815 57.354 156.45 57.354C157.108 57.354 157.754 57.4173 158.388 57.544C159.046 57.6707 159.692 57.848 160.326 58.076V48.88H164.696V77H160.554ZM152.802 68.412C152.802 70.1093 153.08 71.3507 153.638 72.136C154.22 72.9213 155.031 73.314 156.07 73.314C156.652 73.314 157.273 73.1493 157.932 72.82C158.59 72.4653 159.388 71.8067 160.326 70.844V62.028C159.084 61.5213 157.944 61.268 156.906 61.268C155.436 61.268 154.385 61.724 153.752 62.636C153.118 63.548 152.802 64.7893 152.802 66.36V68.412ZM185.347 75.898C184.03 76.43 182.788 76.81 181.623 77.038C180.458 77.266 179.356 77.38 178.317 77.38C175.454 77.38 173.288 76.5693 171.819 74.948C170.35 73.3267 169.615 71.1733 169.615 68.488V66.208C169.615 64.4093 169.944 62.8513 170.603 61.534C171.262 60.2167 172.199 59.1907 173.415 58.456C174.631 57.7213 176.062 57.354 177.709 57.354C179.052 57.354 180.306 57.6327 181.471 58.19C182.662 58.722 183.624 59.5707 184.359 60.736C185.119 61.876 185.499 63.3453 185.499 65.144C185.499 65.676 185.461 66.246 185.385 66.854C185.309 67.4367 185.182 68.0573 185.005 68.716H173.833C173.884 70.2867 174.276 71.4647 175.011 72.25C175.746 73.0353 176.924 73.428 178.545 73.428C179.406 73.428 180.293 73.3267 181.205 73.124C182.142 72.9213 183.105 72.6173 184.093 72.212L185.347 75.898ZM177.709 61.04C176.544 61.04 175.632 61.42 174.973 62.18C174.34 62.9147 173.972 63.9787 173.871 65.372H181.167C181.192 65.2453 181.205 65.1313 181.205 65.03C181.205 64.9033 181.205 64.7893 181.205 64.688C181.205 63.472 180.863 62.56 180.179 61.952C179.495 61.344 178.672 61.04 177.709 61.04ZM201.401 61.724C200.211 61.724 199.071 61.914 197.981 62.294C196.917 62.6487 195.891 63.2313 194.903 64.042V77H190.533V57.734H194.675V60.698C195.967 59.482 197.12 58.6207 198.133 58.114C199.147 57.6073 200.236 57.354 201.401 57.354V61.724ZM210.625 73.58C211.562 73.58 212.335 73.428 212.943 73.124C213.551 72.7947 213.855 72.3133 213.855 71.68C213.855 71.1227 213.652 70.692 213.247 70.388C212.867 70.0587 212.17 69.7673 211.157 69.514L208.991 68.944C207.319 68.5133 206.077 67.7913 205.267 66.778C204.481 65.7647 204.089 64.5613 204.089 63.168C204.089 61.5213 204.659 60.1407 205.799 59.026C206.939 57.9113 208.699 57.354 211.081 57.354C212.043 57.354 213.057 57.468 214.121 57.696C215.185 57.924 216.299 58.2913 217.465 58.798L216.211 62.522C215.147 62.0153 214.184 61.6607 213.323 61.458C212.461 61.2553 211.701 61.154 211.043 61.154C209.244 61.154 208.345 61.762 208.345 62.978C208.345 63.4593 208.497 63.8393 208.801 64.118C209.13 64.3967 209.725 64.65 210.587 64.878L212.753 65.448C214.602 65.9293 215.945 66.664 216.781 67.652C217.642 68.64 218.073 69.8813 218.073 71.376C218.073 73.1493 217.465 74.5933 216.249 75.708C215.058 76.8227 213.171 77.38 210.587 77.38C208.383 77.38 206.065 76.8733 203.633 75.86L204.811 72.25C206.001 72.7313 207.078 73.0733 208.041 73.276C209.003 73.4787 209.865 73.58 210.625 73.58ZM234.149 76.354C233.49 76.658 232.73 76.8987 231.869 77.076C231.007 77.2787 230.133 77.38 229.247 77.38C227.777 77.38 226.599 77.076 225.713 76.468C224.826 75.86 224.18 75.0113 223.775 73.922C223.395 72.8327 223.205 71.5913 223.205 70.198V61.534H220.089V57.734H223.205V52.718H227.575V57.734H233.579V61.534H227.575V70.198C227.575 71.3633 227.79 72.174 228.221 72.63C228.677 73.0607 229.323 73.276 230.159 73.276C230.564 73.276 230.995 73.238 231.451 73.162C231.932 73.0607 232.464 72.896 233.047 72.668L234.149 76.354ZM252.254 77.19C250.962 77.19 249.923 76.924 249.138 76.392C248.378 75.86 247.821 75.2013 247.466 74.416C246.377 75.4293 245.325 76.1767 244.312 76.658C243.299 77.1393 242.209 77.38 241.044 77.38C239.347 77.38 238.093 76.8353 237.282 75.746C236.497 74.6567 236.104 73.276 236.104 71.604C236.104 70.4893 236.307 69.514 236.712 68.678C237.143 67.8167 237.839 67.1453 238.802 66.664C239.765 66.1827 241.082 65.942 242.754 65.942C243.413 65.942 244.097 65.9927 244.806 66.094C245.515 66.17 246.225 66.2713 246.934 66.398V64.156C246.934 63.092 246.643 62.37 246.06 61.99C245.477 61.5847 244.692 61.382 243.704 61.382C242.944 61.382 242.108 61.4833 241.196 61.686C240.309 61.8887 239.347 62.2053 238.308 62.636L237.054 58.912C239.613 57.8733 241.931 57.354 244.008 57.354C245.883 57.354 247.327 57.6707 248.34 58.304C249.379 58.9373 250.101 59.7733 250.506 60.812C250.911 61.8507 251.114 62.9653 251.114 64.156V71.566C251.114 71.946 251.215 72.3133 251.418 72.668C251.646 72.9973 252.077 73.162 252.71 73.162H253.128V77.19H252.254ZM240.322 71.528C240.322 72.212 240.474 72.7567 240.778 73.162C241.082 73.542 241.525 73.732 242.108 73.732C242.691 73.732 243.349 73.58 244.084 73.276C244.819 72.972 245.769 72.2627 246.934 71.148V69.514C245.617 69.286 244.325 69.172 243.058 69.172C242.07 69.172 241.361 69.3747 240.93 69.78C240.525 70.1853 240.322 70.768 240.322 71.528ZM266.346 61.42C265.713 61.42 264.991 61.572 264.18 61.876C263.369 62.18 262.407 62.7753 261.292 63.662V77H256.922V57.734H261.064V60.318C262.255 59.2793 263.382 58.532 264.446 58.076C265.51 57.5947 266.587 57.354 267.676 57.354C269.525 57.354 270.931 57.9493 271.894 59.14C272.857 60.3053 273.338 61.952 273.338 64.08V77H268.968V64.612C268.968 62.484 268.094 61.42 266.346 61.42ZM290.399 77V74.378C289.234 75.5433 288.221 76.3413 287.359 76.772C286.523 77.1773 285.649 77.38 284.737 77.38C282.66 77.38 281.039 76.5947 279.873 75.024C278.733 73.4533 278.163 71.2493 278.163 68.412V66.36C278.163 63.5987 278.86 61.4073 280.253 59.786C281.647 58.1647 283.661 57.354 286.295 57.354C286.954 57.354 287.6 57.4173 288.233 57.544C288.892 57.6707 289.538 57.848 290.171 58.076V48.88H294.541V77H290.399ZM282.647 68.412C282.647 70.1093 282.926 71.3507 283.483 72.136C284.066 72.9213 284.877 73.314 285.915 73.314C286.498 73.314 287.119 73.1493 287.777 72.82C288.436 72.4653 289.234 71.8067 290.171 70.844V62.028C288.93 61.5213 287.79 61.268 286.751 61.268C285.282 61.268 284.231 61.724 283.597 62.636C282.964 63.548 282.647 64.7893 282.647 66.36V68.412Z" fill="#4B4D58"/>
<path d="M478.951 61.724C477.76 61.724 476.62 61.914 475.531 62.294C474.467 62.6487 473.441 63.2313 472.453 64.042V77H468.083V57.734H472.225V60.698C473.517 59.482 474.67 58.6207 475.683 58.114C476.696 57.6073 477.786 57.354 478.951 57.354V61.724ZM497.408 75.898C496.091 76.43 494.85 76.81 493.684 77.038C492.519 77.266 491.417 77.38 490.378 77.38C487.516 77.38 485.35 76.5693 483.88 74.948C482.411 73.3267 481.676 71.1733 481.676 68.488V66.208C481.676 64.4093 482.006 62.8513 482.664 61.534C483.323 60.2167 484.26 59.1907 485.476 58.456C486.692 57.7213 488.124 57.354 489.77 57.354C491.113 57.354 492.367 57.6327 493.532 58.19C494.723 58.722 495.686 59.5707 496.42 60.736C497.18 61.876 497.56 63.3453 497.56 65.144C497.56 65.676 497.522 66.246 497.446 66.854C497.37 67.4367 497.244 68.0573 497.066 68.716H485.894C485.945 70.2867 486.338 71.4647 487.072 72.25C487.807 73.0353 488.985 73.428 490.606 73.428C491.468 73.428 492.354 73.3267 493.266 73.124C494.204 72.9213 495.166 72.6173 496.154 72.212L497.408 75.898ZM489.77 61.04C488.605 61.04 487.693 61.42 487.034 62.18C486.401 62.9147 486.034 63.9787 485.932 65.372H493.228C493.254 65.2453 493.266 65.1313 493.266 65.03C493.266 64.9033 493.266 64.7893 493.266 64.688C493.266 63.472 492.924 62.56 492.24 61.952C491.556 61.344 490.733 61.04 489.77 61.04ZM507.991 73.58C508.928 73.58 509.701 73.428 510.309 73.124C510.917 72.7947 511.221 72.3133 511.221 71.68C511.221 71.1227 511.018 70.692 510.613 70.388C510.233 70.0587 509.536 69.7673 508.523 69.514L506.357 68.944C504.685 68.5133 503.443 67.7913 502.633 66.778C501.847 65.7647 501.455 64.5613 501.455 63.168C501.455 61.5213 502.025 60.1407 503.165 59.026C504.305 57.9113 506.065 57.354 508.447 57.354C509.409 57.354 510.423 57.468 511.487 57.696C512.551 57.924 513.665 58.2913 514.831 58.798L513.577 62.522C512.513 62.0153 511.55 61.6607 510.689 61.458C509.827 61.2553 509.067 61.154 508.409 61.154C506.61 61.154 505.711 61.762 505.711 62.978C505.711 63.4593 505.863 63.8393 506.167 64.118C506.496 64.3967 507.091 64.65 507.953 64.878L510.119 65.448C511.968 65.9293 513.311 66.664 514.147 67.652C515.008 68.64 515.439 69.8813 515.439 71.376C515.439 73.1493 514.831 74.5933 513.615 75.708C512.424 76.8227 510.537 77.38 507.953 77.38C505.749 77.38 503.431 76.8733 500.999 75.86L502.177 72.25C503.367 72.7313 504.444 73.0733 505.407 73.276C506.369 73.4787 507.231 73.58 507.991 73.58ZM534.555 75.898C533.238 76.43 531.996 76.81 530.831 77.038C529.666 77.266 528.564 77.38 527.525 77.38C524.662 77.38 522.496 76.5693 521.027 74.948C519.558 73.3267 518.823 71.1733 518.823 68.488V66.208C518.823 64.4093 519.152 62.8513 519.811 61.534C520.47 60.2167 521.407 59.1907 522.623 58.456C523.839 57.7213 525.27 57.354 526.917 57.354C528.26 57.354 529.514 57.6327 530.679 58.19C531.87 58.722 532.832 59.5707 533.567 60.736C534.327 61.876 534.707 63.3453 534.707 65.144C534.707 65.676 534.669 66.246 534.593 66.854C534.517 67.4367 534.39 68.0573 534.213 68.716H523.041C523.092 70.2867 523.484 71.4647 524.219 72.25C524.954 73.0353 526.132 73.428 527.753 73.428C528.614 73.428 529.501 73.3267 530.413 73.124C531.35 72.9213 532.313 72.6173 533.301 72.212L534.555 75.898ZM526.917 61.04C525.752 61.04 524.84 61.42 524.181 62.18C523.548 62.9147 523.18 63.9787 523.079 65.372H530.375C530.4 65.2453 530.413 65.1313 530.413 65.03C530.413 64.9033 530.413 64.7893 530.413 64.688C530.413 63.472 530.071 62.56 529.387 61.952C528.703 61.344 527.88 61.04 526.917 61.04ZM554.333 77.19C553.041 77.19 552.003 76.924 551.217 76.392C550.457 75.86 549.9 75.2013 549.545 74.416C548.456 75.4293 547.405 76.1767 546.391 76.658C545.378 77.1393 544.289 77.38 543.123 77.38C541.426 77.38 540.172 76.8353 539.361 75.746C538.576 74.6567 538.183 73.276 538.183 71.604C538.183 70.4893 538.386 69.514 538.791 68.678C539.222 67.8167 539.919 67.1453 540.881 66.664C541.844 66.1827 543.161 65.942 544.833 65.942C545.492 65.942 546.176 65.9927 546.885 66.094C547.595 66.17 548.304 66.2713 549.013 66.398V64.156C549.013 63.092 548.722 62.37 548.139 61.99C547.557 61.5847 546.771 61.382 545.783 61.382C545.023 61.382 544.187 61.4833 543.275 61.686C542.389 61.8887 541.426 62.2053 540.387 62.636L539.133 58.912C541.692 57.8733 544.01 57.354 546.087 57.354C547.962 57.354 549.406 57.6707 550.419 58.304C551.458 58.9373 552.18 59.7733 552.585 60.812C552.991 61.8507 553.193 62.9653 553.193 64.156V71.566C553.193 71.946 553.295 72.3133 553.497 72.668C553.725 72.9973 554.156 73.162 554.789 73.162H555.207V77.19H554.333ZM542.401 71.528C542.401 72.212 542.553 72.7567 542.857 73.162C543.161 73.542 543.605 73.732 544.187 73.732C544.77 73.732 545.429 73.58 546.163 73.276C546.898 72.972 547.848 72.2627 549.013 71.148V69.514C547.696 69.286 546.404 69.172 545.137 69.172C544.149 69.172 543.44 69.3747 543.009 69.78C542.604 70.1853 542.401 70.768 542.401 71.528ZM569.869 61.724C568.678 61.724 567.538 61.914 566.449 62.294C565.385 62.6487 564.359 63.2313 563.371 64.042V77H559.001V57.734H563.143V60.698C564.435 59.482 565.588 58.6207 566.601 58.114C567.614 57.6073 568.704 57.354 569.869 57.354V61.724ZM577.04 66.246V68.488C577.04 70.1093 577.332 71.3253 577.914 72.136C578.497 72.9467 579.434 73.352 580.726 73.352C581.36 73.352 582.069 73.276 582.854 73.124C583.665 72.9467 584.539 72.6807 585.476 72.326L586.73 76.012C585.59 76.468 584.514 76.81 583.5 77.038C582.487 77.266 581.486 77.38 580.498 77.38C577.965 77.38 576.027 76.5693 574.684 74.948C573.342 73.3267 572.67 71.1733 572.67 68.488V66.246C572.67 63.5353 573.342 61.382 574.684 59.786C576.027 58.1647 577.965 57.354 580.498 57.354C581.461 57.354 582.436 57.468 583.424 57.696C584.412 57.924 585.451 58.2533 586.54 58.684L585.286 62.446C583.462 61.7367 581.942 61.382 580.726 61.382C579.434 61.382 578.497 61.7873 577.914 62.598C577.332 63.3833 577.04 64.5993 577.04 66.246ZM600.154 61.42C599.52 61.42 598.798 61.572 597.988 61.876C597.177 62.18 596.214 62.7753 595.1 63.662V77H590.73V48.88H595.1V60.128C596.265 59.14 597.354 58.4307 598.368 58C599.381 57.5693 600.42 57.354 601.484 57.354C603.333 57.354 604.739 57.9493 605.702 59.14C606.664 60.3053 607.146 61.952 607.146 64.08V77H602.776V64.612C602.776 62.484 601.902 61.42 600.154 61.42Z" fill="#4B4D58"/>
<path d="M795.605 77V74.378C794.44 75.5433 793.427 76.3413 792.565 76.772C791.729 77.1773 790.855 77.38 789.943 77.38C787.866 77.38 786.245 76.5947 785.079 75.024C783.939 73.4533 783.369 71.2493 783.369 68.412V66.36C783.369 63.5987 784.066 61.4073 785.459 59.786C786.853 58.1647 788.867 57.354 791.501 57.354C792.16 57.354 792.806 57.4173 793.439 57.544C794.098 57.6707 794.744 57.848 795.377 58.076V48.88H799.747V77H795.605ZM787.853 68.412C787.853 70.1093 788.132 71.3507 788.689 72.136C789.272 72.9213 790.083 73.314 791.121 73.314C791.704 73.314 792.325 73.1493 792.983 72.82C793.642 72.4653 794.44 71.8067 795.377 70.844V62.028C794.136 61.5213 792.996 61.268 791.957 61.268C790.488 61.268 789.437 61.724 788.803 62.636C788.17 63.548 787.853 64.7893 787.853 66.36V68.412ZM820.399 75.898C819.081 76.43 817.84 76.81 816.675 77.038C815.509 77.266 814.407 77.38 813.369 77.38C810.506 77.38 808.34 76.5693 806.871 74.948C805.401 73.3267 804.667 71.1733 804.667 68.488V66.208C804.667 64.4093 804.996 62.8513 805.655 61.534C806.313 60.2167 807.251 59.1907 808.467 58.456C809.683 57.7213 811.114 57.354 812.761 57.354C814.103 57.354 815.357 57.6327 816.523 58.19C817.713 58.722 818.676 59.5707 819.411 60.736C820.171 61.876 820.551 63.3453 820.551 65.144C820.551 65.676 820.513 66.246 820.437 66.854C820.361 67.4367 820.234 68.0573 820.057 68.716H808.885C808.935 70.2867 809.328 71.4647 810.063 72.25C810.797 73.0353 811.975 73.428 813.597 73.428C814.458 73.428 815.345 73.3267 816.257 73.124C817.194 72.9213 818.157 72.6173 819.145 72.212L820.399 75.898ZM812.761 61.04C811.595 61.04 810.683 61.42 810.025 62.18C809.391 62.9147 809.024 63.9787 808.923 65.372H816.219C816.244 65.2453 816.257 65.1313 816.257 65.03C816.257 64.9033 816.257 64.7893 816.257 64.688C816.257 63.472 815.915 62.56 815.231 61.952C814.547 61.344 813.723 61.04 812.761 61.04ZM830.981 73.58C831.918 73.58 832.691 73.428 833.299 73.124C833.907 72.7947 834.211 72.3133 834.211 71.68C834.211 71.1227 834.008 70.692 833.603 70.388C833.223 70.0587 832.526 69.7673 831.513 69.514L829.347 68.944C827.675 68.5133 826.434 67.7913 825.623 66.778C824.838 65.7647 824.445 64.5613 824.445 63.168C824.445 61.5213 825.015 60.1407 826.155 59.026C827.295 57.9113 829.056 57.354 831.437 57.354C832.4 57.354 833.413 57.468 834.477 57.696C835.541 57.924 836.656 58.2913 837.821 58.798L836.567 62.522C835.503 62.0153 834.54 61.6607 833.679 61.458C832.818 61.2553 832.058 61.154 831.399 61.154C829.6 61.154 828.701 61.762 828.701 62.978C828.701 63.4593 828.853 63.8393 829.157 64.118C829.486 64.3967 830.082 64.65 830.943 64.878L833.109 65.448C834.958 65.9293 836.301 66.664 837.137 67.652C837.998 68.64 838.429 69.8813 838.429 71.376C838.429 73.1493 837.821 74.5933 836.605 75.708C835.414 76.8227 833.527 77.38 830.943 77.38C828.739 77.38 826.421 76.8733 823.989 75.86L825.167 72.25C826.358 72.7313 827.434 73.0733 828.397 73.276C829.36 73.4787 830.221 73.58 830.981 73.58ZM847.399 54.086H842.801V49.564H847.399V54.086ZM847.285 77H842.915V57.734H847.285V77ZM869.304 78.938C869.304 80.99 868.493 82.586 866.872 83.726C865.276 84.8913 863.046 85.474 860.184 85.474C858.841 85.474 857.422 85.322 855.928 85.018C854.433 84.714 853.052 84.2073 851.786 83.498L853.04 80.04C854.256 80.648 855.459 81.0787 856.65 81.332C857.84 81.6107 859.006 81.75 860.146 81.75C861.742 81.75 862.958 81.5347 863.794 81.104C864.63 80.6733 865.048 80.1033 865.048 79.394C865.048 78.3047 864.402 77.76 863.11 77.76H858.55C857.308 77.76 856.308 77.5573 855.548 77.152C854.788 76.7467 854.23 76.2273 853.876 75.594C853.521 74.9353 853.344 74.2513 853.344 73.542C853.344 72.8073 853.496 72.1233 853.8 71.49C854.129 70.8313 854.572 70.2233 855.13 69.666C854.218 69.1087 853.483 68.3613 852.926 67.424C852.394 66.4867 852.128 65.3593 852.128 64.042C852.128 62.5473 852.444 61.306 853.078 60.318C853.711 59.33 854.572 58.5953 855.662 58.114C856.776 57.6073 858.005 57.354 859.348 57.354H859.994C860.5 57.354 860.994 57.392 861.476 57.468C861.957 57.5187 862.413 57.6073 862.844 57.734H869.722V61.458L865.922 60.85C866.302 61.2553 866.593 61.762 866.796 62.37C867.024 62.9527 867.138 63.6747 867.138 64.536C867.138 65.828 866.808 66.9427 866.15 67.88C865.516 68.792 864.655 69.5013 863.566 70.008C862.502 70.4893 861.311 70.73 859.994 70.73H859.348C858.841 70.73 858.36 70.692 857.904 70.616C857.625 70.92 857.422 71.2367 857.296 71.566C857.169 71.87 857.106 72.1613 857.106 72.44C857.106 73.3267 857.676 73.77 858.816 73.77H863.452C865.2 73.77 866.606 74.226 867.67 75.138C868.759 76.0247 869.304 77.2913 869.304 78.938ZM859.994 67.158C860.779 67.158 861.463 66.892 862.046 66.36C862.654 65.828 862.958 65.0553 862.958 64.042C862.958 63.0287 862.654 62.256 862.046 61.724C861.463 61.192 860.779 60.926 859.994 60.926H859.348C858.537 60.926 857.828 61.192 857.22 61.724C856.637 62.256 856.346 63.0287 856.346 64.042C856.346 65.0553 856.637 65.828 857.22 66.36C857.828 66.892 858.537 67.158 859.348 67.158H859.994ZM882.917 61.42C882.284 61.42 881.562 61.572 880.751 61.876C879.941 62.18 878.978 62.7753 877.863 63.662V77H873.493V57.734H877.635V60.318C878.826 59.2793 879.953 58.532 881.017 58.076C882.081 57.5947 883.158 57.354 884.247 57.354C886.097 57.354 887.503 57.9493 888.465 59.14C889.428 60.3053 889.909 61.952 889.909 64.08V77H885.539V64.612C885.539 62.484 884.665 61.42 882.917 61.42Z" fill="#4B4D58"/>
<path d="M1074.68 54.086H1070.08V49.564H1074.68V54.086ZM1074.56 77H1070.19V57.734H1074.56V77ZM1092.17 76.354C1091.51 76.658 1090.75 76.8987 1089.89 77.076C1089.03 77.2787 1088.16 77.38 1087.27 77.38C1085.8 77.38 1084.62 77.076 1083.74 76.468C1082.85 75.86 1082.2 75.0113 1081.8 73.922C1081.42 72.8327 1081.23 71.5913 1081.23 70.198V61.534H1078.11V57.734H1081.23V52.718H1085.6V57.734H1091.6V61.534H1085.6V70.198C1085.6 71.3633 1085.81 72.174 1086.24 72.63C1086.7 73.0607 1087.35 73.276 1088.18 73.276C1088.59 73.276 1089.02 73.238 1089.47 73.162C1089.96 73.0607 1090.49 72.896 1091.07 72.668L1092.17 76.354ZM1110.32 75.898C1109 76.43 1107.76 76.81 1106.59 77.038C1105.43 77.266 1104.32 77.38 1103.29 77.38C1100.42 77.38 1098.26 76.5693 1096.79 74.948C1095.32 73.3267 1094.58 71.1733 1094.58 68.488V66.208C1094.58 64.4093 1094.91 62.8513 1095.57 61.534C1096.23 60.2167 1097.17 59.1907 1098.38 58.456C1099.6 57.7213 1101.03 57.354 1102.68 57.354C1104.02 57.354 1105.27 57.6327 1106.44 58.19C1107.63 58.722 1108.59 59.5707 1109.33 60.736C1110.09 61.876 1110.47 63.3453 1110.47 65.144C1110.47 65.676 1110.43 66.246 1110.35 66.854C1110.28 67.4367 1110.15 68.0573 1109.97 68.716H1098.8C1098.85 70.2867 1099.24 71.4647 1099.98 72.25C1100.71 73.0353 1101.89 73.428 1103.51 73.428C1104.37 73.428 1105.26 73.3267 1106.17 73.124C1107.11 72.9213 1108.07 72.6173 1109.06 72.212L1110.32 75.898ZM1102.68 61.04C1101.51 61.04 1100.6 61.42 1099.94 62.18C1099.31 62.9147 1098.94 63.9787 1098.84 65.372H1106.14C1106.16 65.2453 1106.17 65.1313 1106.17 65.03C1106.17 64.9033 1106.17 64.7893 1106.17 64.688C1106.17 63.472 1105.83 62.56 1105.15 61.952C1104.46 61.344 1103.64 61.04 1102.68 61.04ZM1126.37 61.724C1125.18 61.724 1124.04 61.914 1122.95 62.294C1121.89 62.6487 1120.86 63.2313 1119.87 64.042V77H1115.5V57.734H1119.64V60.698C1120.94 59.482 1122.09 58.6207 1123.1 58.114C1124.12 57.6073 1125.2 57.354 1126.37 57.354V61.724ZM1144.79 77.19C1143.5 77.19 1142.46 76.924 1141.67 76.392C1140.91 75.86 1140.36 75.2013 1140 74.416C1138.91 75.4293 1137.86 76.1767 1136.85 76.658C1135.83 77.1393 1134.74 77.38 1133.58 77.38C1131.88 77.38 1130.63 76.8353 1129.82 75.746C1129.03 74.6567 1128.64 73.276 1128.64 71.604C1128.64 70.4893 1128.84 69.514 1129.25 68.678C1129.68 67.8167 1130.37 67.1453 1131.34 66.664C1132.3 66.1827 1133.62 65.942 1135.29 65.942C1135.95 65.942 1136.63 65.9927 1137.34 66.094C1138.05 66.17 1138.76 66.2713 1139.47 66.398V64.156C1139.47 63.092 1139.18 62.37 1138.6 61.99C1138.01 61.5847 1137.23 61.382 1136.24 61.382C1135.48 61.382 1134.64 61.4833 1133.73 61.686C1132.84 61.8887 1131.88 62.2053 1130.84 62.636L1129.59 58.912C1132.15 57.8733 1134.47 57.354 1136.54 57.354C1138.42 57.354 1139.86 57.6707 1140.88 58.304C1141.91 58.9373 1142.64 59.7733 1143.04 60.812C1143.45 61.8507 1143.65 62.9653 1143.65 64.156V71.566C1143.65 71.946 1143.75 72.3133 1143.95 72.668C1144.18 72.9973 1144.61 73.162 1145.25 73.162H1145.66V77.19H1144.79ZM1132.86 71.528C1132.86 72.212 1133.01 72.7567 1133.31 73.162C1133.62 73.542 1134.06 73.732 1134.64 73.732C1135.23 73.732 1135.88 73.58 1136.62 73.276C1137.35 72.972 1138.3 72.2627 1139.47 71.148V69.514C1138.15 69.286 1136.86 69.172 1135.59 69.172C1134.61 69.172 1133.9 69.3747 1133.47 69.78C1133.06 70.1853 1132.86 70.768 1132.86 71.528ZM1161.05 76.354C1160.39 76.658 1159.63 76.8987 1158.77 77.076C1157.91 77.2787 1157.03 77.38 1156.15 77.38C1154.68 77.38 1153.5 77.076 1152.61 76.468C1151.72 75.86 1151.08 75.0113 1150.67 73.922C1150.29 72.8327 1150.1 71.5913 1150.1 70.198V61.534H1146.99V57.734H1150.1V52.718H1154.47V57.734H1160.48V61.534H1154.47V70.198C1154.47 71.3633 1154.69 72.174 1155.12 72.63C1155.58 73.0607 1156.22 73.276 1157.06 73.276C1157.46 73.276 1157.89 73.238 1158.35 73.162C1158.83 73.0607 1159.36 72.896 1159.95 72.668L1161.05 76.354ZM1169.04 54.086H1164.45V49.564H1169.04V54.086ZM1168.93 77H1164.56V57.734H1168.93V77ZM1190.72 66.208V68.488C1190.72 71.1733 1189.99 73.3267 1188.52 74.948C1187.05 76.5693 1184.97 77.38 1182.29 77.38C1179.6 77.38 1177.52 76.5693 1176.05 74.948C1174.58 73.3267 1173.85 71.1733 1173.85 68.488V66.208C1173.85 63.5227 1174.57 61.382 1176.02 59.786C1177.48 58.1647 1179.57 57.354 1182.29 57.354C1185 57.354 1187.07 58.1647 1188.52 59.786C1189.99 61.382 1190.72 63.5227 1190.72 66.208ZM1186.24 66.208C1186.24 64.6627 1185.9 63.4593 1185.21 62.598C1184.53 61.7113 1183.55 61.268 1182.29 61.268C1181.02 61.268 1180.04 61.7113 1179.36 62.598C1178.68 63.4593 1178.33 64.6627 1178.33 66.208V68.488C1178.33 70.0333 1178.68 71.2493 1179.36 72.136C1180.04 73.0227 1181.02 73.466 1182.29 73.466C1183.55 73.466 1184.53 73.0227 1185.21 72.136C1185.9 71.2493 1186.24 70.0333 1186.24 68.488V66.208ZM1205.05 61.42C1204.41 61.42 1203.69 61.572 1202.88 61.876C1202.07 62.18 1201.11 62.7753 1199.99 63.662V77H1195.62V57.734H1199.76V60.318C1200.95 59.2793 1202.08 58.532 1203.15 58.076C1204.21 57.5947 1205.29 57.354 1206.38 57.354C1208.22 57.354 1209.63 57.9493 1210.59 59.14C1211.56 60.3053 1212.04 61.952 1212.04 64.08V77H1207.67V64.612C1207.67 62.484 1206.79 61.42 1205.05 61.42Z" fill="#4B4D58"/>
<path d="M1352.56 56.1V57.734H1364.22V77H1359.85V61.534H1352.56V77H1348.19V61.534H1345.07V57.734H1348.19V56.1C1348.19 54.6053 1348.45 53.288 1348.99 52.148C1349.52 51.008 1350.37 50.1213 1351.53 49.488C1352.72 48.8293 1354.27 48.5 1356.17 48.5C1357.21 48.5 1358.32 48.6267 1359.51 48.88C1360.7 49.108 1361.94 49.5387 1363.24 50.172L1361.64 53.744C1360.5 53.3133 1359.5 53.022 1358.64 52.87C1357.78 52.6927 1356.99 52.604 1356.28 52.604C1355.12 52.604 1354.21 52.8573 1353.55 53.364C1352.89 53.8453 1352.56 54.7573 1352.56 56.1ZM1379.64 61.42C1379 61.42 1378.28 61.572 1377.47 61.876C1376.66 62.18 1375.7 62.7753 1374.58 63.662V77H1370.21V57.734H1374.36V60.318C1375.55 59.2793 1376.67 58.532 1377.74 58.076C1378.8 57.5947 1379.88 57.354 1380.97 57.354C1382.82 57.354 1384.22 57.9493 1385.19 59.14C1386.15 60.3053 1386.63 61.952 1386.63 64.08V77H1382.26V64.612C1382.26 62.484 1381.39 61.42 1379.64 61.42ZM1407 77.19C1405.71 77.19 1404.67 76.924 1403.88 76.392C1403.12 75.86 1402.56 75.2013 1402.21 74.416C1401.12 75.4293 1400.07 76.1767 1399.06 76.658C1398.04 77.1393 1396.95 77.38 1395.79 77.38C1394.09 77.38 1392.84 76.8353 1392.03 75.746C1391.24 74.6567 1390.85 73.276 1390.85 71.604C1390.85 70.4893 1391.05 69.514 1391.46 68.678C1391.89 67.8167 1392.58 67.1453 1393.55 66.664C1394.51 66.1827 1395.83 65.942 1397.5 65.942C1398.16 65.942 1398.84 65.9927 1399.55 66.094C1400.26 66.17 1400.97 66.2713 1401.68 66.398V64.156C1401.68 63.092 1401.39 62.37 1400.8 61.99C1400.22 61.5847 1399.44 61.382 1398.45 61.382C1397.69 61.382 1396.85 61.4833 1395.94 61.686C1395.05 61.8887 1394.09 62.2053 1393.05 62.636L1391.8 58.912C1394.36 57.8733 1396.67 57.354 1398.75 57.354C1400.63 57.354 1402.07 57.6707 1403.08 58.304C1404.12 58.9373 1404.84 59.7733 1405.25 60.812C1405.65 61.8507 1405.86 62.9653 1405.86 64.156V71.566C1405.86 71.946 1405.96 72.3133 1406.16 72.668C1406.39 72.9973 1406.82 73.162 1407.45 73.162H1407.87V77.19H1407ZM1395.07 71.528C1395.07 72.212 1395.22 72.7567 1395.52 73.162C1395.83 73.542 1396.27 73.732 1396.85 73.732C1397.43 73.732 1398.09 73.58 1398.83 73.276C1399.56 72.972 1400.51 72.2627 1401.68 71.148V69.514C1400.36 69.286 1399.07 69.172 1397.8 69.172C1396.81 69.172 1396.1 69.3747 1395.67 69.78C1395.27 70.1853 1395.07 70.768 1395.07 71.528ZM1411.55 71.566V48.88H1415.92V71.566C1415.92 71.946 1416.01 72.3133 1416.19 72.668C1416.39 72.9973 1416.77 73.162 1417.33 73.162H1417.94V77.19H1416.87C1415.43 77.19 1414.33 76.9113 1413.57 76.354C1412.81 75.7967 1412.27 75.0873 1411.97 74.226C1411.69 73.3647 1411.55 72.478 1411.55 71.566ZM1426.65 54.086H1422.05V49.564H1426.65V54.086ZM1426.54 77H1422.17V57.734H1426.54V77ZM1444.64 73.2V77H1430.89V73.58L1439.02 61.534H1431.27V57.734H1444.26V61.154L1436.13 73.2H1444.64ZM1463.55 77.19C1462.26 77.19 1461.22 76.924 1460.44 76.392C1459.68 75.86 1459.12 75.2013 1458.76 74.416C1457.67 75.4293 1456.62 76.1767 1455.61 76.658C1454.6 77.1393 1453.51 77.38 1452.34 77.38C1450.64 77.38 1449.39 76.8353 1448.58 75.746C1447.79 74.6567 1447.4 73.276 1447.4 71.604C1447.4 70.4893 1447.6 69.514 1448.01 68.678C1448.44 67.8167 1449.14 67.1453 1450.1 66.664C1451.06 66.1827 1452.38 65.942 1454.05 65.942C1454.71 65.942 1455.39 65.9927 1456.1 66.094C1456.81 66.17 1457.52 66.2713 1458.23 66.398V64.156C1458.23 63.092 1457.94 62.37 1457.36 61.99C1456.78 61.5847 1455.99 61.382 1455 61.382C1454.24 61.382 1453.41 61.4833 1452.49 61.686C1451.61 61.8887 1450.64 62.2053 1449.61 62.636L1448.35 58.912C1450.91 57.8733 1453.23 57.354 1455.31 57.354C1457.18 57.354 1458.62 57.6707 1459.64 58.304C1460.68 58.9373 1461.4 59.7733 1461.8 60.812C1462.21 61.8507 1462.41 62.9653 1462.41 64.156V71.566C1462.41 71.946 1462.51 72.3133 1462.72 72.668C1462.94 72.9973 1463.37 73.162 1464.01 73.162H1464.43V77.19H1463.55ZM1451.62 71.528C1451.62 72.212 1451.77 72.7567 1452.08 73.162C1452.38 73.542 1452.82 73.732 1453.41 73.732C1453.99 73.732 1454.65 73.58 1455.38 73.276C1456.12 72.972 1457.07 72.2627 1458.23 71.148V69.514C1456.91 69.286 1455.62 69.172 1454.36 69.172C1453.37 69.172 1452.66 69.3747 1452.23 69.78C1451.82 70.1853 1451.62 70.768 1451.62 71.528ZM1479.81 76.354C1479.15 76.658 1478.39 76.8987 1477.53 77.076C1476.67 77.2787 1475.79 77.38 1474.91 77.38C1473.44 77.38 1472.26 77.076 1471.37 76.468C1470.49 75.86 1469.84 75.0113 1469.44 73.922C1469.06 72.8327 1468.87 71.5913 1468.87 70.198V61.534H1465.75V57.734H1468.87V52.718H1473.24V57.734H1479.24V61.534H1473.24V70.198C1473.24 71.3633 1473.45 72.174 1473.88 72.63C1474.34 73.0607 1474.98 73.276 1475.82 73.276C1476.23 73.276 1476.66 73.238 1477.11 73.162C1477.59 73.0607 1478.13 72.896 1478.71 72.668L1479.81 76.354ZM1487.81 54.086H1483.21V49.564H1487.81V54.086ZM1487.69 77H1483.32V57.734H1487.69V77ZM1509.48 66.208V68.488C1509.48 71.1733 1508.75 73.3267 1507.28 74.948C1505.81 76.5693 1503.73 77.38 1501.05 77.38C1498.36 77.38 1496.29 76.5693 1494.82 74.948C1493.35 73.3267 1492.61 71.1733 1492.61 68.488V66.208C1492.61 63.5227 1493.33 61.382 1494.78 59.786C1496.25 58.1647 1498.34 57.354 1501.05 57.354C1503.76 57.354 1505.84 58.1647 1507.28 59.786C1508.75 61.382 1509.48 63.5227 1509.48 66.208ZM1505 66.208C1505 64.6627 1504.66 63.4593 1503.97 62.598C1503.29 61.7113 1502.31 61.268 1501.05 61.268C1499.78 61.268 1498.81 61.7113 1498.12 62.598C1497.44 63.4593 1497.1 64.6627 1497.1 66.208V68.488C1497.1 70.0333 1497.44 71.2493 1498.12 72.136C1498.81 73.0227 1499.78 73.466 1501.05 73.466C1502.31 73.466 1503.29 73.0227 1503.97 72.136C1504.66 71.2493 1505 70.0333 1505 68.488V66.208ZM1523.81 61.42C1523.17 61.42 1522.45 61.572 1521.64 61.876C1520.83 62.18 1519.87 62.7753 1518.75 63.662V77H1514.38V57.734H1518.53V60.318C1519.72 59.2793 1520.84 58.532 1521.91 58.076C1522.97 57.5947 1524.05 57.354 1525.14 57.354C1526.99 57.354 1528.39 57.9493 1529.36 59.14C1530.32 60.3053 1530.8 61.952 1530.8 64.08V77H1526.43V64.612C1526.43 62.484 1525.56 61.42 1523.81 61.42Z" fill="#4B4D58"/>
<defs>
<linearGradient id="paint0_linear_95_377" x1="1200" y1="62.5" x2="1600" y2="62.5" gradientUnits="userSpaceOnUse">
<stop stop-color="white"/>
<stop offset="1" stop-color="#E8EBFF"/>
</linearGradient>
<linearGradient id="paint1_linear_95_377" x1="1200" y1="27.5" x2="1600" y2="63" gradientUnits="userSpaceOnUse">
<stop stop-color="#2962FF"/>
<stop offset="0.529931" stop-color="#C57EFF"/>
<stop offset="1" stop-color="#8CAAFC"/>
</linearGradient>
<linearGradient id="paint2_linear_95_377" x1="900" y1="62.5" x2="1300" y2="62.5" gradientUnits="userSpaceOnUse">
<stop stop-color="white"/>
<stop offset="1" stop-color="#E8EBFF"/>
</linearGradient>
<linearGradient id="paint3_linear_95_377" x1="900" y1="27.5" x2="1300" y2="63" gradientUnits="userSpaceOnUse">
<stop stop-color="#2962FF"/>
<stop offset="0.529931" stop-color="#C57EFF"/>
<stop offset="1" stop-color="#8CAAFC"/>
</linearGradient>
<linearGradient id="paint4_linear_95_377" x1="600" y1="62.5" x2="1000" y2="62.5" gradientUnits="userSpaceOnUse">
<stop stop-color="white"/>
<stop offset="1" stop-color="#E8EBFF"/>
</linearGradient>
<linearGradient id="paint5_linear_95_377" x1="600" y1="27.5" x2="1000" y2="63" gradientUnits="userSpaceOnUse">
<stop stop-color="#2962FF"/>
<stop offset="0.529931" stop-color="#C57EFF"/>
<stop offset="1" stop-color="#8CAAFC"/>
</linearGradient>
<linearGradient id="paint6_linear_95_377" x1="300" y1="62.5" x2="700" y2="62.5" gradientUnits="userSpaceOnUse">
<stop stop-color="white"/>
<stop offset="1" stop-color="#E8EBFF"/>
</linearGradient>
<linearGradient id="paint7_linear_95_377" x1="300" y1="27.5" x2="700" y2="63" gradientUnits="userSpaceOnUse">
<stop stop-color="#2962FF"/>
<stop offset="0.529931" stop-color="#C57EFF"/>
<stop offset="1" stop-color="#8CAAFC"/>
</linearGradient>
<linearGradient id="paint8_linear_95_377" x1="0" y1="62.5" x2="400" y2="62.5" gradientUnits="userSpaceOnUse">
<stop stop-color="white"/>
<stop offset="1" stop-color="#E8EBFF"/>
</linearGradient>
<linearGradient id="paint9_linear_95_377" x1="-2.18488e-07" y1="27.5" x2="400" y2="63" gradientUnits="userSpaceOnUse">
<stop stop-color="#2962FF"/>
<stop offset="0.529931" stop-color="#C57EFF"/>
<stop offset="1" stop-color="#8CAAFC"/>
</linearGradient>
</defs>
</svg>
