<svg width="688" height="156" viewBox="0 0 688 156" fill="none" xmlns="http://www.w3.org/2000/svg">
<path d="M310.941 77.1758V83.8203C310.691 84.1406 310.297 84.4883 309.758 84.8633C309.227 85.2383 308.531 85.5625 307.672 85.8359C306.812 86.1016 305.758 86.2344 304.508 86.2344C303.422 86.2344 302.43 86.0547 301.531 85.6953C300.633 85.3281 299.859 84.793 299.211 84.0898C298.562 83.3867 298.062 82.5273 297.711 81.5117C297.359 80.4961 297.184 79.3359 297.184 78.0312V76.9062C297.184 75.6016 297.348 74.4414 297.676 73.4258C298.012 72.4102 298.488 71.5508 299.105 70.8477C299.73 70.1445 300.477 69.6094 301.344 69.2422C302.219 68.875 303.195 68.6914 304.273 68.6914C305.719 68.6914 306.906 68.9297 307.836 69.4062C308.773 69.8828 309.492 70.5391 309.992 71.375C310.492 72.2031 310.805 73.1562 310.93 74.2344H307.789C307.703 73.6406 307.531 73.1211 307.273 72.6758C307.016 72.2227 306.648 71.8711 306.172 71.6211C305.703 71.3633 305.094 71.2344 304.344 71.2344C303.711 71.2344 303.152 71.3594 302.668 71.6094C302.184 71.8594 301.777 72.2227 301.449 72.6992C301.121 73.1758 300.871 73.7656 300.699 74.4688C300.535 75.1719 300.453 75.9766 300.453 76.8828V78.0312C300.453 78.9453 300.547 79.7578 300.734 80.4688C300.922 81.1719 301.191 81.7656 301.543 82.25C301.902 82.7266 302.344 83.0898 302.867 83.3398C303.398 83.582 304 83.7031 304.672 83.7031C305.281 83.7031 305.785 83.6523 306.184 83.5508C306.59 83.4414 306.914 83.3125 307.156 83.1641C307.398 83.0156 307.586 82.8711 307.719 82.7305V79.5312H304.332V77.1758H310.941ZM316.848 75.9102V86H313.754V73.3203H316.684L316.848 75.9102ZM320.703 73.2383L320.656 76.1211C320.484 76.0898 320.289 76.0664 320.07 76.0508C319.859 76.0352 319.66 76.0273 319.473 76.0273C318.996 76.0273 318.578 76.0938 318.219 76.2266C317.859 76.3516 317.559 76.5352 317.316 76.7773C317.082 77.0195 316.902 77.3164 316.777 77.668C316.652 78.0117 316.582 78.4023 316.566 78.8398L315.898 78.7578C315.898 77.9531 315.98 77.207 316.145 76.5195C316.309 75.832 316.547 75.2305 316.859 74.7148C317.172 74.1992 317.562 73.8008 318.031 73.5195C318.508 73.2305 319.055 73.0859 319.672 73.0859C319.844 73.0859 320.027 73.1016 320.223 73.1328C320.426 73.1562 320.586 73.1914 320.703 73.2383ZM328.988 83.3047V77.457C328.988 77.0273 328.914 76.6562 328.766 76.3438C328.617 76.0312 328.391 75.7891 328.086 75.6172C327.781 75.4453 327.395 75.3594 326.926 75.3594C326.512 75.3594 326.148 75.4297 325.836 75.5703C325.531 75.7109 325.297 75.9102 325.133 76.168C324.969 76.418 324.887 76.707 324.887 77.0352H321.781C321.781 76.5117 321.906 76.0156 322.156 75.5469C322.406 75.0703 322.762 74.6484 323.223 74.2812C323.691 73.9062 324.25 73.6133 324.898 73.4023C325.555 73.1914 326.289 73.0859 327.102 73.0859C328.062 73.0859 328.918 73.25 329.668 73.5781C330.426 73.8984 331.02 74.3828 331.449 75.0312C331.887 75.6797 332.105 76.4961 332.105 77.4805V83.0117C332.105 83.6445 332.145 84.1875 332.223 84.6406C332.309 85.0859 332.434 85.4727 332.598 85.8008V86H329.445C329.297 85.6797 329.184 85.2734 329.105 84.7812C329.027 84.2812 328.988 83.7891 328.988 83.3047ZM329.422 78.2773L329.445 80.1172H327.488C327.004 80.1172 326.578 80.168 326.211 80.2695C325.844 80.3633 325.543 80.5039 325.309 80.6914C325.074 80.8711 324.898 81.0898 324.781 81.3477C324.664 81.5977 324.605 81.8828 324.605 82.2031C324.605 82.5156 324.676 82.7969 324.816 83.0469C324.965 83.2969 325.176 83.4961 325.449 83.6445C325.73 83.7852 326.059 83.8555 326.434 83.8555C326.98 83.8555 327.457 83.7461 327.863 83.5273C328.27 83.3008 328.586 83.0273 328.812 82.707C329.039 82.3867 329.16 82.082 329.176 81.793L330.066 83.1289C329.957 83.4492 329.793 83.7891 329.574 84.1484C329.355 84.5078 329.074 84.8438 328.73 85.1562C328.387 85.4688 327.973 85.7266 327.488 85.9297C327.004 86.1328 326.441 86.2344 325.801 86.2344C324.98 86.2344 324.246 86.0703 323.598 85.7422C322.949 85.4141 322.438 84.9648 322.062 84.3945C321.688 83.8242 321.5 83.1758 321.5 82.4492C321.5 81.7773 321.625 81.1836 321.875 80.668C322.125 80.1523 322.496 79.7188 322.988 79.3672C323.48 79.0078 324.09 78.7383 324.816 78.5586C325.551 78.3711 326.391 78.2773 327.336 78.2773H329.422ZM337.988 75.7578V90.875H334.883V73.3203H337.754L337.988 75.7578ZM346.133 79.5312V79.7773C346.133 80.6992 346.023 81.5547 345.805 82.3438C345.594 83.125 345.281 83.8086 344.867 84.3945C344.453 84.9727 343.938 85.4258 343.32 85.7539C342.711 86.0742 342.008 86.2344 341.211 86.2344C340.43 86.2344 339.75 86.0859 339.172 85.7891C338.594 85.4844 338.105 85.0547 337.707 84.5C337.309 83.9453 336.988 83.3008 336.746 82.5664C336.512 81.8242 336.336 81.0156 336.219 80.1406V79.3555C336.336 78.4258 336.512 77.582 336.746 76.8242C336.988 76.0586 337.309 75.3984 337.707 74.8438C338.105 74.2812 338.59 73.8477 339.16 73.543C339.738 73.2383 340.414 73.0859 341.188 73.0859C341.992 73.0859 342.699 73.2383 343.309 73.543C343.926 73.8477 344.445 74.2852 344.867 74.8555C345.289 75.4258 345.605 76.1055 345.816 76.8945C346.027 77.6836 346.133 78.5625 346.133 79.5312ZM343.027 79.7773V79.5312C343.027 78.9688 342.977 78.4492 342.875 77.9727C342.773 77.4883 342.617 77.0664 342.406 76.707C342.195 76.3398 341.922 76.0547 341.586 75.8516C341.25 75.6484 340.844 75.5469 340.367 75.5469C339.891 75.5469 339.48 75.625 339.137 75.7812C338.793 75.9375 338.512 76.1602 338.293 76.4492C338.074 76.7383 337.902 77.082 337.777 77.4805C337.66 77.8711 337.582 78.3047 337.543 78.7812V80.7266C337.613 81.3047 337.75 81.8242 337.953 82.2852C338.156 82.7461 338.453 83.1133 338.844 83.3867C339.242 83.6602 339.758 83.7969 340.391 83.7969C340.867 83.7969 341.273 83.6914 341.609 83.4805C341.945 83.2695 342.219 82.9805 342.43 82.6133C342.641 82.2383 342.793 81.8086 342.887 81.3242C342.98 80.8398 343.027 80.3242 343.027 79.7773ZM351.43 68V86H348.324V68H351.43ZM350.938 79.2031H350.023C350.023 78.3203 350.141 77.5078 350.375 76.7656C350.609 76.0234 350.941 75.3789 351.371 74.832C351.801 74.2773 352.312 73.8477 352.906 73.543C353.508 73.2383 354.172 73.0859 354.898 73.0859C355.523 73.0859 356.09 73.1758 356.598 73.3555C357.113 73.5273 357.555 73.8047 357.922 74.1875C358.289 74.5703 358.57 75.0703 358.766 75.6875C358.969 76.2969 359.07 77.0391 359.07 77.9141V86H355.953V77.8906C355.953 77.3047 355.867 76.8438 355.695 76.5078C355.523 76.1641 355.277 75.918 354.957 75.7695C354.645 75.6211 354.258 75.5469 353.797 75.5469C353.297 75.5469 352.867 75.6445 352.508 75.8398C352.148 76.0273 351.852 76.2891 351.617 76.625C351.391 76.9609 351.219 77.3477 351.102 77.7852C350.992 78.2227 350.938 78.6953 350.938 79.2031ZM365.082 73.3203V86H361.977V73.3203H365.082ZM361.766 70.0039C361.766 69.543 361.922 69.1602 362.234 68.8555C362.555 68.5508 362.984 68.3984 363.523 68.3984C364.062 68.3984 364.488 68.5508 364.801 68.8555C365.121 69.1602 365.281 69.543 365.281 70.0039C365.281 70.457 365.121 70.8359 364.801 71.1406C364.488 71.4453 364.062 71.5977 363.523 71.5977C362.984 71.5977 362.555 71.4453 362.234 71.1406C361.922 70.8359 361.766 70.457 361.766 70.0039ZM373.238 83.7969C373.676 83.7969 374.066 83.7109 374.41 83.5391C374.754 83.3672 375.027 83.125 375.23 82.8125C375.441 82.5 375.555 82.1367 375.57 81.7227H378.488C378.473 82.582 378.23 83.3516 377.762 84.0312C377.293 84.7109 376.668 85.25 375.887 85.6484C375.113 86.0391 374.246 86.2344 373.285 86.2344C372.309 86.2344 371.457 86.0703 370.73 85.7422C370.004 85.4141 369.398 84.957 368.914 84.3711C368.438 83.7852 368.078 83.1055 367.836 82.332C367.602 81.5586 367.484 80.7305 367.484 79.8477V79.4727C367.484 78.5898 367.602 77.7617 367.836 76.9883C368.078 76.2148 368.438 75.5352 368.914 74.9492C369.398 74.3633 370.004 73.9062 370.73 73.5781C371.457 73.25 372.305 73.0859 373.273 73.0859C374.297 73.0859 375.195 73.2852 375.969 73.6836C376.75 74.082 377.359 74.6445 377.797 75.3711C378.242 76.0977 378.473 76.9531 378.488 77.9375H375.57C375.555 77.4844 375.453 77.0781 375.266 76.7188C375.078 76.3594 374.812 76.0703 374.469 75.8516C374.125 75.6328 373.707 75.5234 373.215 75.5234C372.691 75.5234 372.254 75.6328 371.902 75.8516C371.559 76.0703 371.289 76.3711 371.094 76.7539C370.906 77.1289 370.773 77.5508 370.695 78.0195C370.625 78.4805 370.59 78.9648 370.59 79.4727V79.8477C370.59 80.3633 370.625 80.8555 370.695 81.3242C370.773 81.793 370.906 82.2148 371.094 82.5898C371.289 82.957 371.559 83.25 371.902 83.4688C372.254 83.6875 372.699 83.7969 373.238 83.7969ZM387.523 82.5312C387.523 82.2656 387.453 82.0273 387.312 81.8164C387.172 81.6055 386.906 81.4141 386.516 81.2422C386.133 81.0625 385.57 80.8945 384.828 80.7383C384.172 80.5977 383.566 80.4219 383.012 80.2109C382.457 80 381.98 79.7461 381.582 79.4492C381.184 79.1445 380.871 78.7891 380.645 78.3828C380.426 77.9688 380.316 77.4922 380.316 76.9531C380.316 76.4297 380.43 75.9375 380.656 75.4766C380.883 75.0078 381.211 74.5977 381.641 74.2461C382.07 73.8867 382.594 73.6055 383.211 73.4023C383.828 73.1914 384.523 73.0859 385.297 73.0859C386.375 73.0859 387.301 73.2617 388.074 73.6133C388.855 73.9648 389.453 74.4492 389.867 75.0664C390.281 75.6758 390.488 76.3633 390.488 77.1289H387.395C387.395 76.793 387.316 76.4883 387.16 76.2148C387.012 75.9414 386.781 75.7227 386.469 75.5586C386.156 75.3867 385.762 75.3008 385.285 75.3008C384.855 75.3008 384.492 75.3711 384.195 75.5117C383.906 75.6523 383.688 75.8359 383.539 76.0625C383.391 76.2891 383.316 76.5391 383.316 76.8125C383.316 77.0156 383.355 77.1992 383.434 77.3633C383.52 77.5195 383.656 77.6641 383.844 77.7969C384.031 77.9297 384.285 78.0508 384.605 78.1602C384.934 78.2695 385.336 78.375 385.812 78.4766C386.758 78.6641 387.582 78.9141 388.285 79.2266C388.996 79.5312 389.551 79.9375 389.949 80.4453C390.348 80.9531 390.547 81.6016 390.547 82.3906C390.547 82.9531 390.426 83.4688 390.184 83.9375C389.941 84.3984 389.59 84.8008 389.129 85.1445C388.668 85.4883 388.117 85.7578 387.477 85.9531C386.836 86.1406 386.113 86.2344 385.309 86.2344C384.145 86.2344 383.16 86.0273 382.355 85.6133C381.551 85.1914 380.941 84.6602 380.527 84.0195C380.113 83.3711 379.906 82.6992 379.906 82.0039H382.871C382.895 82.4961 383.027 82.8906 383.27 83.1875C383.512 83.4844 383.816 83.6992 384.184 83.832C384.559 83.957 384.953 84.0195 385.367 84.0195C385.836 84.0195 386.23 83.957 386.551 83.832C386.871 83.6992 387.113 83.5234 387.277 83.3047C387.441 83.0781 387.523 82.8203 387.523 82.5312Z" fill="#2C2C2C"/>
<path d="M190.161 90.2275H186.83V88.4785H190.161C190.741 88.4785 191.21 88.3848 191.567 88.1973C191.925 88.0098 192.186 87.752 192.35 87.4238C192.52 87.0898 192.604 86.709 192.604 86.2812C192.604 85.877 192.52 85.499 192.35 85.1475C192.186 84.79 191.925 84.5029 191.567 84.2861C191.21 84.0693 190.741 83.9609 190.161 83.9609H187.507V95H185.301V82.2031H190.161C191.151 82.2031 191.992 82.3789 192.684 82.7305C193.381 83.0762 193.911 83.5566 194.274 84.1719C194.638 84.7812 194.819 85.4785 194.819 86.2637C194.819 87.0898 194.638 87.7988 194.274 88.3906C193.911 88.9824 193.381 89.4365 192.684 89.7529C191.992 90.0693 191.151 90.2275 190.161 90.2275ZM201.842 93.0928V88.5576C201.842 88.2178 201.78 87.9248 201.657 87.6787C201.534 87.4326 201.347 87.2422 201.095 87.1074C200.849 86.9727 200.538 86.9053 200.163 86.9053C199.817 86.9053 199.519 86.9639 199.267 87.0811C199.015 87.1982 198.818 87.3564 198.678 87.5557C198.537 87.7549 198.467 87.9805 198.467 88.2324H196.357C196.357 87.8574 196.448 87.4941 196.63 87.1426C196.812 86.791 197.075 86.4775 197.421 86.2021C197.767 85.9268 198.18 85.71 198.66 85.5518C199.141 85.3936 199.68 85.3145 200.277 85.3145C200.992 85.3145 201.625 85.4346 202.176 85.6748C202.732 85.915 203.169 86.2783 203.485 86.7646C203.808 87.2451 203.969 87.8486 203.969 88.5752V92.8027C203.969 93.2363 203.998 93.626 204.057 93.9717C204.121 94.3115 204.212 94.6074 204.329 94.8594V95H202.158C202.059 94.7715 201.979 94.4814 201.921 94.1299C201.868 93.7725 201.842 93.4268 201.842 93.0928ZM202.149 89.2168L202.167 90.5264H200.646C200.254 90.5264 199.908 90.5645 199.609 90.6406C199.311 90.7109 199.062 90.8164 198.862 90.957C198.663 91.0977 198.514 91.2676 198.414 91.4668C198.314 91.666 198.265 91.8916 198.265 92.1436C198.265 92.3955 198.323 92.627 198.44 92.8379C198.558 93.043 198.728 93.2041 198.95 93.3213C199.179 93.4385 199.454 93.4971 199.776 93.4971C200.21 93.4971 200.588 93.4092 200.91 93.2334C201.238 93.0518 201.496 92.832 201.684 92.5742C201.871 92.3105 201.971 92.0615 201.982 91.8271L202.668 92.7676C202.598 93.0078 202.478 93.2656 202.308 93.541C202.138 93.8164 201.915 94.0801 201.64 94.332C201.37 94.5781 201.045 94.7803 200.664 94.9385C200.289 95.0967 199.855 95.1758 199.363 95.1758C198.742 95.1758 198.188 95.0527 197.702 94.8066C197.216 94.5547 196.835 94.2178 196.56 93.7959C196.284 93.3682 196.146 92.8848 196.146 92.3457C196.146 91.8418 196.24 91.3965 196.428 91.0098C196.621 90.6172 196.902 90.2891 197.271 90.0254C197.646 89.7617 198.104 89.5625 198.643 89.4277C199.182 89.2871 199.797 89.2168 200.488 89.2168H202.149ZM210.543 85.4902V87.0371H205.182V85.4902H210.543ZM206.729 83.1611H208.847V92.3721C208.847 92.665 208.888 92.8906 208.97 93.0488C209.058 93.2012 209.178 93.3037 209.33 93.3564C209.482 93.4092 209.661 93.4355 209.866 93.4355C210.013 93.4355 210.153 93.4268 210.288 93.4092C210.423 93.3916 210.531 93.374 210.613 93.3564L210.622 94.9736C210.446 95.0264 210.241 95.0732 210.007 95.1143C209.778 95.1553 209.515 95.1758 209.216 95.1758C208.729 95.1758 208.299 95.0908 207.924 94.9209C207.549 94.7451 207.256 94.4609 207.045 94.0684C206.834 93.6758 206.729 93.1543 206.729 92.5039V83.1611ZM214.27 81.5V95H212.16V81.5H214.27ZM213.9 89.8936L213.215 89.8848C213.221 89.2285 213.312 88.6221 213.487 88.0654C213.669 87.5088 213.921 87.0254 214.243 86.6152C214.571 86.1992 214.964 85.8799 215.421 85.6572C215.878 85.4287 216.385 85.3145 216.941 85.3145C217.41 85.3145 217.832 85.3789 218.207 85.5078C218.588 85.6367 218.916 85.8447 219.191 86.1318C219.467 86.4131 219.675 86.7822 219.815 87.2393C219.962 87.6904 220.035 88.2412 220.035 88.8916V95H217.908V88.874C217.908 88.417 217.841 88.0537 217.706 87.7842C217.577 87.5146 217.387 87.3213 217.135 87.2041C216.883 87.0811 216.575 87.0195 216.212 87.0195C215.831 87.0195 215.494 87.0957 215.201 87.248C214.914 87.4004 214.674 87.6084 214.48 87.8721C214.287 88.1357 214.141 88.4404 214.041 88.7861C213.947 89.1318 213.9 89.501 213.9 89.8936ZM227.655 82.2031V95H225.467V82.2031H227.655ZM231.672 82.2031V83.9609H221.485V82.2031H231.672ZM234.643 87.3008V95H232.524V85.4902H234.546L234.643 87.3008ZM237.552 85.4287L237.534 87.3975C237.405 87.374 237.265 87.3564 237.112 87.3447C236.966 87.333 236.819 87.3271 236.673 87.3271C236.31 87.3271 235.99 87.3799 235.715 87.4854C235.439 87.585 235.208 87.7314 235.021 87.9248C234.839 88.1123 234.698 88.3408 234.599 88.6104C234.499 88.8799 234.44 89.1816 234.423 89.5156L233.939 89.5508C233.939 88.9531 233.998 88.3994 234.115 87.8896C234.232 87.3799 234.408 86.9316 234.643 86.5449C234.883 86.1582 235.182 85.8564 235.539 85.6396C235.902 85.4229 236.321 85.3145 236.796 85.3145C236.925 85.3145 237.062 85.3262 237.209 85.3496C237.361 85.373 237.476 85.3994 237.552 85.4287ZM243.924 93.0928V88.5576C243.924 88.2178 243.862 87.9248 243.739 87.6787C243.616 87.4326 243.429 87.2422 243.177 87.1074C242.931 86.9727 242.62 86.9053 242.245 86.9053C241.899 86.9053 241.601 86.9639 241.349 87.0811C241.097 87.1982 240.9 87.3564 240.76 87.5557C240.619 87.7549 240.549 87.9805 240.549 88.2324H238.439C238.439 87.8574 238.53 87.4941 238.712 87.1426C238.894 86.791 239.157 86.4775 239.503 86.2021C239.849 85.9268 240.262 85.71 240.742 85.5518C241.223 85.3936 241.762 85.3145 242.359 85.3145C243.074 85.3145 243.707 85.4346 244.258 85.6748C244.814 85.915 245.251 86.2783 245.567 86.7646C245.89 87.2451 246.051 87.8486 246.051 88.5752V92.8027C246.051 93.2363 246.08 93.626 246.139 93.9717C246.203 94.3115 246.294 94.6074 246.411 94.8594V95H244.24C244.141 94.7715 244.062 94.4814 244.003 94.1299C243.95 93.7725 243.924 93.4268 243.924 93.0928ZM244.231 89.2168L244.249 90.5264H242.729C242.336 90.5264 241.99 90.5645 241.691 90.6406C241.393 90.7109 241.144 90.8164 240.944 90.957C240.745 91.0977 240.596 91.2676 240.496 91.4668C240.396 91.666 240.347 91.8916 240.347 92.1436C240.347 92.3955 240.405 92.627 240.522 92.8379C240.64 93.043 240.81 93.2041 241.032 93.3213C241.261 93.4385 241.536 93.4971 241.858 93.4971C242.292 93.4971 242.67 93.4092 242.992 93.2334C243.32 93.0518 243.578 92.832 243.766 92.5742C243.953 92.3105 244.053 92.0615 244.064 91.8271L244.75 92.7676C244.68 93.0078 244.56 93.2656 244.39 93.541C244.22 93.8164 243.997 94.0801 243.722 94.332C243.452 94.5781 243.127 94.7803 242.746 94.9385C242.371 95.0967 241.938 95.1758 241.445 95.1758C240.824 95.1758 240.271 95.0527 239.784 94.8066C239.298 94.5547 238.917 94.2178 238.642 93.7959C238.366 93.3682 238.229 92.8848 238.229 92.3457C238.229 91.8418 238.322 91.3965 238.51 91.0098C238.703 90.6172 238.984 90.2891 239.354 90.0254C239.729 89.7617 240.186 89.5625 240.725 89.4277C241.264 89.2871 241.879 89.2168 242.57 89.2168H244.231ZM252.15 93.4883C252.496 93.4883 252.807 93.4209 253.082 93.2861C253.363 93.1455 253.589 92.9521 253.759 92.7061C253.935 92.46 254.031 92.1758 254.049 91.8535H256.044C256.032 92.4688 255.851 93.0283 255.499 93.5322C255.147 94.0361 254.682 94.4375 254.102 94.7363C253.521 95.0293 252.88 95.1758 252.177 95.1758C251.45 95.1758 250.817 95.0527 250.278 94.8066C249.739 94.5547 249.291 94.209 248.934 93.7695C248.576 93.3301 248.307 92.8232 248.125 92.249C247.949 91.6748 247.861 91.0596 247.861 90.4033V90.0957C247.861 89.4395 247.949 88.8242 248.125 88.25C248.307 87.6699 248.576 87.1602 248.934 86.7207C249.291 86.2812 249.739 85.9385 250.278 85.6924C250.817 85.4404 251.447 85.3145 252.168 85.3145C252.93 85.3145 253.598 85.4668 254.172 85.7715C254.746 86.0703 255.197 86.4893 255.525 87.0283C255.859 87.5615 256.032 88.1826 256.044 88.8916H254.049C254.031 88.54 253.943 88.2236 253.785 87.9424C253.633 87.6553 253.416 87.4268 253.135 87.2568C252.859 87.0869 252.528 87.002 252.142 87.002C251.714 87.002 251.359 87.0898 251.078 87.2656C250.797 87.4355 250.577 87.6699 250.419 87.9688C250.261 88.2617 250.146 88.5928 250.076 88.9619C250.012 89.3252 249.979 89.7031 249.979 90.0957V90.4033C249.979 90.7959 250.012 91.1768 250.076 91.5459C250.141 91.915 250.252 92.2461 250.41 92.5391C250.574 92.8262 250.797 93.0576 251.078 93.2334C251.359 93.4033 251.717 93.4883 252.15 93.4883ZM261.862 95.1758C261.159 95.1758 260.523 95.0615 259.955 94.833C259.393 94.5986 258.912 94.2734 258.514 93.8574C258.121 93.4414 257.819 92.9521 257.608 92.3896C257.397 91.8271 257.292 91.2207 257.292 90.5703V90.2188C257.292 89.4746 257.4 88.8008 257.617 88.1973C257.834 87.5938 258.136 87.0781 258.522 86.6504C258.909 86.2168 259.366 85.8857 259.894 85.6572C260.421 85.4287 260.992 85.3145 261.607 85.3145C262.287 85.3145 262.882 85.4287 263.392 85.6572C263.901 85.8857 264.323 86.208 264.657 86.624C264.997 87.0342 265.249 87.5234 265.413 88.0918C265.583 88.6602 265.668 89.2871 265.668 89.9727V90.8779H258.32V89.3574H263.576V89.1904C263.564 88.8096 263.488 88.4521 263.348 88.1182C263.213 87.7842 263.005 87.5146 262.724 87.3096C262.442 87.1045 262.067 87.002 261.599 87.002C261.247 87.002 260.934 87.0781 260.658 87.2305C260.389 87.377 260.163 87.5908 259.981 87.8721C259.8 88.1533 259.659 88.4932 259.56 88.8916C259.466 89.2842 259.419 89.7266 259.419 90.2188V90.5703C259.419 90.9863 259.475 91.373 259.586 91.7305C259.703 92.082 259.873 92.3896 260.096 92.6533C260.318 92.917 260.588 93.125 260.904 93.2773C261.221 93.4238 261.581 93.4971 261.985 93.4971C262.495 93.4971 262.949 93.3945 263.348 93.1895C263.746 92.9844 264.092 92.6943 264.385 92.3193L265.501 93.4004C265.296 93.6992 265.029 93.9863 264.701 94.2617C264.373 94.5312 263.972 94.751 263.497 94.9209C263.028 95.0908 262.483 95.1758 261.862 95.1758ZM269.447 87.3008V95H267.329V85.4902H269.351L269.447 87.3008ZM272.356 85.4287L272.339 87.3975C272.21 87.374 272.069 87.3564 271.917 87.3447C271.771 87.333 271.624 87.3271 271.478 87.3271C271.114 87.3271 270.795 87.3799 270.52 87.4854C270.244 87.585 270.013 87.7314 269.825 87.9248C269.644 88.1123 269.503 88.3408 269.403 88.6104C269.304 88.8799 269.245 89.1816 269.228 89.5156L268.744 89.5508C268.744 88.9531 268.803 88.3994 268.92 87.8896C269.037 87.3799 269.213 86.9316 269.447 86.5449C269.688 86.1582 269.986 85.8564 270.344 85.6396C270.707 85.4229 271.126 85.3145 271.601 85.3145C271.729 85.3145 271.867 85.3262 272.014 85.3496C272.166 85.373 272.28 85.3994 272.356 85.4287Z" fill="#335ACF"/>
<path d="M296.156 127.625H300.18C301.044 127.625 301.781 127.755 302.391 128.016C303 128.276 303.466 128.661 303.789 129.172C304.117 129.677 304.281 130.302 304.281 131.047C304.281 131.615 304.177 132.115 303.969 132.547C303.76 132.979 303.466 133.344 303.086 133.641C302.706 133.932 302.253 134.159 301.727 134.32L301.133 134.609H297.516L297.5 133.055H300.211C300.68 133.055 301.07 132.971 301.383 132.805C301.695 132.638 301.93 132.411 302.086 132.125C302.247 131.833 302.328 131.505 302.328 131.141C302.328 130.745 302.25 130.401 302.094 130.109C301.943 129.812 301.708 129.586 301.391 129.43C301.073 129.268 300.669 129.188 300.18 129.188H298.117V139H296.156V127.625ZM302.648 139L299.977 133.891L302.031 133.883L304.742 138.898V139H302.648ZM309.773 139.156C309.148 139.156 308.583 139.055 308.078 138.852C307.578 138.643 307.151 138.354 306.797 137.984C306.448 137.615 306.18 137.18 305.992 136.68C305.805 136.18 305.711 135.641 305.711 135.062V134.75C305.711 134.089 305.807 133.49 306 132.953C306.193 132.417 306.461 131.958 306.805 131.578C307.148 131.193 307.555 130.898 308.023 130.695C308.492 130.492 309 130.391 309.547 130.391C310.151 130.391 310.68 130.492 311.133 130.695C311.586 130.898 311.961 131.185 312.258 131.555C312.56 131.919 312.784 132.354 312.93 132.859C313.081 133.365 313.156 133.922 313.156 134.531V135.336H306.625V133.984H311.297V133.836C311.286 133.497 311.219 133.18 311.094 132.883C310.974 132.586 310.789 132.346 310.539 132.164C310.289 131.982 309.956 131.891 309.539 131.891C309.227 131.891 308.948 131.958 308.703 132.094C308.464 132.224 308.263 132.414 308.102 132.664C307.94 132.914 307.815 133.216 307.727 133.57C307.643 133.919 307.602 134.312 307.602 134.75V135.062C307.602 135.432 307.651 135.776 307.75 136.094C307.854 136.406 308.005 136.68 308.203 136.914C308.401 137.148 308.641 137.333 308.922 137.469C309.203 137.599 309.523 137.664 309.883 137.664C310.336 137.664 310.74 137.573 311.094 137.391C311.448 137.208 311.755 136.951 312.016 136.617L313.008 137.578C312.826 137.844 312.589 138.099 312.297 138.344C312.005 138.583 311.648 138.779 311.227 138.93C310.81 139.081 310.326 139.156 309.773 139.156ZM319.391 137.305V133.273C319.391 132.971 319.336 132.711 319.227 132.492C319.117 132.273 318.951 132.104 318.727 131.984C318.508 131.865 318.232 131.805 317.898 131.805C317.591 131.805 317.326 131.857 317.102 131.961C316.878 132.065 316.703 132.206 316.578 132.383C316.453 132.56 316.391 132.76 316.391 132.984H314.516C314.516 132.651 314.596 132.328 314.758 132.016C314.919 131.703 315.154 131.424 315.461 131.18C315.768 130.935 316.135 130.742 316.562 130.602C316.99 130.461 317.469 130.391 318 130.391C318.635 130.391 319.198 130.497 319.688 130.711C320.182 130.924 320.57 131.247 320.852 131.68C321.138 132.107 321.281 132.643 321.281 133.289V137.047C321.281 137.432 321.307 137.779 321.359 138.086C321.417 138.388 321.497 138.651 321.602 138.875V139H319.672C319.583 138.797 319.513 138.539 319.461 138.227C319.414 137.909 319.391 137.602 319.391 137.305ZM319.664 133.859L319.68 135.023H318.328C317.979 135.023 317.672 135.057 317.406 135.125C317.141 135.188 316.919 135.281 316.742 135.406C316.565 135.531 316.432 135.682 316.344 135.859C316.255 136.036 316.211 136.237 316.211 136.461C316.211 136.685 316.263 136.891 316.367 137.078C316.471 137.26 316.622 137.404 316.82 137.508C317.023 137.612 317.268 137.664 317.555 137.664C317.94 137.664 318.276 137.586 318.562 137.43C318.854 137.268 319.083 137.073 319.25 136.844C319.417 136.609 319.505 136.388 319.516 136.18L320.125 137.016C320.062 137.229 319.956 137.458 319.805 137.703C319.654 137.948 319.456 138.182 319.211 138.406C318.971 138.625 318.682 138.805 318.344 138.945C318.01 139.086 317.625 139.156 317.188 139.156C316.635 139.156 316.143 139.047 315.711 138.828C315.279 138.604 314.94 138.305 314.695 137.93C314.451 137.549 314.328 137.12 314.328 136.641C314.328 136.193 314.411 135.797 314.578 135.453C314.75 135.104 315 134.812 315.328 134.578C315.661 134.344 316.068 134.167 316.547 134.047C317.026 133.922 317.573 133.859 318.188 133.859H319.664ZM325.266 127V139H323.375V127H325.266ZM332.195 127.625V139H330.25V127.625H332.195ZM335.766 127.625V129.188H326.711V127.625H335.766ZM339.094 130.547V139H337.203V130.547H339.094ZM337.078 128.328C337.078 128.042 337.172 127.805 337.359 127.617C337.552 127.424 337.818 127.328 338.156 127.328C338.49 127.328 338.753 127.424 338.945 127.617C339.138 127.805 339.234 128.042 339.234 128.328C339.234 128.609 339.138 128.844 338.945 129.031C338.753 129.219 338.49 129.312 338.156 129.312C337.818 129.312 337.552 129.219 337.359 129.031C337.172 128.844 337.078 128.609 337.078 128.328ZM343.039 132.266V139H341.156V130.547H342.93L343.039 132.266ZM342.734 134.461L342.094 134.453C342.094 133.87 342.167 133.331 342.312 132.836C342.458 132.341 342.672 131.911 342.953 131.547C343.234 131.177 343.583 130.893 344 130.695C344.422 130.492 344.909 130.391 345.461 130.391C345.846 130.391 346.198 130.448 346.516 130.562C346.839 130.672 347.117 130.846 347.352 131.086C347.591 131.326 347.773 131.633 347.898 132.008C348.029 132.383 348.094 132.836 348.094 133.367V139H346.211V133.531C346.211 133.12 346.148 132.797 346.023 132.562C345.904 132.328 345.729 132.161 345.5 132.062C345.276 131.958 345.008 131.906 344.695 131.906C344.341 131.906 344.039 131.974 343.789 132.109C343.544 132.245 343.344 132.43 343.188 132.664C343.031 132.898 342.917 133.169 342.844 133.477C342.771 133.784 342.734 134.112 342.734 134.461ZM347.977 133.961L347.094 134.156C347.094 133.646 347.164 133.164 347.305 132.711C347.451 132.253 347.661 131.852 347.938 131.508C348.219 131.159 348.565 130.885 348.977 130.688C349.388 130.49 349.859 130.391 350.391 130.391C350.823 130.391 351.208 130.451 351.547 130.57C351.891 130.685 352.182 130.867 352.422 131.117C352.661 131.367 352.844 131.693 352.969 132.094C353.094 132.49 353.156 132.969 353.156 133.531V139H351.266V133.523C351.266 133.096 351.203 132.766 351.078 132.531C350.958 132.297 350.786 132.135 350.562 132.047C350.339 131.953 350.07 131.906 349.758 131.906C349.466 131.906 349.208 131.961 348.984 132.07C348.766 132.174 348.581 132.323 348.43 132.516C348.279 132.703 348.164 132.919 348.086 133.164C348.013 133.409 347.977 133.674 347.977 133.961ZM358.82 139.156C358.195 139.156 357.63 139.055 357.125 138.852C356.625 138.643 356.198 138.354 355.844 137.984C355.495 137.615 355.227 137.18 355.039 136.68C354.852 136.18 354.758 135.641 354.758 135.062V134.75C354.758 134.089 354.854 133.49 355.047 132.953C355.24 132.417 355.508 131.958 355.852 131.578C356.195 131.193 356.602 130.898 357.07 130.695C357.539 130.492 358.047 130.391 358.594 130.391C359.198 130.391 359.727 130.492 360.18 130.695C360.633 130.898 361.008 131.185 361.305 131.555C361.607 131.919 361.831 132.354 361.977 132.859C362.128 133.365 362.203 133.922 362.203 134.531V135.336H355.672V133.984H360.344V133.836C360.333 133.497 360.266 133.18 360.141 132.883C360.021 132.586 359.836 132.346 359.586 132.164C359.336 131.982 359.003 131.891 358.586 131.891C358.273 131.891 357.995 131.958 357.75 132.094C357.51 132.224 357.31 132.414 357.148 132.664C356.987 132.914 356.862 133.216 356.773 133.57C356.69 133.919 356.648 134.312 356.648 134.75V135.062C356.648 135.432 356.698 135.776 356.797 136.094C356.901 136.406 357.052 136.68 357.25 136.914C357.448 137.148 357.688 137.333 357.969 137.469C358.25 137.599 358.57 137.664 358.93 137.664C359.383 137.664 359.786 137.573 360.141 137.391C360.495 137.208 360.802 136.951 361.062 136.617L362.055 137.578C361.872 137.844 361.635 138.099 361.344 138.344C361.052 138.583 360.695 138.779 360.273 138.93C359.857 139.081 359.372 139.156 358.82 139.156Z" fill="#5B84FF"/>
<path d="M399.019 112H396.285L396.303 110.251H399.019C399.81 110.251 400.472 110.078 401.005 109.732C401.544 109.387 401.948 108.892 402.218 108.247C402.493 107.603 402.631 106.835 402.631 105.944V105.25C402.631 104.559 402.552 103.946 402.394 103.413C402.241 102.88 402.013 102.432 401.708 102.068C401.409 101.705 401.04 101.43 400.601 101.242C400.167 101.055 399.666 100.961 399.098 100.961H396.232V99.2031H399.098C399.947 99.2031 400.724 99.3467 401.427 99.6338C402.13 99.915 402.736 100.322 403.246 100.855C403.762 101.389 404.157 102.027 404.433 102.771C404.708 103.516 404.846 104.348 404.846 105.268V105.944C404.846 106.864 404.708 107.696 404.433 108.44C404.157 109.185 403.762 109.823 403.246 110.356C402.73 110.884 402.115 111.291 401.4 111.578C400.691 111.859 399.897 112 399.019 112ZM397.507 99.2031V112H395.301V99.2031H397.507ZM409.117 102.49V112H406.99V102.49H409.117ZM406.85 99.9941C406.85 99.6719 406.955 99.4053 407.166 99.1943C407.383 98.9775 407.682 98.8691 408.062 98.8691C408.438 98.8691 408.733 98.9775 408.95 99.1943C409.167 99.4053 409.275 99.6719 409.275 99.9941C409.275 100.311 409.167 100.574 408.95 100.785C408.733 100.996 408.438 101.102 408.062 101.102C407.682 101.102 407.383 100.996 407.166 100.785C406.955 100.574 406.85 100.311 406.85 99.9941ZM414.303 112H412.185V101.576C412.185 100.867 412.316 100.272 412.58 99.792C412.85 99.3057 413.233 98.9395 413.731 98.6934C414.229 98.4414 414.818 98.3154 415.498 98.3154C415.709 98.3154 415.917 98.3301 416.122 98.3594C416.327 98.3828 416.526 98.4209 416.72 98.4736L416.667 100.108C416.55 100.079 416.421 100.059 416.28 100.047C416.146 100.035 415.999 100.029 415.841 100.029C415.519 100.029 415.24 100.091 415.006 100.214C414.777 100.331 414.602 100.504 414.479 100.732C414.361 100.961 414.303 101.242 414.303 101.576V112ZM416.263 102.49V104.037H410.726V102.49H416.263ZM420.666 112H418.548V101.576C418.548 100.867 418.68 100.272 418.943 99.792C419.213 99.3057 419.597 98.9395 420.095 98.6934C420.593 98.4414 421.182 98.3154 421.861 98.3154C422.072 98.3154 422.28 98.3301 422.485 98.3594C422.69 98.3828 422.89 98.4209 423.083 98.4736L423.03 100.108C422.913 100.079 422.784 100.059 422.644 100.047C422.509 100.035 422.362 100.029 422.204 100.029C421.882 100.029 421.604 100.091 421.369 100.214C421.141 100.331 420.965 100.504 420.842 100.732C420.725 100.961 420.666 101.242 420.666 101.576V112ZM422.626 102.49V104.037H417.089V102.49H422.626ZM424.375 99.2031H428.901C429.874 99.2031 430.703 99.3496 431.389 99.6426C432.074 99.9355 432.599 100.369 432.962 100.943C433.331 101.512 433.516 102.215 433.516 103.053C433.516 103.691 433.398 104.254 433.164 104.74C432.93 105.227 432.599 105.637 432.171 105.971C431.743 106.299 431.233 106.554 430.642 106.735L429.974 107.061H425.904L425.887 105.312H428.937C429.464 105.312 429.903 105.218 430.255 105.03C430.606 104.843 430.87 104.588 431.046 104.266C431.228 103.938 431.318 103.568 431.318 103.158C431.318 102.713 431.23 102.326 431.055 101.998C430.885 101.664 430.621 101.409 430.264 101.233C429.906 101.052 429.452 100.961 428.901 100.961H426.581V112H424.375V99.2031ZM431.679 112L428.673 106.252L430.984 106.243L434.034 111.886V112H431.679ZM439.694 112.176C438.991 112.176 438.355 112.062 437.787 111.833C437.225 111.599 436.744 111.273 436.346 110.857C435.953 110.441 435.651 109.952 435.44 109.39C435.229 108.827 435.124 108.221 435.124 107.57V107.219C435.124 106.475 435.232 105.801 435.449 105.197C435.666 104.594 435.968 104.078 436.354 103.65C436.741 103.217 437.198 102.886 437.726 102.657C438.253 102.429 438.824 102.314 439.439 102.314C440.119 102.314 440.714 102.429 441.224 102.657C441.733 102.886 442.155 103.208 442.489 103.624C442.829 104.034 443.081 104.523 443.245 105.092C443.415 105.66 443.5 106.287 443.5 106.973V107.878H436.152V106.357H441.408V106.19C441.396 105.81 441.32 105.452 441.18 105.118C441.045 104.784 440.837 104.515 440.556 104.31C440.274 104.104 439.899 104.002 439.431 104.002C439.079 104.002 438.766 104.078 438.49 104.23C438.221 104.377 437.995 104.591 437.813 104.872C437.632 105.153 437.491 105.493 437.392 105.892C437.298 106.284 437.251 106.727 437.251 107.219V107.57C437.251 107.986 437.307 108.373 437.418 108.73C437.535 109.082 437.705 109.39 437.928 109.653C438.15 109.917 438.42 110.125 438.736 110.277C439.053 110.424 439.413 110.497 439.817 110.497C440.327 110.497 440.781 110.395 441.18 110.189C441.578 109.984 441.924 109.694 442.217 109.319L443.333 110.4C443.128 110.699 442.861 110.986 442.533 111.262C442.205 111.531 441.804 111.751 441.329 111.921C440.86 112.091 440.315 112.176 439.694 112.176ZM447.253 104.521V112H445.135V102.49H447.13L447.253 104.521ZM446.875 106.894L446.189 106.885C446.195 106.211 446.289 105.593 446.471 105.03C446.658 104.468 446.916 103.984 447.244 103.58C447.578 103.176 447.977 102.865 448.439 102.648C448.902 102.426 449.418 102.314 449.986 102.314C450.443 102.314 450.856 102.379 451.226 102.508C451.601 102.631 451.92 102.833 452.184 103.114C452.453 103.396 452.658 103.762 452.799 104.213C452.939 104.658 453.01 105.206 453.01 105.856V112H450.883V105.848C450.883 105.391 450.815 105.03 450.681 104.767C450.552 104.497 450.361 104.307 450.109 104.195C449.863 104.078 449.556 104.02 449.187 104.02C448.823 104.02 448.498 104.096 448.211 104.248C447.924 104.4 447.681 104.608 447.481 104.872C447.288 105.136 447.139 105.44 447.033 105.786C446.928 106.132 446.875 106.501 446.875 106.894ZM460.973 110.031V98.5H463.1V112H461.175L460.973 110.031ZM454.785 107.351V107.166C454.785 106.445 454.87 105.789 455.04 105.197C455.21 104.6 455.456 104.087 455.778 103.659C456.101 103.226 456.493 102.895 456.956 102.666C457.419 102.432 457.94 102.314 458.521 102.314C459.095 102.314 459.599 102.426 460.032 102.648C460.466 102.871 460.835 103.19 461.14 103.606C461.444 104.017 461.688 104.509 461.869 105.083C462.051 105.651 462.18 106.284 462.256 106.981V107.57C462.18 108.25 462.051 108.871 461.869 109.434C461.688 109.996 461.444 110.482 461.14 110.893C460.835 111.303 460.463 111.619 460.023 111.842C459.59 112.064 459.083 112.176 458.503 112.176C457.929 112.176 457.41 112.056 456.947 111.815C456.49 111.575 456.101 111.238 455.778 110.805C455.456 110.371 455.21 109.861 455.04 109.275C454.87 108.684 454.785 108.042 454.785 107.351ZM456.903 107.166V107.351C456.903 107.784 456.941 108.188 457.018 108.563C457.1 108.938 457.226 109.27 457.396 109.557C457.565 109.838 457.785 110.061 458.055 110.225C458.33 110.383 458.658 110.462 459.039 110.462C459.52 110.462 459.915 110.356 460.226 110.146C460.536 109.935 460.779 109.65 460.955 109.293C461.137 108.93 461.26 108.525 461.324 108.08V106.489C461.289 106.144 461.216 105.821 461.104 105.522C460.999 105.224 460.855 104.963 460.674 104.74C460.492 104.512 460.267 104.336 459.997 104.213C459.733 104.084 459.42 104.02 459.057 104.02C458.67 104.02 458.342 104.102 458.072 104.266C457.803 104.43 457.58 104.655 457.404 104.942C457.234 105.229 457.108 105.563 457.026 105.944C456.944 106.325 456.903 106.732 456.903 107.166ZM469.507 112.176C468.804 112.176 468.168 112.062 467.6 111.833C467.037 111.599 466.557 111.273 466.158 110.857C465.766 110.441 465.464 109.952 465.253 109.39C465.042 108.827 464.937 108.221 464.937 107.57V107.219C464.937 106.475 465.045 105.801 465.262 105.197C465.479 104.594 465.78 104.078 466.167 103.65C466.554 103.217 467.011 102.886 467.538 102.657C468.065 102.429 468.637 102.314 469.252 102.314C469.932 102.314 470.526 102.429 471.036 102.657C471.546 102.886 471.968 103.208 472.302 103.624C472.642 104.034 472.894 104.523 473.058 105.092C473.228 105.66 473.312 106.287 473.312 106.973V107.878H465.965V106.357H471.221V106.19C471.209 105.81 471.133 105.452 470.992 105.118C470.857 104.784 470.649 104.515 470.368 104.31C470.087 104.104 469.712 104.002 469.243 104.002C468.892 104.002 468.578 104.078 468.303 104.23C468.033 104.377 467.808 104.591 467.626 104.872C467.444 105.153 467.304 105.493 467.204 105.892C467.11 106.284 467.063 106.727 467.063 107.219V107.57C467.063 107.986 467.119 108.373 467.23 108.73C467.348 109.082 467.518 109.39 467.74 109.653C467.963 109.917 468.232 110.125 468.549 110.277C468.865 110.424 469.226 110.497 469.63 110.497C470.14 110.497 470.594 110.395 470.992 110.189C471.391 109.984 471.736 109.694 472.029 109.319L473.146 110.4C472.94 110.699 472.674 110.986 472.346 111.262C472.018 111.531 471.616 111.751 471.142 111.921C470.673 112.091 470.128 112.176 469.507 112.176ZM477.092 104.301V112H474.974V102.49H476.995L477.092 104.301ZM480.001 102.429L479.983 104.397C479.854 104.374 479.714 104.356 479.562 104.345C479.415 104.333 479.269 104.327 479.122 104.327C478.759 104.327 478.439 104.38 478.164 104.485C477.889 104.585 477.657 104.731 477.47 104.925C477.288 105.112 477.147 105.341 477.048 105.61C476.948 105.88 476.89 106.182 476.872 106.516L476.389 106.551C476.389 105.953 476.447 105.399 476.564 104.89C476.682 104.38 476.857 103.932 477.092 103.545C477.332 103.158 477.631 102.856 477.988 102.64C478.352 102.423 478.771 102.314 479.245 102.314C479.374 102.314 479.512 102.326 479.658 102.35C479.811 102.373 479.925 102.399 480.001 102.429Z" fill="#9333FA"/>
<path d="M239.197 32.2031H241.166L244.866 42.0732L248.558 32.2031H250.526L245.64 45H244.075L239.197 32.2031ZM238.301 32.2031H240.173L240.498 40.7461V45H238.301V32.2031ZM249.551 32.2031H251.432V45H249.226V40.7461L249.551 32.2031ZM258.032 45.1758C257.329 45.1758 256.693 45.0615 256.125 44.833C255.562 44.5986 255.082 44.2734 254.684 43.8574C254.291 43.4414 253.989 42.9521 253.778 42.3896C253.567 41.8271 253.462 41.2207 253.462 40.5703V40.2188C253.462 39.4746 253.57 38.8008 253.787 38.1973C254.004 37.5938 254.306 37.0781 254.692 36.6504C255.079 36.2168 255.536 35.8857 256.063 35.6572C256.591 35.4287 257.162 35.3145 257.777 35.3145C258.457 35.3145 259.052 35.4287 259.562 35.6572C260.071 35.8857 260.493 36.208 260.827 36.624C261.167 37.0342 261.419 37.5234 261.583 38.0918C261.753 38.6602 261.838 39.2871 261.838 39.9727V40.8779H254.49V39.3574H259.746V39.1904C259.734 38.8096 259.658 38.4521 259.518 38.1182C259.383 37.7842 259.175 37.5146 258.894 37.3096C258.612 37.1045 258.237 37.002 257.769 37.002C257.417 37.002 257.104 37.0781 256.828 37.2305C256.559 37.377 256.333 37.5908 256.151 37.8721C255.97 38.1533 255.829 38.4932 255.729 38.8916C255.636 39.2842 255.589 39.7266 255.589 40.2188V40.5703C255.589 40.9863 255.645 41.373 255.756 41.7305C255.873 42.082 256.043 42.3896 256.266 42.6533C256.488 42.917 256.758 43.125 257.074 43.2773C257.391 43.4238 257.751 43.4971 258.155 43.4971C258.665 43.4971 259.119 43.3945 259.518 43.1895C259.916 42.9844 260.262 42.6943 260.555 42.3193L261.671 43.4004C261.466 43.6992 261.199 43.9863 260.871 44.2617C260.543 44.5312 260.142 44.751 259.667 44.9209C259.198 45.0908 258.653 45.1758 258.032 45.1758ZM268.825 42.4248C268.825 42.2139 268.772 42.0234 268.667 41.8535C268.562 41.6777 268.359 41.5195 268.061 41.3789C267.768 41.2383 267.334 41.1094 266.76 40.9922C266.256 40.8809 265.793 40.749 265.371 40.5967C264.955 40.4385 264.598 40.248 264.299 40.0254C264 39.8027 263.769 39.5391 263.604 39.2344C263.44 38.9297 263.358 38.5781 263.358 38.1797C263.358 37.793 263.443 37.4268 263.613 37.0811C263.783 36.7354 264.026 36.4307 264.343 36.167C264.659 35.9033 265.043 35.6953 265.494 35.543C265.951 35.3906 266.461 35.3145 267.023 35.3145C267.82 35.3145 268.503 35.4492 269.071 35.7188C269.646 35.9824 270.085 36.3428 270.39 36.7998C270.694 37.251 270.847 37.7607 270.847 38.3291H268.729C268.729 38.0771 268.664 37.8428 268.535 37.626C268.412 37.4033 268.225 37.2246 267.973 37.0898C267.721 36.9492 267.404 36.8789 267.023 36.8789C266.66 36.8789 266.358 36.9375 266.118 37.0547C265.884 37.166 265.708 37.3125 265.591 37.4941C265.479 37.6758 265.424 37.875 265.424 38.0918C265.424 38.25 265.453 38.3936 265.512 38.5225C265.576 38.6455 265.682 38.7598 265.828 38.8652C265.975 38.9648 266.174 39.0586 266.426 39.1465C266.684 39.2344 267.006 39.3193 267.393 39.4014C268.119 39.5537 268.743 39.75 269.265 39.9902C269.792 40.2246 270.196 40.5293 270.478 40.9043C270.759 41.2734 270.899 41.7422 270.899 42.3105C270.899 42.7324 270.809 43.1191 270.627 43.4707C270.451 43.8164 270.193 44.1182 269.854 44.376C269.514 44.6279 269.106 44.8242 268.632 44.9648C268.163 45.1055 267.636 45.1758 267.05 45.1758C266.188 45.1758 265.459 45.0234 264.861 44.7188C264.264 44.4082 263.81 44.0127 263.499 43.5322C263.194 43.0459 263.042 42.542 263.042 42.0205H265.09C265.113 42.4131 265.222 42.7266 265.415 42.9609C265.614 43.1895 265.86 43.3564 266.153 43.4619C266.452 43.5615 266.76 43.6113 267.076 43.6113C267.457 43.6113 267.776 43.5615 268.034 43.4619C268.292 43.3564 268.488 43.2158 268.623 43.04C268.758 42.8584 268.825 42.6533 268.825 42.4248ZM274.846 31.5V45H272.736V31.5H274.846ZM274.477 39.8936L273.791 39.8848C273.797 39.2285 273.888 38.6221 274.063 38.0654C274.245 37.5088 274.497 37.0254 274.819 36.6152C275.147 36.1992 275.54 35.8799 275.997 35.6572C276.454 35.4287 276.961 35.3145 277.518 35.3145C277.986 35.3145 278.408 35.3789 278.783 35.5078C279.164 35.6367 279.492 35.8447 279.768 36.1318C280.043 36.4131 280.251 36.7822 280.392 37.2393C280.538 37.6904 280.611 38.2412 280.611 38.8916V45H278.484V38.874C278.484 38.417 278.417 38.0537 278.282 37.7842C278.153 37.5146 277.963 37.3213 277.711 37.2041C277.459 37.0811 277.151 37.0195 276.788 37.0195C276.407 37.0195 276.07 37.0957 275.777 37.248C275.49 37.4004 275.25 37.6084 275.057 37.8721C274.863 38.1357 274.717 38.4404 274.617 38.7861C274.523 39.1318 274.477 39.501 274.477 39.8936Z" fill="#9333FA"/>
<path d="M437.507 49.2031V62H435.301V49.2031H437.507ZM442.728 54.8018V56.5508H436.944V54.8018H442.728ZM443.457 49.2031V50.9609H436.944V49.2031H443.457ZM453.591 60.251V62H446.797V60.251H453.591ZM447.421 49.2031V62H445.215V49.2031H447.421ZM452.703 54.5469V56.2695H446.797V54.5469H452.703ZM453.547 49.2031V50.9609H446.797V49.2031H453.547ZM456.289 49.2031H458.258L461.958 59.0732L465.649 49.2031H467.618L462.731 62H461.167L456.289 49.2031ZM455.393 49.2031H457.265L457.59 57.7461V62H455.393V49.2031ZM466.643 49.2031H468.523V62H466.317V57.7461L466.643 49.2031Z" fill="#335ACF"/>
<path d="M373.982 16.6758L369.734 29H367.166L372.518 14.7812H374.158L373.982 16.6758ZM377.537 29L373.279 16.6758L373.094 14.7812H374.744L380.115 29H377.537ZM377.332 23.7266V25.6699H369.598V23.7266H377.332ZM383.836 20.4453V29H381.482V18.4336H383.729L383.836 20.4453ZM387.068 18.3652L387.049 20.5527C386.906 20.5267 386.749 20.5072 386.58 20.4941C386.417 20.4811 386.255 20.4746 386.092 20.4746C385.688 20.4746 385.333 20.5332 385.027 20.6504C384.721 20.7611 384.464 20.9238 384.256 21.1387C384.054 21.347 383.898 21.6009 383.787 21.9004C383.676 22.1999 383.611 22.5352 383.592 22.9062L383.055 22.9453C383.055 22.2812 383.12 21.666 383.25 21.0996C383.38 20.5332 383.576 20.0352 383.836 19.6055C384.103 19.1758 384.435 18.8405 384.832 18.5996C385.236 18.3587 385.701 18.2383 386.229 18.2383C386.372 18.2383 386.525 18.2513 386.688 18.2773C386.857 18.3034 386.984 18.3327 387.068 18.3652ZM394.148 26.8809V21.8418C394.148 21.4642 394.08 21.1387 393.943 20.8652C393.807 20.5918 393.598 20.3802 393.318 20.2305C393.045 20.0807 392.7 20.0059 392.283 20.0059C391.899 20.0059 391.567 20.071 391.287 20.2012C391.007 20.3314 390.789 20.5072 390.633 20.7285C390.477 20.9499 390.398 21.2005 390.398 21.4805H388.055C388.055 21.0638 388.156 20.6602 388.357 20.2695C388.559 19.8789 388.852 19.5306 389.236 19.2246C389.62 18.9186 390.079 18.6777 390.613 18.502C391.147 18.3262 391.746 18.2383 392.41 18.2383C393.204 18.2383 393.908 18.3717 394.52 18.6387C395.138 18.9056 395.623 19.3092 395.975 19.8496C396.333 20.3835 396.512 21.054 396.512 21.8613V26.5586C396.512 27.0404 396.544 27.4733 396.609 27.8574C396.681 28.235 396.782 28.5638 396.912 28.8438V29H394.5C394.389 28.7461 394.301 28.4238 394.236 28.0332C394.178 27.6361 394.148 27.252 394.148 26.8809ZM394.49 22.5742L394.51 24.0293H392.82C392.384 24.0293 392 24.0716 391.668 24.1562C391.336 24.2344 391.059 24.3516 390.838 24.5078C390.617 24.6641 390.451 24.8529 390.34 25.0742C390.229 25.2956 390.174 25.5462 390.174 25.8262C390.174 26.1061 390.239 26.3633 390.369 26.5977C390.499 26.8255 390.688 27.0046 390.936 27.1348C391.189 27.265 391.495 27.3301 391.854 27.3301C392.335 27.3301 392.755 27.2324 393.113 27.0371C393.478 26.8353 393.764 26.5911 393.973 26.3047C394.181 26.0117 394.292 25.735 394.305 25.4746L395.066 26.5195C394.988 26.7865 394.855 27.0729 394.666 27.3789C394.477 27.6849 394.23 27.9779 393.924 28.2578C393.624 28.5312 393.263 28.7559 392.84 28.9316C392.423 29.1074 391.941 29.1953 391.395 29.1953C390.704 29.1953 390.089 29.0586 389.549 28.7852C389.008 28.5052 388.585 28.1309 388.279 27.6621C387.973 27.1868 387.82 26.6497 387.82 26.0508C387.82 25.4909 387.924 24.9961 388.133 24.5664C388.348 24.1302 388.66 23.7656 389.07 23.4727C389.487 23.1797 389.995 22.9583 390.594 22.8086C391.193 22.6523 391.876 22.5742 392.645 22.5742H394.49ZM401.336 20.4648V33.0625H398.982V18.4336H401.15L401.336 20.4648ZM408.221 23.6191V23.8242C408.221 24.5924 408.13 25.3053 407.947 25.9629C407.771 26.6139 407.508 27.1836 407.156 27.6719C406.811 28.1536 406.385 28.528 405.877 28.7949C405.369 29.0618 404.783 29.1953 404.119 29.1953C403.462 29.1953 402.885 29.0749 402.391 28.834C401.902 28.5866 401.489 28.2383 401.15 27.7891C400.812 27.3398 400.538 26.8125 400.33 26.207C400.128 25.5951 399.985 24.9245 399.9 24.1953V23.4043C399.985 22.6296 400.128 21.9264 400.33 21.2949C400.538 20.6634 400.812 20.1198 401.15 19.6641C401.489 19.2083 401.902 18.8568 402.391 18.6094C402.879 18.362 403.449 18.2383 404.1 18.2383C404.764 18.2383 405.353 18.3685 405.867 18.6289C406.382 18.8828 406.814 19.2474 407.166 19.7227C407.518 20.1914 407.781 20.7578 407.957 21.4219C408.133 22.0794 408.221 22.8118 408.221 23.6191ZM405.867 23.8242V23.6191C405.867 23.1309 405.822 22.6784 405.73 22.2617C405.639 21.8385 405.496 21.4674 405.301 21.1484C405.105 20.8294 404.855 20.582 404.549 20.4062C404.249 20.224 403.888 20.1328 403.465 20.1328C403.048 20.1328 402.69 20.2044 402.391 20.3477C402.091 20.4844 401.84 20.6764 401.639 20.9238C401.437 21.1712 401.281 21.4609 401.17 21.793C401.059 22.1185 400.981 22.4733 400.936 22.8574V24.752C401.014 25.2207 401.147 25.6504 401.336 26.041C401.525 26.4316 401.792 26.7441 402.137 26.9785C402.488 27.2064 402.938 27.3203 403.484 27.3203C403.908 27.3203 404.269 27.2292 404.568 27.0469C404.868 26.8646 405.112 26.6139 405.301 26.2949C405.496 25.9694 405.639 25.5951 405.73 25.1719C405.822 24.7487 405.867 24.2995 405.867 23.8242ZM416.15 26.1387C416.15 25.9043 416.092 25.6927 415.975 25.5039C415.857 25.3086 415.633 25.1328 415.301 24.9766C414.975 24.8203 414.493 24.6771 413.855 24.5469C413.296 24.4232 412.781 24.2767 412.312 24.1074C411.85 23.9316 411.453 23.7201 411.121 23.4727C410.789 23.2253 410.532 22.9323 410.35 22.5938C410.167 22.2552 410.076 21.8646 410.076 21.4219C410.076 20.9922 410.171 20.5853 410.359 20.2012C410.548 19.8171 410.818 19.4785 411.17 19.1855C411.521 18.8926 411.948 18.6615 412.449 18.4922C412.957 18.3229 413.523 18.2383 414.148 18.2383C415.034 18.2383 415.792 18.388 416.424 18.6875C417.062 18.9805 417.55 19.3809 417.889 19.8887C418.227 20.39 418.396 20.9564 418.396 21.5879H416.043C416.043 21.3079 415.971 21.0475 415.828 20.8066C415.691 20.5592 415.483 20.3607 415.203 20.2109C414.923 20.0547 414.572 19.9766 414.148 19.9766C413.745 19.9766 413.41 20.0417 413.143 20.1719C412.882 20.2956 412.687 20.4583 412.557 20.6602C412.433 20.862 412.371 21.0833 412.371 21.3242C412.371 21.5 412.404 21.6595 412.469 21.8027C412.54 21.9395 412.658 22.0664 412.82 22.1836C412.983 22.2943 413.204 22.3984 413.484 22.4961C413.771 22.5938 414.129 22.6882 414.559 22.7793C415.366 22.9486 416.059 23.1667 416.639 23.4336C417.225 23.694 417.674 24.0326 417.986 24.4492C418.299 24.8594 418.455 25.3802 418.455 26.0117C418.455 26.4805 418.354 26.9102 418.152 27.3008C417.957 27.6849 417.671 28.0202 417.293 28.3066C416.915 28.5866 416.463 28.8047 415.936 28.9609C415.415 29.1172 414.829 29.1953 414.178 29.1953C413.221 29.1953 412.41 29.026 411.746 28.6875C411.082 28.3424 410.577 27.903 410.232 27.3691C409.894 26.8288 409.725 26.2689 409.725 25.6895H412C412.026 26.1257 412.146 26.474 412.361 26.7344C412.583 26.9883 412.856 27.1738 413.182 27.291C413.514 27.4017 413.855 27.457 414.207 27.457C414.63 27.457 414.985 27.4017 415.271 27.291C415.558 27.1738 415.776 27.0176 415.926 26.8223C416.076 26.6204 416.15 26.3926 416.15 26.1387Z" fill="#5B84FF"/>
</svg>
